<svg id="Layer_1" data-name="Layer 1" xmlns="http://www.w3.org/2000/svg" viewBox="0 0 7024.08 1904.72"><defs><style>.cls-1{fill:#03b07b;}.cls-1,.cls-2{fill-rule:evenodd;}.cls-2{fill:#f4f4f4;}.cls-3{fill:#2e2f2f;}</style></defs><title>Seed Joined</title><path class="cls-1" d="M1453,951.63c0,351-284.56,635.56-635.56,635.56S181.86,1302.63,181.86,951.63,466.41,316.05,817.42,316.05,1453,600.6,1453,951.63Z"/><path class="cls-2" d="M819.77,1289.52a31.64,31.64,0,0,1-16-3.89Q710.42,1233.76,617.08,1182c-19-10.47-38-20.87-57.33-30.56-10.93-5.44-15.59-13.65-15.71-25.31-.12-11.1,5.55-17.79,15-22.94q102.9-56.48,205.59-113.3c13.57-7.45,27.32-14.49,41.07-21.56,11.23-5.78,22.28-4.44,33,1.47,46.43,25.62,92.81,51.4,139.32,76.89,29.83,16.34,59.87,32.27,89.8,48.49a127.34,127.34,0,0,1,11.4,6.74c20.66,14.09,21.24,36.57,0,49.46-26.74,16.25-54.34,31.12-81.8,46.18-24.44,13.41-49.26,26-73.68,39.38-27.93,15.27-55.61,31-83.35,46.55C833.71,1287.24,826.81,1290,819.77,1289.52Z"/><path class="cls-2" d="M799.73,776c0,43.41-.42,86.81.21,130.21.25,16.38-6.84,25.82-20.81,33.52-33.69,18.56-68,36-101.29,55.38-45.47,26.46-92.15,50.87-138.59,75.58-20.11,10.75-45.39-4.82-44.47-27.12,3-73.93.5-147.86,1.34-221.79.16-13.3.8-26.63-.18-39.86-1.16-15.2,6.53-24,18.63-30.66q59.79-33.1,119.54-66.3c39.49-21.84,79.19-43.34,118.6-65.32,25.26-14.11,46.89-2.35,47,26.15C799.81,689.21,799.73,732.61,799.73,776Z"/><path class="cls-2" d="M842.7,776c0,43.41.37,86.81-.24,130.21-.24,16.38,6.87,25.82,20.82,33.52,33.69,18.56,68,36,101.28,55.38,45.5,26.46,92.15,50.87,138.62,75.58,20.11,10.75,45.37-4.82,44.45-27.12-3.05-73.93-.5-147.86-1.34-221.79-.16-13.3-.82-26.63.18-39.86,1.16-15.2-6.54-24-18.64-30.66q-59.77-33.1-119.53-66.3c-39.5-21.84-79.19-43.34-118.62-65.32-25.26-14.11-46.88-2.35-47,26.15C842.58,689.21,842.7,732.61,842.7,776Z"/><path class="cls-2" d="M640.74,611.91c0,37.41-2.47,39.89-37.55,40.21-76.77.69-135.19-56.15-133-129.36.83-27.27,3.35-30,29.91-32.79,57.37-6,117.72,32.93,136,87.65A99.11,99.11,0,0,1,640.74,611.91Z"/><path class="cls-3" d="M1876,587.75c206.49,0,340.83,104.41,343.9,264.08h-206.5c-4.61-66-57.57-106.71-140.47-106.71-77.54,0-128.2,35.32-128.2,88.29,0,40.68,35.31,68.31,107.47,85.2l157.37,33.78c165,36.84,231.83,102.09,231.83,224.92,0,162-148.92,268.68-366.17,268.68-219.55,0-354.65-105.94-366.93-266.38h218.78c10.75,69.09,65.25,109,154.3,109,85.2,0,136.64-33.78,136.64-87.5,0-41.46-27.64-64.5-101.34-82.16l-152-33.77c-155.83-35.31-235.67-116.68-235.67-238C1529,690.62,1664.88,587.75,1876,587.75Z"/><path class="cls-3" d="M3103.54,1176.55c-24.57,161.2-172,269.44-375.38,269.44-253.33,0-405.31-162-405.31-425.28,0-262.54,153.52-433,396.87-433,239.5,0,390.73,162,390.73,412.23v68.33h-567.3v13.81c0,117.44,74.47,198.05,188.85,198.05,82.14,0,145.08-40.68,165.81-103.62ZM2545.46,930.89h349.28c-4.61-105.16-72.92-177.31-172.72-177.31C2623.76,753.58,2553.13,828,2545.46,930.89Z"/><path class="cls-3" d="M3976.44,1176.55c-24.58,161.2-172,269.44-375.39,269.44-253.32,0-405.31-162-405.31-425.28,0-262.54,153.53-433,396.88-433,239.5,0,390.73,162,390.73,412.23v68.33H3416.06v13.81c0,117.44,74.46,198.05,188.83,198.05,82.14,0,145.1-40.68,165.81-103.62ZM3418.35,930.89h349.29c-4.61-105.16-72.92-177.31-172.74-177.31C3496.65,753.58,3426,828,3418.35,930.89Z"/><path class="cls-3" d="M4069.31,1010.79c0-261,130.49-423,337-423,119,0,211.12,63,251,154.3h4.61v-426h224.16V1423.79H4665V1282.54h-3.84c-39.92,90.58-135.09,154.29-256.39,154.29C4199,1436.83,4069.31,1274.1,4069.31,1010.79Zm229.5,1.54c0,151.22,69.11,244.11,181.95,244.11,111.3,0,182.69-93.66,182.69-244.11,0-149.69-71.39-244.88-182.69-244.88C4367.92,767.45,4298.81,861.87,4298.81,1012.33Z"/><rect class="cls-3" x="5091.3" y="140.86" width="34.7" height="1623"/><path class="cls-3" d="M5558.93,1296.87V1097h-1.25l-82.67,198h-27.32L5365,1097h-1.25v199.84h-30.2V1037.55h37.57l89.5,216.37h1.42l89.5-216.37h37.57v259.32Z"/><path class="cls-3" d="M5789.23,1243.31c-5.38,32.72-37,56.79-77.81,56.79-53.56,0-86.07-37.19-86.07-96,0-58.05,33.06-97.41,84.64-97.41,50.5,0,81.58,36.67,81.58,93.28v11.85H5657.51v1.79c0,35.77,21,59.32,54.63,59.32,23.72,0,41.15-12,46.36-29.66Zm-131.53-55.88h101.52c-.72-31.28-20.29-53.56-49.78-53.56C5680.16,1133.87,5659.66,1156.34,5657.7,1187.43Z"/><path class="cls-3" d="M5947.68,1171.25c-4.48-20.3-20.29-37-47.79-37-32.35,0-54.27,26.78-54.27,69.19,0,43.49,22.27,69.18,54.62,69.18,25.52,0,42.23-13.47,47.63-35.94h30.72c-4.84,37.21-36.12,63.44-78.52,63.44-51.76,0-86.25-36.47-86.25-96.68,0-58.94,34.3-96.69,85.9-96.69,46.71,0,74.57,30.91,78.51,64.52Z"/><path class="cls-3" d="M6008.93,1037.55h31.26V1139.8h.71c10.43-20.84,30.93-33.07,59.32-33.07,41,0,65.77,27.68,65.77,69.37v120.77h-31.27v-115c0-29.65-14.92-47.44-44.2-47.44-31.1,0-50.33,21.21-50.33,53.55v108.91h-31.26Z"/><path class="cls-3" d="M6205.66,1110h29.46v29.83h.73c10.41-20.12,30.37-33.07,59.29-33.07,41,0,64.71,26.42,64.71,68.84v121.3h-31.28V1181.14c0-30.19-14.2-46.73-42.94-46.73-29.48,0-48.71,20.84-48.71,52.48v110h-31.26Z"/><path class="cls-3" d="M6397.35,1059.11a19.5,19.5,0,1,1,19.42,19.41A19.44,19.44,0,0,1,6397.35,1059.11Zm3.78,50.86h31.26v186.9h-31.26Z"/><path class="cls-3" d="M6465.44,1203.42c0-58.58,32.16-96.69,79.25-96.69,26.78,0,48.34,13.12,59.48,33.62h.73v-102.8h31.26v259.32h-29.82v-31.63h-.55c-12,21.56-33.43,34.86-60.37,34.86C6497.79,1300.1,6465.44,1262,6465.44,1203.42Zm32,0c0,42.41,20.84,69.18,53.91,69.18,32.18,0,53.74-27.3,53.74-69.18,0-41.69-21.56-69.19-53.74-69.19C6518.27,1134.23,6497.43,1161.19,6497.43,1203.42Z"/><path class="cls-3" d="M6669.17,1203.42c0-59.66,34.87-96.69,86.63-96.69,51.57,0,86.43,37,86.43,96.69,0,59.49-34.86,96.68-86.43,96.68C6704,1300.1,6669.17,1262.91,6669.17,1203.42Zm141.25,0c0-44-21.56-69.19-54.62-69.19s-54.83,25.16-54.83,69.19,21.76,69.18,54.83,69.18S6810.42,1247.45,6810.42,1203.42Z"/><path class="cls-3" d="M5494.07,788.1H5392.61l-25.63,73h-33.4l94-255.06h31.46l94,255.06H5519.7Zm-92.09-27h82.72l-40.83-116.31h-1.06Z"/><path class="cls-3" d="M5872.19,861.1H5843V831.23h-.71c-11,21.21-30,33.06-58.33,33.06-40.12,0-63.63-26-63.63-67.7V677.28h30.75V791.11c0,29.87,14,45.95,42.43,45.95,29.87,0,47.9-20.5,47.9-51.79v-108h30.75Z"/><path class="cls-3" d="M5946.72,677.28h29v29.34h.71c10.25-19.8,29.87-32.53,58.33-32.53,40.3,0,63.63,26,63.63,67.7V861.1h-30.75V747.27c0-29.69-14-46-42.25-46-29,0-47.9,20.51-47.9,51.62V861.1h-30.75Z"/><path class="cls-3" d="M6170.07,627.25a19.18,19.18,0,1,1,19.09,19.09A19.13,19.13,0,0,1,6170.07,627.25Zm3.71,50h30.76V861.1h-30.76Z"/><path class="cls-3" d="M6321.48,632.91v44.37h35.71v25.27h-35.71V811.79c0,16.79,7.07,24.39,22.8,24.39a120.67,120.67,0,0,0,12.73-.88v25.8c-3.71.89-12.2,1.42-19.44,1.42-33.76,0-46.84-13.79-46.84-49.14V702.55h-27.4V677.28h27.4V632.91Z"/><path class="cls-3" d="M6524.61,769.19c0-58.68,34.29-95.1,85.2-95.1,50.73,0,85,36.42,85,95.1,0,58.51-34.29,95.1-85,95.1C6558.9,864.29,6524.61,827.7,6524.61,769.19Zm138.94,0c0-43.31-21.22-68.05-53.74-68.05s-53.91,24.74-53.91,68.05,21.39,68,53.91,68S6663.55,812.5,6663.55,769.19Z"/><path class="cls-3" d="M6770.41,702.55h-25.63V677.28h25.63V656.77c0-35.35,16.44-52.14,50.38-52.14a132.21,132.21,0,0,1,18.74,1.41V631a100.73,100.73,0,0,0-14-1.07C6809,629.9,6801,638.74,6801,657v20.33h37.65v25.27h-37.47V861.1h-30.76Z"/></svg>