<svg id="Layer_1" data-name="Layer 1" xmlns="http://www.w3.org/2000/svg" viewBox="0 0 6657.64 1904.72"><defs><style>.cls-1{fill:#03b07b;}.cls-1,.cls-2{fill-rule:evenodd;}.cls-2{fill:#f4f4f4;}.cls-3{fill:#2e2f2f;}</style></defs><title>Seed</title><path class="cls-1" d="M1858.75,952.37c0,477.35-387,864.32-864.31,864.32s-864.32-387-864.32-864.32S517.1,88,994.44,88,1858.75,475,1858.75,952.37Z"/><path class="cls-2" d="M997.63,1411.88c-8.44,0-15.33-1.68-21.8-5.28Q848.92,1336.05,722,1265.65c-25.78-14.23-51.64-28.38-78-41.55-14.86-7.41-21.19-18.57-21.36-34.43-.16-15.09,7.55-24.19,20.34-31.2q139.93-76.79,279.58-154.08c18.45-10.12,37.16-19.7,55.85-29.31,15.27-7.87,30.3-6,44.91,2,63.13,34.84,126.21,69.9,189.47,104.57,40.56,22.22,81.41,43.89,122.11,65.94a174.57,174.57,0,0,1,15.51,9.18c28.09,19.15,28.88,49.73.06,67.25-36.37,22.1-73.91,42.32-111.25,62.8-33.24,18.24-67,35.38-100.2,53.56-38,20.76-75.62,42.15-113.35,63.3C1016.59,1408.79,1007.2,1412.47,997.63,1411.88Z"/><path class="cls-2" d="M970.38,713.55c0,59-.57,118.05.29,177.07.33,22.28-9.31,35.12-28.31,45.58-45.81,25.25-92.44,49-137.73,75.32-61.84,36-125.32,69.18-188.48,102.79-27.35,14.61-61.73-6.56-60.48-36.88,4.14-100.55.68-201.09,1.82-301.63.22-18.09,1.1-36.21-.23-54.2-1.59-20.67,8.87-32.58,25.33-41.7,54.2-30,108.32-60.2,162.56-90.16,53.71-29.7,107.69-58.94,161.29-88.83,34.35-19.18,63.77-3.19,63.91,35.56C970.49,595.51,970.38,654.53,970.38,713.55Z"/><path class="cls-2" d="M1028.82,713.55c0,59,.5,118.05-.32,177.07-.34,22.28,9.33,35.12,28.31,45.58,45.81,25.25,92.46,49,137.73,75.32,61.87,36,125.32,69.18,188.51,102.79,27.35,14.61,61.7-6.56,60.45-36.88-4.14-100.55-.68-201.09-1.82-301.63-.22-18.09-1.11-36.21.25-54.2,1.57-20.67-8.9-32.58-25.35-41.7-54.2-30-108.29-60.2-162.56-90.16-53.71-29.7-107.69-58.94-161.31-88.83-34.35-19.18-63.76-3.19-63.87,35.56C1028.66,595.51,1028.82,654.53,1028.82,713.55Z"/><path class="cls-2" d="M754.16,490.38c0,50.88-3.35,54.26-51.06,54.69-104.4.93-183.85-76.36-180.81-175.92,1.13-37.09,4.56-40.84,40.67-44.59,78-8.11,160.09,44.78,184.94,119.19C753.31,460,754.65,476.66,754.16,490.38Z"/><path class="cls-3" d="M2434,457.53c280.81,0,463.51,142,467.67,359.13H2620.87c-6.26-89.78-78.28-145.12-191-145.12-105.44,0-174.34,48-174.34,120.07,0,55.32,48,92.9,146.15,115.87l214,45.93c224.44,50.1,315.27,138.84,315.27,305.88,0,220.26-202.52,365.38-498,365.38-298.56,0-482.28-144.07-499-362.25H2231.5c14.61,93.95,88.73,148.24,209.83,148.24,115.87,0,185.82-45.94,185.82-119,0-56.39-37.58-87.71-137.81-111.73L2282.64,1134c-211.92-48-320.49-158.67-320.49-323.62C1962.15,597.42,2146.92,457.53,2434,457.53Z"/><path class="cls-3" d="M4103.39,1258.25c-33.41,219.22-233.85,366.42-510.49,366.42-344.5,0-551.19-220.28-551.19-578.34,0-357,208.78-588.8,539.72-588.8,325.7,0,531.36,220.29,531.36,560.6v92.93H3341.31v18.78c0,159.71,101.27,269.33,256.82,269.33,111.7,0,197.3-55.32,225.49-140.92ZM3344.45,924.18h475c-6.27-143-99.17-241.14-234.89-241.14C3450.93,683,3354.88,784.29,3344.45,924.18Z"/><path class="cls-3" d="M5290.47,1258.25c-33.42,219.22-233.85,366.42-510.49,366.42-344.51,0-551.21-220.28-551.21-578.34,0-357,208.79-588.8,539.73-588.8,325.7,0,531.37,220.29,531.37,560.6v92.93H4528.39v18.78c0,159.71,101.26,269.33,256.81,269.33,111.7,0,197.32-55.32,225.49-140.92ZM4531.52,924.18h475c-6.28-143-99.18-241.14-234.92-241.14C4638,683,4542,784.29,4531.52,924.18Z"/><path class="cls-3" d="M5416.77,1032.84c0-354.94,177.46-575.23,458.26-575.23,161.83,0,287.12,85.63,341.37,209.84h6.28V88.06h304.84V1594.48H6226.85V1402.4h-5.23c-54.28,123.17-183.71,209.82-348.67,209.82C5593.2,1612.22,5416.77,1390.92,5416.77,1032.84Zm312.11,2.09c0,205.64,94,332,247.44,332,151.35,0,248.44-127.37,248.44-332,0-203.57-97.09-333-248.44-333C5822.86,701.9,5728.88,830.31,5728.88,1034.93Z"/></svg>