<svg width="308" height="211" viewBox="0 0 308 211" fill="none" xmlns="http://www.w3.org/2000/svg">
<rect x="12" y="87.9365" width="94.4348" height="120.516" rx="20" transform="rotate(-38.6159 12 87.9365)" fill="#CACACA"/>
<g filter="url(#filter0_d_1255_1870)">
<rect x="78" y="6" width="115" height="144" rx="20" fill="white"/>
</g>
<path fill-rule="evenodd" clip-rule="evenodd" d="M148.092 93.4681C146.292 94.2463 145.451 96.3456 146.385 98.0693C150.122 104.959 155.815 110.624 162.782 114.325C170.798 118.583 180.024 119.989 188.945 118.31C195.262 117.121 201.159 114.436 206.166 110.527L217.366 123.814C216.552 124.906 216.564 126.452 217.479 127.539L235.916 149.412C236.984 150.679 238.877 150.84 240.144 149.772L244.052 146.478C245.318 145.41 245.48 143.518 244.412 142.251L225.975 120.378C224.951 119.163 223.169 118.965 221.907 119.892L210.608 106.486C211.038 106.031 211.459 105.565 211.869 105.088C217.789 98.2072 221.193 89.5175 221.521 80.4464C221.849 71.3753 219.083 62.4624 213.675 55.1717C208.268 47.8811 200.542 42.6463 191.766 40.3274C182.99 38.0084 173.687 38.7433 165.384 42.4111C158.167 45.5991 152.08 50.838 147.855 57.4394C146.799 59.091 147.486 61.2456 149.225 62.1519C150.964 63.0583 153.093 62.3702 154.181 60.7392C157.638 55.558 162.511 51.4427 168.253 48.9062C175.082 45.8894 182.734 45.285 189.952 47.1923C197.17 49.0996 203.525 53.4051 207.972 59.4016C212.42 65.398 214.695 72.7288 214.425 80.1897C214.155 87.6505 211.356 94.7976 206.487 100.457C201.618 106.116 194.968 109.951 187.631 111.332C180.295 112.713 172.706 111.557 166.113 108.054C160.569 105.109 156.007 100.653 152.933 95.2353C151.965 93.5299 149.892 92.6898 148.092 93.4681ZM238.33 146.069L221.182 125.725L223.561 123.72L240.709 144.064L238.33 146.069Z" fill="#00B17B"/>
<rect x="118" y="64.916" width="29" height="4" rx="2" fill="#999999"/>
<rect x="118" y="74.916" width="41" height="4" rx="2" fill="#999999"/>
<rect x="155" y="64.916" width="13" height="4" rx="2" fill="#999999"/>
<rect x="118" y="84.916" width="24" height="4" rx="2" fill="#999999"/>
<circle cx="113" cy="64" r="15" fill="#FE0000"/>
<rect width="3.50076" height="16" rx="1.75038" transform="matrix(0.700098 -0.714046 0.714422 0.699715 106 59.5)" fill="white"/>
<rect width="3.50084" height="16" rx="1.75042" transform="matrix(0.727269 0.686353 -0.686742 0.726901 116.988 57)" fill="white"/>
<path d="M1.08 208.095C1.08 206.535 1.1 205.13 1.14 203.88C1.19 202.62 1.25 201.475 1.32 200.445C1.4 199.405 1.485 198.44 1.575 197.55C1.675 196.65 1.77 195.79 1.86 194.97L4.44 195.075C4.4 195.385 4.355 195.72 4.305 196.08C4.645 196.54 5.015 197.065 5.415 197.655C5.825 198.245 6.24 198.87 6.66 199.53C7.09 200.18 7.51 200.835 7.92 201.495C8.33 202.145 8.72 202.77 9.09 203.37C9.46 203.96 9.785 204.49 10.065 204.96C10.135 204.27 10.17 203.3 10.17 202.05C10.17 201.41 10.16 200.75 10.14 200.07C10.12 199.39 10.095 198.74 10.065 198.12C10.035 197.49 9.995 196.93 9.945 196.44C9.895 195.94 9.84 195.55 9.78 195.27L12.6 194.925C12.62 195.415 12.63 196.06 12.63 196.86C12.64 197.65 12.645 198.49 12.645 199.38C12.645 200.17 12.64 200.965 12.63 201.765C12.62 202.555 12.6 203.285 12.57 203.955C12.54 204.625 12.495 205.18 12.435 205.62C12.325 206.48 12.105 207.115 11.775 207.525C11.445 207.935 10.98 208.14 10.38 208.14C9.89 208.14 9.44 207.97 9.03 207.63C8.63 207.29 8.195 206.73 7.725 205.95C7.405 205.41 7.03 204.79 6.6 204.09C6.18 203.38 5.74 202.655 5.28 201.915C4.83 201.175 4.395 200.47 3.975 199.8C3.895 200.97 3.835 202.14 3.795 203.31C3.755 204.47 3.735 205.52 3.735 206.46C3.735 206.76 3.735 207.04 3.735 207.3C3.735 207.57 3.74 207.82 3.75 208.05L1.08 208.095ZM18.9006 208.23C18.1006 208.23 17.4006 208.1 16.8006 207.84C16.2106 207.58 15.7206 207.225 15.3306 206.775C14.9406 206.315 14.6506 205.79 14.4606 205.2C14.2706 204.61 14.1756 203.99 14.1756 203.34C14.1756 202.68 14.2906 202.07 14.5206 201.51C14.7606 200.94 15.0856 200.445 15.4956 200.025C15.9156 199.605 16.4056 199.28 16.9656 199.05C17.5256 198.81 18.1356 198.69 18.7956 198.69C19.4856 198.69 20.1256 198.81 20.7156 199.05C21.3056 199.29 21.8206 199.625 22.2606 200.055C22.7006 200.485 23.0406 200.99 23.2806 201.57C23.5306 202.15 23.6556 202.78 23.6556 203.46C23.6556 204.97 23.2406 206.145 22.4106 206.985C21.5806 207.815 20.4106 208.23 18.9006 208.23ZM18.8856 205.8C19.6156 205.8 20.1706 205.595 20.5506 205.185C20.9406 204.775 21.1356 204.185 21.1356 203.415C21.1356 202.725 20.9256 202.17 20.5056 201.75C20.0856 201.33 19.5356 201.12 18.8556 201.12C18.4456 201.12 18.0706 201.23 17.7306 201.45C17.3906 201.66 17.1156 201.945 16.9056 202.305C16.7056 202.655 16.6056 203.045 16.6056 203.475C16.6056 203.855 16.6806 204.225 16.8306 204.585C16.9906 204.945 17.2406 205.24 17.5806 205.47C17.9206 205.69 18.3556 205.8 18.8856 205.8ZM32.6691 208.215C31.8291 208.215 31.0541 208.04 30.3441 207.69C29.6341 207.34 29.0641 206.84 28.6341 206.19C28.2041 205.53 27.9891 204.745 27.9891 203.835C27.9891 202.815 28.1891 201.92 28.5891 201.15C28.9891 200.38 29.5491 199.785 30.2691 199.365C30.9891 198.935 31.8291 198.72 32.7891 198.72C33.7091 198.72 34.4891 198.91 35.1291 199.29C35.7691 199.66 36.3391 200.25 36.8391 201.06L34.7541 202.5C34.4741 202.05 34.1891 201.71 33.8991 201.48C33.6091 201.24 33.2141 201.12 32.7141 201.12C32.0341 201.12 31.4841 201.36 31.0641 201.84C30.6441 202.31 30.4341 202.94 30.4341 203.73C30.4341 204.19 30.5441 204.565 30.7641 204.855C30.9941 205.145 31.2741 205.36 31.6041 205.5C31.9341 205.64 32.2441 205.71 32.5341 205.71C32.8341 205.71 33.1241 205.675 33.4041 205.605C33.6841 205.525 33.9491 205.355 34.1991 205.095C34.4491 204.835 34.6741 204.44 34.8741 203.91L37.1241 205.11C36.8241 205.66 36.4891 206.17 36.1191 206.64C35.7491 207.11 35.2891 207.49 34.7391 207.78C34.1991 208.07 33.5091 208.215 32.6691 208.215ZM42.5725 208.23C41.7725 208.23 41.0725 208.1 40.4725 207.84C39.8825 207.58 39.3925 207.225 39.0025 206.775C38.6125 206.315 38.3225 205.79 38.1325 205.2C37.9425 204.61 37.8475 203.99 37.8475 203.34C37.8475 202.68 37.9625 202.07 38.1925 201.51C38.4325 200.94 38.7575 200.445 39.1675 200.025C39.5875 199.605 40.0775 199.28 40.6375 199.05C41.1975 198.81 41.8075 198.69 42.4675 198.69C43.1575 198.69 43.7975 198.81 44.3875 199.05C44.9775 199.29 45.4925 199.625 45.9325 200.055C46.3725 200.485 46.7125 200.99 46.9525 201.57C47.2025 202.15 47.3275 202.78 47.3275 203.46C47.3275 204.97 46.9125 206.145 46.0825 206.985C45.2525 207.815 44.0825 208.23 42.5725 208.23ZM42.5575 205.8C43.2875 205.8 43.8425 205.595 44.2225 205.185C44.6125 204.775 44.8075 204.185 44.8075 203.415C44.8075 202.725 44.5975 202.17 44.1775 201.75C43.7575 201.33 43.2075 201.12 42.5275 201.12C42.1175 201.12 41.7425 201.23 41.4025 201.45C41.0625 201.66 40.7875 201.945 40.5775 202.305C40.3775 202.655 40.2775 203.045 40.2775 203.475C40.2775 203.855 40.3525 204.225 40.5025 204.585C40.6625 204.945 40.9125 205.24 41.2525 205.47C41.5925 205.69 42.0275 205.8 42.5575 205.8ZM51.8332 208.23C51.1932 208.23 50.6632 208.115 50.2432 207.885C49.8332 207.665 49.5032 207.36 49.2532 206.97C49.0132 206.58 48.8332 206.145 48.7132 205.665C48.6032 205.175 48.5282 204.67 48.4882 204.15C48.4582 203.62 48.4432 203.11 48.4432 202.62C48.4432 202.06 48.4582 201.49 48.4882 200.91C48.5282 200.33 48.5682 199.695 48.6082 199.005L51.3532 198.84C51.3232 199.05 51.2782 199.365 51.2182 199.785C51.1582 200.205 51.1032 200.685 51.0532 201.225C51.0032 201.765 50.9782 202.33 50.9782 202.92C50.9782 203.89 51.0632 204.61 51.2332 205.08C51.4032 205.54 51.6582 205.77 51.9982 205.77C52.6782 205.77 53.1782 205.275 53.4982 204.285C53.8182 203.295 53.9782 201.73 53.9782 199.59V198.9L55.2532 198.87L56.7982 198.84C56.6582 199.78 56.5532 200.645 56.4832 201.435C56.4132 202.225 56.3682 202.89 56.3482 203.43C56.3282 203.96 56.3182 204.315 56.3182 204.495C56.3182 204.955 56.3582 205.285 56.4382 205.485C56.5182 205.675 56.6582 205.77 56.8582 205.77C56.9582 205.77 57.0682 205.75 57.1882 205.71C57.3082 205.67 57.4482 205.6 57.6082 205.5L57.5032 208.08C57.1232 208.14 56.7932 208.17 56.5132 208.17C56.0332 208.17 55.6382 208.08 55.3282 207.9C55.0282 207.72 54.7882 207.48 54.6082 207.18C54.2982 207.51 53.9132 207.765 53.4532 207.945C53.0032 208.135 52.4632 208.23 51.8332 208.23ZM58.785 208.17C58.825 207.34 58.855 206.51 58.875 205.68C58.895 204.85 58.905 204.03 58.905 203.22C58.895 202.48 58.88 201.75 58.86 201.03C58.85 200.3 58.825 199.595 58.785 198.915L61.305 198.84C61.315 199.21 61.33 199.59 61.35 199.98C61.67 199.58 62.04 199.26 62.46 199.02C62.89 198.77 63.38 198.645 63.93 198.645C64.14 198.645 64.41 198.675 64.74 198.735C65.07 198.795 65.405 198.91 65.745 199.08L65.46 201.615C65.21 201.465 64.94 201.36 64.65 201.3C64.37 201.23 64.135 201.195 63.945 201.195C63.305 201.195 62.76 201.485 62.31 202.065C61.87 202.635 61.57 203.43 61.41 204.45C61.41 205.15 61.4 205.82 61.38 206.46C61.37 207.09 61.345 207.66 61.305 208.17H58.785ZM70.7696 208.245C70.0896 208.245 69.4596 208.165 68.8796 208.005C68.2996 207.845 67.7746 207.64 67.3046 207.39C66.8346 207.14 66.4146 206.875 66.0446 206.595L67.3946 204.42C67.8146 204.81 68.2196 205.11 68.6096 205.32C68.9996 205.53 69.4046 205.675 69.8246 205.755C70.2546 205.835 70.7196 205.875 71.2196 205.875C71.6496 205.875 71.9946 205.82 72.2546 205.71C72.5146 205.59 72.6446 205.44 72.6446 205.26C72.6446 205.11 72.5196 204.995 72.2696 204.915C72.0196 204.825 71.6996 204.75 71.3096 204.69C70.9196 204.62 70.5096 204.535 70.0796 204.435C69.4696 204.275 68.8996 204.09 68.3696 203.88C67.8396 203.67 67.4096 203.385 67.0796 203.025C66.7596 202.665 66.5996 202.185 66.5996 201.585C66.5996 201.105 66.7146 200.685 66.9446 200.325C67.1746 199.955 67.4796 199.65 67.8596 199.41C68.2496 199.16 68.6896 198.975 69.1796 198.855C69.6696 198.735 70.1746 198.675 70.6946 198.675C71.5946 198.675 72.3696 198.785 73.0196 199.005C73.6796 199.215 74.3096 199.495 74.9096 199.845L73.5446 201.915C73.2446 201.705 72.8996 201.525 72.5096 201.375C72.1296 201.215 71.7446 201.095 71.3546 201.015C70.9746 200.925 70.6196 200.88 70.2896 200.88C69.9296 200.88 69.6446 200.935 69.4346 201.045C69.2346 201.155 69.1346 201.31 69.1346 201.51C69.1346 201.63 69.2596 201.745 69.5096 201.855C69.7696 201.955 70.2596 202.09 70.9796 202.26C71.4096 202.36 71.8646 202.465 72.3446 202.575C72.8246 202.675 73.2746 202.82 73.6946 203.01C74.1246 203.19 74.4696 203.455 74.7296 203.805C74.9996 204.145 75.1346 204.6 75.1346 205.17C75.1346 206.13 74.7496 206.88 73.9796 207.42C73.2096 207.97 72.1396 208.245 70.7696 208.245ZM80.8213 208.2C79.8613 208.2 79.0163 208.01 78.2863 207.63C77.5663 207.26 77.0013 206.74 76.5913 206.07C76.1913 205.4 75.9913 204.625 75.9913 203.745C75.9913 203.215 76.0813 202.66 76.2613 202.08C76.4413 201.49 76.7313 200.94 77.1313 200.43C77.5313 199.92 78.0563 199.505 78.7063 199.185C79.3663 198.865 80.1663 198.705 81.1063 198.705C81.7863 198.705 82.3563 198.78 82.8163 198.93C83.2863 199.08 83.6663 199.275 83.9563 199.515C84.2563 199.755 84.4813 200.01 84.6313 200.28C84.7913 200.55 84.8963 200.81 84.9463 201.06C85.0063 201.3 85.0363 201.5 85.0363 201.66C85.0363 202.63 84.6263 203.38 83.8063 203.91C82.9963 204.43 81.8463 204.69 80.3563 204.69C80.0163 204.69 79.6913 204.675 79.3813 204.645C79.0813 204.615 78.8013 204.58 78.5413 204.54C78.7313 205.04 79.0463 205.41 79.4863 205.65C79.9263 205.88 80.3813 205.995 80.8513 205.995C81.5313 205.995 82.1313 205.875 82.6513 205.635C83.1713 205.385 83.6613 205.005 84.1213 204.495L85.4563 206.415C85.1363 206.675 84.7763 206.945 84.3763 207.225C83.9863 207.505 83.5063 207.735 82.9363 207.915C82.3663 208.105 81.6613 208.2 80.8213 208.2ZM81.1513 200.955C80.5613 200.955 80.0413 201.105 79.5913 201.405C79.1413 201.705 78.8113 202.1 78.6013 202.59C78.8513 202.63 79.0963 202.665 79.3363 202.695C79.5863 202.715 79.8313 202.725 80.0713 202.725C80.2913 202.725 80.5413 202.705 80.8213 202.665C81.1113 202.625 81.3913 202.565 81.6613 202.485C81.9413 202.405 82.1713 202.305 82.3513 202.185C82.5313 202.055 82.6213 201.905 82.6213 201.735C82.6213 201.655 82.5813 201.555 82.5013 201.435C82.4213 201.315 82.2763 201.205 82.0663 201.105C81.8563 201.005 81.5513 200.955 81.1513 200.955ZM91.0284 208.245C90.3484 208.245 89.7184 208.165 89.1384 208.005C88.5584 207.845 88.0334 207.64 87.5634 207.39C87.0934 207.14 86.6734 206.875 86.3034 206.595L87.6534 204.42C88.0734 204.81 88.4784 205.11 88.8684 205.32C89.2584 205.53 89.6634 205.675 90.0834 205.755C90.5134 205.835 90.9784 205.875 91.4784 205.875C91.9084 205.875 92.2534 205.82 92.5134 205.71C92.7734 205.59 92.9034 205.44 92.9034 205.26C92.9034 205.11 92.7784 204.995 92.5284 204.915C92.2784 204.825 91.9584 204.75 91.5684 204.69C91.1784 204.62 90.7684 204.535 90.3384 204.435C89.7284 204.275 89.1584 204.09 88.6284 203.88C88.0984 203.67 87.6684 203.385 87.3384 203.025C87.0184 202.665 86.8584 202.185 86.8584 201.585C86.8584 201.105 86.9734 200.685 87.2034 200.325C87.4334 199.955 87.7384 199.65 88.1184 199.41C88.5084 199.16 88.9484 198.975 89.4384 198.855C89.9284 198.735 90.4334 198.675 90.9534 198.675C91.8534 198.675 92.6284 198.785 93.2784 199.005C93.9384 199.215 94.5684 199.495 95.1684 199.845L93.8034 201.915C93.5034 201.705 93.1584 201.525 92.7684 201.375C92.3884 201.215 92.0034 201.095 91.6134 201.015C91.2334 200.925 90.8784 200.88 90.5484 200.88C90.1884 200.88 89.9034 200.935 89.6934 201.045C89.4934 201.155 89.3934 201.31 89.3934 201.51C89.3934 201.63 89.5184 201.745 89.7684 201.855C90.0284 201.955 90.5184 202.09 91.2384 202.26C91.6684 202.36 92.1234 202.465 92.6034 202.575C93.0834 202.675 93.5334 202.82 93.9534 203.01C94.3834 203.19 94.7284 203.455 94.9884 203.805C95.2584 204.145 95.3934 204.6 95.3934 205.17C95.3934 206.13 95.0084 206.88 94.2384 207.42C93.4684 207.97 92.3984 208.245 91.0284 208.245ZM103.743 208.185C102.993 208.185 102.313 207.99 101.703 207.6C101.093 207.22 100.608 206.705 100.248 206.055C99.8978 205.395 99.7228 204.66 99.7228 203.85C99.7228 203.09 99.8628 202.405 100.143 201.795C100.423 201.175 100.803 200.645 101.283 200.205C101.773 199.765 102.328 199.43 102.948 199.2C103.568 198.96 104.218 198.84 104.898 198.84C105.468 198.84 106.028 198.92 106.578 199.08C106.618 198.87 106.653 198.66 106.683 198.45L109.248 198.885C109.178 199.075 109.108 199.36 109.038 199.74C108.968 200.12 108.908 200.545 108.858 201.015C108.818 201.485 108.783 201.955 108.753 202.425C108.723 202.895 108.708 203.32 108.708 203.7C108.708 204.01 108.728 204.315 108.768 204.615C108.818 204.905 108.918 205.145 109.068 205.335C109.218 205.515 109.448 205.605 109.758 205.605H109.968L109.593 208.215C108.933 208.215 108.388 208.1 107.958 207.87C107.528 207.65 107.183 207.35 106.923 206.97C106.493 207.45 106.003 207.77 105.453 207.93C104.903 208.1 104.333 208.185 103.743 208.185ZM102.183 204.15C102.233 204.63 102.428 205.015 102.768 205.305C103.118 205.585 103.558 205.725 104.088 205.725C104.598 205.725 105.023 205.59 105.363 205.32C105.703 205.04 105.983 204.66 106.203 204.18C106.193 204.02 106.188 203.855 106.188 203.685C106.188 203.335 106.198 202.975 106.218 202.605C106.238 202.235 106.263 201.87 106.293 201.51C105.873 201.35 105.433 201.27 104.973 201.27C104.433 201.27 103.948 201.38 103.518 201.6C103.098 201.81 102.768 202.105 102.528 202.485C102.288 202.865 102.168 203.305 102.168 203.805C102.168 203.865 102.168 203.925 102.168 203.985C102.168 204.045 102.173 204.1 102.183 204.15ZM115.211 208.17C114.801 208.17 114.446 208.05 114.146 207.81C113.846 207.57 113.586 207.275 113.366 206.925C113.146 206.575 112.951 206.235 112.781 205.905C112.471 205.275 112.176 204.585 111.896 203.835C111.616 203.085 111.371 202.305 111.161 201.495C110.951 200.685 110.791 199.885 110.681 199.095L113.396 198.705C113.476 199.635 113.601 200.51 113.771 201.33C113.941 202.15 114.141 202.88 114.371 203.52C114.601 204.16 114.836 204.68 115.076 205.08C115.126 205.15 115.171 205.22 115.211 205.29C115.261 205.36 115.286 205.395 115.286 205.395C115.306 205.395 115.386 205.29 115.526 205.08C115.966 204.31 116.376 203.41 116.756 202.38C117.136 201.35 117.466 200.105 117.746 198.645L120.386 199.17C120.126 200.11 119.886 200.93 119.666 201.63C119.446 202.32 119.231 202.925 119.021 203.445C118.811 203.965 118.601 204.435 118.391 204.855C118.181 205.265 117.961 205.665 117.731 206.055C117.581 206.325 117.386 206.625 117.146 206.955C116.916 207.285 116.641 207.57 116.321 207.81C116.001 208.05 115.631 208.17 115.211 208.17ZM125.364 208.185C124.614 208.185 123.934 207.99 123.324 207.6C122.714 207.22 122.229 206.705 121.869 206.055C121.519 205.395 121.344 204.66 121.344 203.85C121.344 203.09 121.484 202.405 121.764 201.795C122.044 201.175 122.424 200.645 122.904 200.205C123.394 199.765 123.949 199.43 124.569 199.2C125.189 198.96 125.839 198.84 126.519 198.84C127.089 198.84 127.649 198.92 128.199 199.08C128.239 198.87 128.274 198.66 128.304 198.45L130.869 198.885C130.799 199.075 130.729 199.36 130.659 199.74C130.589 200.12 130.529 200.545 130.479 201.015C130.439 201.485 130.404 201.955 130.374 202.425C130.344 202.895 130.329 203.32 130.329 203.7C130.329 204.01 130.349 204.315 130.389 204.615C130.439 204.905 130.539 205.145 130.689 205.335C130.839 205.515 131.069 205.605 131.379 205.605H131.589L131.214 208.215C130.554 208.215 130.009 208.1 129.579 207.87C129.149 207.65 128.804 207.35 128.544 206.97C128.114 207.45 127.624 207.77 127.074 207.93C126.524 208.1 125.954 208.185 125.364 208.185ZM123.804 204.15C123.854 204.63 124.049 205.015 124.389 205.305C124.739 205.585 125.179 205.725 125.709 205.725C126.219 205.725 126.644 205.59 126.984 205.32C127.324 205.04 127.604 204.66 127.824 204.18C127.814 204.02 127.809 203.855 127.809 203.685C127.809 203.335 127.819 202.975 127.839 202.605C127.859 202.235 127.884 201.87 127.914 201.51C127.494 201.35 127.054 201.27 126.594 201.27C126.054 201.27 125.569 201.38 125.139 201.6C124.719 201.81 124.389 202.105 124.149 202.485C123.909 202.865 123.789 203.305 123.789 203.805C123.789 203.865 123.789 203.925 123.789 203.985C123.789 204.045 123.794 204.1 123.804 204.15ZM132.482 197.31C132.482 197.22 132.477 197.13 132.467 197.04C132.467 196.94 132.467 196.83 132.467 196.71C132.467 196.39 132.477 196.05 132.497 195.69C132.517 195.33 132.537 195.025 132.557 194.775L135.227 194.82C135.197 195.16 135.162 195.545 135.122 195.975C135.092 196.405 135.072 196.85 135.062 197.31H132.482ZM132.422 208.05C132.392 207.43 132.372 206.77 132.362 206.07C132.352 205.36 132.347 204.65 132.347 203.94C132.347 203.01 132.357 202.105 132.377 201.225C132.397 200.345 132.422 199.545 132.452 198.825L135.032 198.81C134.992 199.27 134.967 199.84 134.957 200.52C134.947 201.19 134.942 201.895 134.942 202.635C134.942 203.365 134.947 204.085 134.957 204.795C134.967 205.505 134.977 206.15 134.987 206.73C135.007 207.3 135.022 207.74 135.032 208.05H132.422ZM139.407 208.185C138.857 208.185 138.402 208.065 138.042 207.825C137.692 207.595 137.412 207.275 137.202 206.865C137.002 206.455 136.852 205.985 136.752 205.455C136.662 204.925 136.602 204.36 136.572 203.76C136.552 203.15 136.542 202.54 136.542 201.93C136.542 201.4 136.557 200.82 136.587 200.19C136.617 199.55 136.652 198.905 136.692 198.255C136.742 197.595 136.792 196.975 136.842 196.395C136.902 195.815 136.957 195.31 137.007 194.88L139.722 194.91C139.642 195.42 139.567 196 139.497 196.65C139.427 197.29 139.367 197.94 139.317 198.6C139.277 199.26 139.242 199.87 139.212 200.43C139.192 200.99 139.182 201.435 139.182 201.765C139.182 202.675 139.197 203.39 139.227 203.91C139.267 204.43 139.322 204.8 139.392 205.02C139.472 205.23 139.577 205.335 139.707 205.335C139.877 205.335 140.062 205.23 140.262 205.02C140.462 204.8 140.657 204.555 140.847 204.285L142.122 206.82C141.812 207.16 141.442 207.47 141.012 207.75C140.582 208.04 140.047 208.185 139.407 208.185ZM147.175 208.185C146.425 208.185 145.745 207.99 145.135 207.6C144.525 207.22 144.04 206.705 143.68 206.055C143.33 205.395 143.155 204.66 143.155 203.85C143.155 203.09 143.295 202.405 143.575 201.795C143.855 201.175 144.235 200.645 144.715 200.205C145.205 199.765 145.76 199.43 146.38 199.2C147 198.96 147.65 198.84 148.33 198.84C148.9 198.84 149.46 198.92 150.01 199.08C150.05 198.87 150.085 198.66 150.115 198.45L152.68 198.885C152.61 199.075 152.54 199.36 152.47 199.74C152.4 200.12 152.34 200.545 152.29 201.015C152.25 201.485 152.215 201.955 152.185 202.425C152.155 202.895 152.14 203.32 152.14 203.7C152.14 204.01 152.16 204.315 152.2 204.615C152.25 204.905 152.35 205.145 152.5 205.335C152.65 205.515 152.88 205.605 153.19 205.605H153.4L153.025 208.215C152.365 208.215 151.82 208.1 151.39 207.87C150.96 207.65 150.615 207.35 150.355 206.97C149.925 207.45 149.435 207.77 148.885 207.93C148.335 208.1 147.765 208.185 147.175 208.185ZM145.615 204.15C145.665 204.63 145.86 205.015 146.2 205.305C146.55 205.585 146.99 205.725 147.52 205.725C148.03 205.725 148.455 205.59 148.795 205.32C149.135 205.04 149.415 204.66 149.635 204.18C149.625 204.02 149.62 203.855 149.62 203.685C149.62 203.335 149.63 202.975 149.65 202.605C149.67 202.235 149.695 201.87 149.725 201.51C149.305 201.35 148.865 201.27 148.405 201.27C147.865 201.27 147.38 201.38 146.95 201.6C146.53 201.81 146.2 202.105 145.96 202.485C145.72 202.865 145.6 203.305 145.6 203.805C145.6 203.865 145.6 203.925 145.6 203.985C145.6 204.045 145.605 204.1 145.615 204.15ZM154.473 208.08C154.473 207.26 154.488 206.38 154.518 205.44C154.548 204.5 154.588 203.545 154.638 202.575C154.688 201.605 154.738 200.655 154.788 199.725C154.848 198.795 154.908 197.92 154.968 197.1C155.028 196.27 155.078 195.535 155.118 194.895L157.623 194.925C157.563 195.495 157.503 196.135 157.443 196.845C157.393 197.555 157.343 198.31 157.293 199.11C157.583 198.99 157.893 198.9 158.223 198.84C158.563 198.77 158.928 198.735 159.318 198.735C159.848 198.735 160.353 198.825 160.833 199.005C161.323 199.175 161.763 199.44 162.153 199.8C162.543 200.16 162.848 200.625 163.068 201.195C163.298 201.765 163.413 202.45 163.413 203.25C163.413 204.1 163.293 204.835 163.053 205.455C162.813 206.075 162.488 206.585 162.078 206.985C161.668 207.385 161.203 207.68 160.683 207.87C160.173 208.07 159.648 208.17 159.108 208.17C158.698 208.17 158.313 208.115 157.953 208.005C157.603 207.895 157.278 207.75 156.978 207.57C156.978 207.73 156.978 207.89 156.978 208.05L154.473 208.08ZM158.973 201.255C158.223 201.255 157.613 201.475 157.143 201.915C157.103 202.835 157.068 203.735 157.038 204.615C157.528 205.265 158.213 205.59 159.093 205.59C159.383 205.59 159.673 205.525 159.963 205.395C160.263 205.255 160.513 205.02 160.713 204.69C160.913 204.36 161.013 203.9 161.013 203.31C161.013 202.64 160.838 202.13 160.488 201.78C160.148 201.43 159.643 201.255 158.973 201.255ZM167.356 208.185C166.806 208.185 166.351 208.065 165.991 207.825C165.641 207.595 165.361 207.275 165.151 206.865C164.951 206.455 164.801 205.985 164.701 205.455C164.611 204.925 164.551 204.36 164.521 203.76C164.501 203.15 164.491 202.54 164.491 201.93C164.491 201.4 164.506 200.82 164.536 200.19C164.566 199.55 164.601 198.905 164.641 198.255C164.691 197.595 164.741 196.975 164.791 196.395C164.851 195.815 164.906 195.31 164.956 194.88L167.671 194.91C167.591 195.42 167.516 196 167.446 196.65C167.376 197.29 167.316 197.94 167.266 198.6C167.226 199.26 167.191 199.87 167.161 200.43C167.141 200.99 167.131 201.435 167.131 201.765C167.131 202.675 167.146 203.39 167.176 203.91C167.216 204.43 167.271 204.8 167.341 205.02C167.421 205.23 167.526 205.335 167.656 205.335C167.826 205.335 168.011 205.23 168.211 205.02C168.411 204.8 168.606 204.555 168.796 204.285L170.071 206.82C169.761 207.16 169.391 207.47 168.961 207.75C168.531 208.04 167.996 208.185 167.356 208.185ZM175.89 208.2C174.93 208.2 174.085 208.01 173.355 207.63C172.635 207.26 172.07 206.74 171.66 206.07C171.26 205.4 171.06 204.625 171.06 203.745C171.06 203.215 171.15 202.66 171.33 202.08C171.51 201.49 171.8 200.94 172.2 200.43C172.6 199.92 173.125 199.505 173.775 199.185C174.435 198.865 175.235 198.705 176.175 198.705C176.855 198.705 177.425 198.78 177.885 198.93C178.355 199.08 178.735 199.275 179.025 199.515C179.325 199.755 179.55 200.01 179.7 200.28C179.86 200.55 179.965 200.81 180.015 201.06C180.075 201.3 180.105 201.5 180.105 201.66C180.105 202.63 179.695 203.38 178.875 203.91C178.065 204.43 176.915 204.69 175.425 204.69C175.085 204.69 174.76 204.675 174.45 204.645C174.15 204.615 173.87 204.58 173.61 204.54C173.8 205.04 174.115 205.41 174.555 205.65C174.995 205.88 175.45 205.995 175.92 205.995C176.6 205.995 177.2 205.875 177.72 205.635C178.24 205.385 178.73 205.005 179.19 204.495L180.525 206.415C180.205 206.675 179.845 206.945 179.445 207.225C179.055 207.505 178.575 207.735 178.005 207.915C177.435 208.105 176.73 208.2 175.89 208.2ZM176.22 200.955C175.63 200.955 175.11 201.105 174.66 201.405C174.21 201.705 173.88 202.1 173.67 202.59C173.92 202.63 174.165 202.665 174.405 202.695C174.655 202.715 174.9 202.725 175.14 202.725C175.36 202.725 175.61 202.705 175.89 202.665C176.18 202.625 176.46 202.565 176.73 202.485C177.01 202.405 177.24 202.305 177.42 202.185C177.6 202.055 177.69 201.905 177.69 201.735C177.69 201.655 177.65 201.555 177.57 201.435C177.49 201.315 177.345 201.205 177.135 201.105C176.925 201.005 176.62 200.955 176.22 200.955ZM188.88 208.185C188.13 208.185 187.45 207.99 186.84 207.6C186.23 207.22 185.745 206.705 185.385 206.055C185.035 205.395 184.86 204.66 184.86 203.85C184.86 203.09 185 202.405 185.28 201.795C185.56 201.175 185.94 200.645 186.42 200.205C186.91 199.765 187.465 199.43 188.085 199.2C188.705 198.96 189.355 198.84 190.035 198.84C190.605 198.84 191.165 198.92 191.715 199.08C191.755 198.87 191.79 198.66 191.82 198.45L194.385 198.885C194.315 199.075 194.245 199.36 194.175 199.74C194.105 200.12 194.045 200.545 193.995 201.015C193.955 201.485 193.92 201.955 193.89 202.425C193.86 202.895 193.845 203.32 193.845 203.7C193.845 204.01 193.865 204.315 193.905 204.615C193.955 204.905 194.055 205.145 194.205 205.335C194.355 205.515 194.585 205.605 194.895 205.605H195.105L194.73 208.215C194.07 208.215 193.525 208.1 193.095 207.87C192.665 207.65 192.32 207.35 192.06 206.97C191.63 207.45 191.14 207.77 190.59 207.93C190.04 208.1 189.47 208.185 188.88 208.185ZM187.32 204.15C187.37 204.63 187.565 205.015 187.905 205.305C188.255 205.585 188.695 205.725 189.225 205.725C189.735 205.725 190.16 205.59 190.5 205.32C190.84 205.04 191.12 204.66 191.34 204.18C191.33 204.02 191.325 203.855 191.325 203.685C191.325 203.335 191.335 202.975 191.355 202.605C191.375 202.235 191.4 201.87 191.43 201.51C191.01 201.35 190.57 201.27 190.11 201.27C189.57 201.27 189.085 201.38 188.655 201.6C188.235 201.81 187.905 202.105 187.665 202.485C187.425 202.865 187.305 203.305 187.305 203.805C187.305 203.865 187.305 203.925 187.305 203.985C187.305 204.045 187.31 204.1 187.32 204.15ZM200.542 208.185C199.942 208.185 199.467 208.055 199.117 207.795C198.767 207.545 198.512 207.195 198.352 206.745C198.192 206.295 198.087 205.78 198.037 205.2C197.997 204.62 197.977 204.01 197.977 203.37C197.977 202.71 198.002 202.025 198.052 201.315C197.382 201.405 196.737 201.52 196.117 201.66L195.652 199.305C196.482 199.085 197.367 198.925 198.307 198.825C198.377 198.315 198.452 197.78 198.532 197.22C198.612 196.65 198.702 196.05 198.802 195.42L201.382 195.645C201.262 196.165 201.157 196.685 201.067 197.205C200.977 197.715 200.897 198.21 200.827 198.69C201.387 198.69 201.912 198.705 202.402 198.735C202.902 198.755 203.362 198.795 203.782 198.855L203.482 201.21C203.132 201.17 202.767 201.145 202.387 201.135C202.017 201.115 201.642 201.105 201.262 201.105C201.032 201.105 200.802 201.11 200.572 201.12C200.512 201.85 200.472 202.475 200.452 202.995C200.442 203.515 200.437 203.885 200.437 204.105C200.437 204.655 200.467 205.05 200.527 205.29C200.597 205.53 200.707 205.65 200.857 205.65C201.027 205.65 201.217 205.595 201.427 205.485C201.637 205.365 201.842 205.205 202.042 205.005C202.252 204.805 202.427 204.59 202.567 204.36L203.722 206.775C202.732 207.715 201.672 208.185 200.542 208.185ZM212.774 208.185C212.174 208.185 211.699 208.055 211.349 207.795C210.999 207.545 210.744 207.195 210.584 206.745C210.424 206.295 210.319 205.78 210.269 205.2C210.229 204.62 210.209 204.01 210.209 203.37C210.209 202.71 210.234 202.025 210.284 201.315C209.614 201.405 208.969 201.52 208.349 201.66L207.884 199.305C208.714 199.085 209.599 198.925 210.539 198.825C210.609 198.315 210.684 197.78 210.764 197.22C210.844 196.65 210.934 196.05 211.034 195.42L213.614 195.645C213.494 196.165 213.389 196.685 213.299 197.205C213.209 197.715 213.129 198.21 213.059 198.69C213.619 198.69 214.144 198.705 214.634 198.735C215.134 198.755 215.594 198.795 216.014 198.855L215.714 201.21C215.364 201.17 214.999 201.145 214.619 201.135C214.249 201.115 213.874 201.105 213.494 201.105C213.264 201.105 213.034 201.11 212.804 201.12C212.744 201.85 212.704 202.475 212.684 202.995C212.674 203.515 212.669 203.885 212.669 204.105C212.669 204.655 212.699 205.05 212.759 205.29C212.829 205.53 212.939 205.65 213.089 205.65C213.259 205.65 213.449 205.595 213.659 205.485C213.869 205.365 214.074 205.205 214.274 205.005C214.484 204.805 214.659 204.59 214.799 204.36L215.954 206.775C214.964 207.715 213.904 208.185 212.774 208.185ZM217.107 208.035C217.107 207.425 217.107 206.645 217.107 205.695C217.117 204.735 217.127 203.67 217.137 202.5C217.157 201.33 217.182 200.1 217.212 198.81C217.252 197.52 217.297 196.23 217.347 194.94L219.897 194.925C219.857 195.495 219.817 196.19 219.777 197.01C219.737 197.83 219.702 198.71 219.672 199.65C220.362 199.01 221.152 198.69 222.042 198.69C222.652 198.69 223.157 198.8 223.557 199.02C223.967 199.24 224.297 199.53 224.547 199.89C224.797 200.24 224.987 200.625 225.117 201.045C225.247 201.465 225.337 201.88 225.387 202.29C225.437 202.69 225.462 203.045 225.462 203.355C225.462 204.015 225.457 204.67 225.447 205.32C225.437 205.97 225.427 206.54 225.417 207.03C225.417 207.52 225.417 207.865 225.417 208.065L222.792 208.08C222.832 207.69 222.857 207.24 222.867 206.73C222.887 206.22 222.897 205.695 222.897 205.155C222.907 204.605 222.912 204.085 222.912 203.595C222.912 201.975 222.532 201.165 221.772 201.165C221.542 201.165 221.287 201.225 221.007 201.345C220.727 201.465 220.457 201.655 220.197 201.915C219.947 202.175 219.747 202.52 219.597 202.95C219.587 203.61 219.582 204.25 219.582 204.87C219.582 205.44 219.587 205.975 219.597 206.475C219.617 206.965 219.632 207.46 219.642 207.96L217.107 208.035ZM231.466 208.2C230.506 208.2 229.661 208.01 228.931 207.63C228.211 207.26 227.646 206.74 227.236 206.07C226.836 205.4 226.636 204.625 226.636 203.745C226.636 203.215 226.726 202.66 226.906 202.08C227.086 201.49 227.376 200.94 227.776 200.43C228.176 199.92 228.701 199.505 229.351 199.185C230.011 198.865 230.811 198.705 231.751 198.705C232.431 198.705 233.001 198.78 233.461 198.93C233.931 199.08 234.311 199.275 234.601 199.515C234.901 199.755 235.126 200.01 235.276 200.28C235.436 200.55 235.541 200.81 235.591 201.06C235.651 201.3 235.681 201.5 235.681 201.66C235.681 202.63 235.271 203.38 234.451 203.91C233.641 204.43 232.491 204.69 231.001 204.69C230.661 204.69 230.336 204.675 230.026 204.645C229.726 204.615 229.446 204.58 229.186 204.54C229.376 205.04 229.691 205.41 230.131 205.65C230.571 205.88 231.026 205.995 231.496 205.995C232.176 205.995 232.776 205.875 233.296 205.635C233.816 205.385 234.306 205.005 234.766 204.495L236.101 206.415C235.781 206.675 235.421 206.945 235.021 207.225C234.631 207.505 234.151 207.735 233.581 207.915C233.011 208.105 232.306 208.2 231.466 208.2ZM231.796 200.955C231.206 200.955 230.686 201.105 230.236 201.405C229.786 201.705 229.456 202.1 229.246 202.59C229.496 202.63 229.741 202.665 229.981 202.695C230.231 202.715 230.476 202.725 230.716 202.725C230.936 202.725 231.186 202.705 231.466 202.665C231.756 202.625 232.036 202.565 232.306 202.485C232.586 202.405 232.816 202.305 232.996 202.185C233.176 202.055 233.266 201.905 233.266 201.735C233.266 201.655 233.226 201.555 233.146 201.435C233.066 201.315 232.921 201.205 232.711 201.105C232.501 201.005 232.196 200.955 231.796 200.955ZM240.691 208.17C240.681 208.02 240.671 207.77 240.661 207.42C240.651 207.08 240.641 206.67 240.631 206.19C240.621 205.71 240.616 205.195 240.616 204.645C240.616 204.085 240.616 203.525 240.616 202.965C240.616 202.345 240.616 201.755 240.616 201.195C240.626 200.635 240.631 200.15 240.631 199.74C240.641 199.33 240.646 199.035 240.646 198.855L243.181 198.81C243.161 199.09 243.146 199.43 243.136 199.83C243.396 199.48 243.696 199.205 244.036 199.005C244.376 198.805 244.766 198.705 245.206 198.705C245.736 198.705 246.171 198.86 246.511 199.17C246.861 199.48 247.146 199.885 247.366 200.385C248.086 199.265 248.971 198.705 250.021 198.705C250.611 198.705 251.096 198.835 251.476 199.095C251.866 199.345 252.171 199.685 252.391 200.115C252.611 200.545 252.771 201.03 252.871 201.57C252.981 202.11 253.051 202.665 253.081 203.235C253.111 203.805 253.126 204.355 253.126 204.885C253.126 205.515 253.116 206.09 253.096 206.61C253.076 207.13 253.071 207.625 253.081 208.095H250.486C250.486 207.855 250.486 207.55 250.486 207.18C250.486 206.82 250.486 206.455 250.486 206.085C250.496 205.705 250.501 205.38 250.501 205.11C250.501 204.83 250.501 204.665 250.501 204.615C250.501 204.015 250.486 203.45 250.456 202.92C250.426 202.39 250.351 201.96 250.231 201.63C250.111 201.3 249.916 201.135 249.646 201.135C249.386 201.135 249.156 201.26 248.956 201.51C248.756 201.76 248.576 202.085 248.416 202.485C248.266 202.885 248.136 203.31 248.026 203.76C248.046 204.15 248.061 204.54 248.071 204.93C248.081 205.31 248.086 205.68 248.086 206.04C248.086 206.45 248.081 206.805 248.071 207.105C248.071 207.415 248.071 207.745 248.071 208.095H245.551C245.551 207.285 245.546 206.57 245.536 205.95C245.526 205.33 245.506 204.73 245.476 204.15C245.426 203.11 245.316 202.35 245.146 201.87C244.986 201.38 244.761 201.135 244.471 201.135C244.151 201.135 243.881 201.33 243.661 201.72C243.441 202.1 243.261 202.565 243.121 203.115C243.131 203.915 243.151 204.75 243.181 205.62C243.211 206.49 243.251 207.33 243.301 208.14L240.691 208.17ZM258.886 208.23C258.086 208.23 257.386 208.1 256.786 207.84C256.196 207.58 255.706 207.225 255.316 206.775C254.926 206.315 254.636 205.79 254.446 205.2C254.256 204.61 254.161 203.99 254.161 203.34C254.161 202.68 254.276 202.07 254.506 201.51C254.746 200.94 255.071 200.445 255.481 200.025C255.901 199.605 256.391 199.28 256.951 199.05C257.511 198.81 258.121 198.69 258.781 198.69C259.471 198.69 260.111 198.81 260.701 199.05C261.291 199.29 261.806 199.625 262.246 200.055C262.686 200.485 263.026 200.99 263.266 201.57C263.516 202.15 263.641 202.78 263.641 203.46C263.641 204.97 263.226 206.145 262.396 206.985C261.566 207.815 260.396 208.23 258.886 208.23ZM258.871 205.8C259.601 205.8 260.156 205.595 260.536 205.185C260.926 204.775 261.121 204.185 261.121 203.415C261.121 202.725 260.911 202.17 260.491 201.75C260.071 201.33 259.521 201.12 258.841 201.12C258.431 201.12 258.056 201.23 257.716 201.45C257.376 201.66 257.101 201.945 256.891 202.305C256.691 202.655 256.591 203.045 256.591 203.475C256.591 203.855 256.666 204.225 256.816 204.585C256.976 204.945 257.226 205.24 257.566 205.47C257.906 205.69 258.341 205.8 258.871 205.8ZM264.817 208.17C264.807 208.02 264.797 207.77 264.787 207.42C264.777 207.08 264.767 206.67 264.757 206.19C264.747 205.71 264.742 205.195 264.742 204.645C264.742 204.085 264.742 203.525 264.742 202.965C264.742 202.345 264.742 201.755 264.742 201.195C264.752 200.635 264.757 200.15 264.757 199.74C264.767 199.33 264.772 199.035 264.772 198.855L267.307 198.81C267.287 199.09 267.272 199.43 267.262 199.83C267.522 199.48 267.822 199.205 268.162 199.005C268.502 198.805 268.892 198.705 269.332 198.705C269.862 198.705 270.297 198.86 270.637 199.17C270.987 199.48 271.272 199.885 271.492 200.385C272.212 199.265 273.097 198.705 274.147 198.705C274.737 198.705 275.222 198.835 275.602 199.095C275.992 199.345 276.297 199.685 276.517 200.115C276.737 200.545 276.897 201.03 276.997 201.57C277.107 202.11 277.177 202.665 277.207 203.235C277.237 203.805 277.252 204.355 277.252 204.885C277.252 205.515 277.242 206.09 277.222 206.61C277.202 207.13 277.197 207.625 277.207 208.095H274.612C274.612 207.855 274.612 207.55 274.612 207.18C274.612 206.82 274.612 206.455 274.612 206.085C274.622 205.705 274.627 205.38 274.627 205.11C274.627 204.83 274.627 204.665 274.627 204.615C274.627 204.015 274.612 203.45 274.582 202.92C274.552 202.39 274.477 201.96 274.357 201.63C274.237 201.3 274.042 201.135 273.772 201.135C273.512 201.135 273.282 201.26 273.082 201.51C272.882 201.76 272.702 202.085 272.542 202.485C272.392 202.885 272.262 203.31 272.152 203.76C272.172 204.15 272.187 204.54 272.197 204.93C272.207 205.31 272.212 205.68 272.212 206.04C272.212 206.45 272.207 206.805 272.197 207.105C272.197 207.415 272.197 207.745 272.197 208.095H269.677C269.677 207.285 269.672 206.57 269.662 205.95C269.652 205.33 269.632 204.73 269.602 204.15C269.552 203.11 269.442 202.35 269.272 201.87C269.112 201.38 268.887 201.135 268.597 201.135C268.277 201.135 268.007 201.33 267.787 201.72C267.567 202.1 267.387 202.565 267.247 203.115C267.257 203.915 267.277 204.75 267.307 205.62C267.337 206.49 267.377 207.33 267.427 208.14L264.817 208.17ZM283.087 208.2C282.127 208.2 281.282 208.01 280.552 207.63C279.832 207.26 279.267 206.74 278.857 206.07C278.457 205.4 278.257 204.625 278.257 203.745C278.257 203.215 278.347 202.66 278.527 202.08C278.707 201.49 278.997 200.94 279.397 200.43C279.797 199.92 280.322 199.505 280.972 199.185C281.632 198.865 282.432 198.705 283.372 198.705C284.052 198.705 284.622 198.78 285.082 198.93C285.552 199.08 285.932 199.275 286.222 199.515C286.522 199.755 286.747 200.01 286.897 200.28C287.057 200.55 287.162 200.81 287.212 201.06C287.272 201.3 287.302 201.5 287.302 201.66C287.302 202.63 286.892 203.38 286.072 203.91C285.262 204.43 284.112 204.69 282.622 204.69C282.282 204.69 281.957 204.675 281.647 204.645C281.347 204.615 281.067 204.58 280.807 204.54C280.997 205.04 281.312 205.41 281.752 205.65C282.192 205.88 282.647 205.995 283.117 205.995C283.797 205.995 284.397 205.875 284.917 205.635C285.437 205.385 285.927 205.005 286.387 204.495L287.722 206.415C287.402 206.675 287.042 206.945 286.642 207.225C286.252 207.505 285.772 207.735 285.202 207.915C284.632 208.105 283.927 208.2 283.087 208.2ZM283.417 200.955C282.827 200.955 282.307 201.105 281.857 201.405C281.407 201.705 281.077 202.1 280.867 202.59C281.117 202.63 281.362 202.665 281.602 202.695C281.852 202.715 282.097 202.725 282.337 202.725C282.557 202.725 282.807 202.705 283.087 202.665C283.377 202.625 283.657 202.565 283.927 202.485C284.207 202.405 284.437 202.305 284.617 202.185C284.797 202.055 284.887 201.905 284.887 201.735C284.887 201.655 284.847 201.555 284.767 201.435C284.687 201.315 284.542 201.205 284.332 201.105C284.122 201.005 283.817 200.955 283.417 200.955ZM289.004 208.08C288.974 207.2 288.949 206.385 288.929 205.635C288.919 204.885 288.914 204.145 288.914 203.415C288.914 202.685 288.919 201.955 288.929 201.225C288.949 200.485 288.979 199.695 289.019 198.855H291.554C291.514 199.305 291.479 199.76 291.449 200.22C291.789 199.79 292.194 199.435 292.664 199.155C293.134 198.865 293.689 198.72 294.329 198.72C294.959 198.72 295.474 198.825 295.874 199.035C296.284 199.245 296.604 199.535 296.834 199.905C297.074 200.275 297.244 200.7 297.344 201.18C297.454 201.65 297.524 202.16 297.554 202.71C297.584 203.25 297.599 203.795 297.599 204.345C297.599 204.945 297.589 205.52 297.569 206.07C297.549 206.62 297.529 207.08 297.509 207.45C297.489 207.82 297.474 208.04 297.464 208.11H294.944C294.964 207.7 294.984 207.265 295.004 206.805C295.024 206.335 295.044 205.875 295.064 205.425C295.084 204.965 295.094 204.55 295.094 204.18C295.094 202.05 294.749 200.985 294.059 200.985C293.489 200.985 292.969 201.235 292.499 201.735C292.039 202.225 291.654 202.845 291.344 203.595C291.344 203.695 291.344 203.795 291.344 203.895C291.344 204.375 291.344 204.875 291.344 205.395C291.354 205.905 291.364 206.395 291.374 206.865C291.394 207.325 291.409 207.725 291.419 208.065L289.004 208.08ZM303.565 208.185C302.965 208.185 302.49 208.055 302.14 207.795C301.79 207.545 301.535 207.195 301.375 206.745C301.215 206.295 301.11 205.78 301.06 205.2C301.02 204.62 301 204.01 301 203.37C301 202.71 301.025 202.025 301.075 201.315C300.405 201.405 299.76 201.52 299.14 201.66L298.675 199.305C299.505 199.085 300.39 198.925 301.33 198.825C301.4 198.315 301.475 197.78 301.555 197.22C301.635 196.65 301.725 196.05 301.825 195.42L304.405 195.645C304.285 196.165 304.18 196.685 304.09 197.205C304 197.715 303.92 198.21 303.85 198.69C304.41 198.69 304.935 198.705 305.425 198.735C305.925 198.755 306.385 198.795 306.805 198.855L306.505 201.21C306.155 201.17 305.79 201.145 305.41 201.135C305.04 201.115 304.665 201.105 304.285 201.105C304.055 201.105 303.825 201.11 303.595 201.12C303.535 201.85 303.495 202.475 303.475 202.995C303.465 203.515 303.46 203.885 303.46 204.105C303.46 204.655 303.49 205.05 303.55 205.29C303.62 205.53 303.73 205.65 303.88 205.65C304.05 205.65 304.24 205.595 304.45 205.485C304.66 205.365 304.865 205.205 305.065 205.005C305.275 204.805 305.45 204.59 305.59 204.36L306.745 206.775C305.755 207.715 304.695 208.185 303.565 208.185Z" fill="#8C8C8C"/>
<defs>
<filter id="filter0_d_1255_1870" x="66" y="0" width="135" height="164" filterUnits="userSpaceOnUse" color-interpolation-filters="sRGB">
<feFlood flood-opacity="0" result="BackgroundImageFix"/>
<feColorMatrix in="SourceAlpha" type="matrix" values="0 0 0 0 0 0 0 0 0 0 0 0 0 0 0 0 0 0 127 0" result="hardAlpha"/>
<feOffset dx="-2" dy="4"/>
<feGaussianBlur stdDeviation="5"/>
<feComposite in2="hardAlpha" operator="out"/>
<feColorMatrix type="matrix" values="0 0 0 0 0.180392 0 0 0 0 0.184314 0 0 0 0 0.184314 0 0 0 0.21 0"/>
<feBlend mode="normal" in2="BackgroundImageFix" result="effect1_dropShadow_1255_1870"/>
<feBlend mode="normal" in="SourceGraphic" in2="effect1_dropShadow_1255_1870" result="shape"/>
</filter>
</defs>
</svg>
