<svg xmlns="http://www.w3.org/2000/svg" xmlns:xlink="http://www.w3.org/1999/xlink" width="500" zoomAndPan="magnify" viewBox="0 0 375 374.999991" height="500" preserveAspectRatio="xMidYMid meet" version="1.0"><defs><clipPath id="688294e622"><path d="M 37.5 37.5 L 337.5 37.5 L 337.5 337.5 L 37.5 337.5 Z M 37.5 37.5 " clip-rule="nonzero"/></clipPath></defs><g clip-path="url(#688294e622)"><path fill="#545454" d="M 335.054688 93.851562 C 333.78125 92.980469 332.160156 92.789062 330.722656 93.355469 L 295.386719 107.097656 L 267.070312 78.78125 L 268.089844 58.746094 C 268.191406 56.769531 267.035156 54.949219 265.207031 54.191406 L 226.878906 38.292969 C 225.054688 37.550781 222.941406 38.011719 221.617188 39.480469 L 208.144531 54.390625 L 166.855469 54.390625 L 153.386719 39.480469 C 152.058594 38.011719 149.957031 37.550781 148.121094 38.292969 L 109.792969 54.191406 C 107.964844 54.949219 106.8125 56.769531 106.910156 58.746094 L 107.929688 78.78125 L 78.746094 107.96875 L 74.839844 107.78125 L 44.464844 94.433594 C 43.015625 93.792969 41.347656 93.925781 40.027344 94.796875 C 38.707031 95.660156 37.910156 97.128906 37.910156 98.710938 L 37.910156 187.527344 C 37.910156 189.421875 39.050781 191.132812 40.804688 191.851562 L 54.363281 197.441406 L 54.363281 208.171875 L 39.453125 221.644531 C 37.984375 222.972656 37.507812 225.082031 38.265625 226.910156 L 54.160156 265.238281 C 54.914062 267.0625 56.589844 268.238281 58.71875 268.117188 L 78.753906 267.101562 L 107.929688 296.277344 L 106.914062 316.3125 C 106.8125 318.289062 107.96875 320.109375 109.792969 320.867188 L 148.121094 336.765625 C 149.953125 337.511719 152.0625 337.046875 153.386719 335.578125 L 166.859375 320.667969 L 208.144531 320.667969 L 221.617188 335.578125 C 222.527344 336.582031 223.789062 337.121094 225.085938 337.121094 C 225.691406 337.121094 226.300781 337.003906 226.882812 336.765625 L 265.210938 320.871094 C 267.035156 320.113281 268.191406 318.289062 268.089844 316.3125 L 267.074219 296.277344 L 296.25 267.101562 L 316.285156 268.117188 C 318.375 268.21875 320.082031 267.0625 320.839844 265.238281 L 336.738281 226.910156 C 337.496094 225.082031 337.019531 222.972656 335.550781 221.644531 L 320.640625 208.171875 L 320.640625 181.671875 L 333.988281 176.90625 C 335.851562 176.246094 337.09375 174.484375 337.09375 172.503906 L 337.09375 97.710938 C 337.089844 96.167969 336.328125 94.722656 335.054688 93.851562 Z M 116.011719 83.921875 C 116.945312 82.988281 117.4375 81.699219 117.375 80.378906 L 116.417969 61.566406 L 148.660156 48.195312 L 161.308594 62.199219 C 162.195312 63.179688 163.457031 63.742188 164.78125 63.742188 L 210.222656 63.742188 C 211.546875 63.742188 212.804688 63.179688 213.691406 62.199219 L 226.339844 48.195312 L 258.585938 61.566406 L 257.625 80.378906 C 257.5625 81.699219 258.054688 82.988281 258.992188 83.921875 L 285.867188 110.800781 L 264.320312 119.179688 C 244.761719 97.234375 216.972656 84.683594 187.5 84.683594 C 156.359375 84.683594 127.605469 98.386719 107.996094 122.351562 L 86.867188 113.066406 Z M 47.257812 105.871094 L 130.761719 142.566406 C 134.078125 144.027344 137.785156 144.160156 141.199219 142.910156 L 174.550781 130.78125 C 180.394531 128.664062 186.742188 128.308594 192.742188 129.617188 L 166.195312 142.863281 C 162.53125 144.699219 159.632812 147.617188 157.839844 151.269531 L 148.777344 169.402344 C 147.445312 172.054688 147.226562 175.054688 148.15625 177.847656 C 149.085938 180.632812 151.058594 182.898438 153.722656 184.238281 C 157.648438 186.1875 162.46875 185.582031 165.550781 183 L 184.945312 167.476562 L 195.726562 164.769531 C 198.667969 164.039062 201.675781 164.730469 204.199219 166.828125 L 227.667969 184.3125 C 231.957031 187.507812 236.4375 190.320312 240.96875 192.652344 L 253.796875 199.371094 C 254.011719 200.375 253.886719 201.4375 253.375 202.445312 L 251.351562 206.578125 C 250.785156 207.695312 249.816406 208.519531 248.613281 208.917969 C 247.417969 209.316406 246.15625 209.21875 245.054688 208.648438 L 240.890625 206.542969 C 240.886719 206.542969 240.882812 206.535156 240.875 206.535156 L 218.953125 195.550781 C 216.625 194.402344 213.835938 195.335938 212.675781 197.636719 C 211.523438 199.945312 212.457031 202.753906 214.761719 203.914062 L 236.65625 214.878906 C 238.96875 216.058594 239.898438 218.878906 238.703125 221.21875 L 236.667969 225.34375 C 236.097656 226.476562 235.113281 227.316406 233.910156 227.710938 C 232.734375 228.09375 231.472656 228.003906 230.371094 227.4375 L 226.210938 225.335938 C 226.210938 225.335938 226.203125 225.335938 226.199219 225.335938 C 226.199219 225.335938 226.199219 225.332031 226.199219 225.332031 L 206.609375 215.515625 C 204.300781 214.355469 201.488281 215.289062 200.335938 217.59375 C 199.179688 219.90625 200.113281 222.710938 202.417969 223.867188 L 221.976562 233.671875 C 224.363281 234.890625 225.480469 237.109375 224.882812 238.289062 L 223.1875 241.644531 C 222.945312 242.136719 222.40625 242.402344 221.996094 242.539062 C 220.765625 242.9375 219.21875 242.75 217.78125 242.011719 L 205.25 235.75 C 205.25 235.75 205.246094 235.75 205.242188 235.75 L 194.316406 230.121094 C 192.019531 228.929688 189.199219 229.839844 188.019531 232.132812 C 186.839844 234.429688 187.738281 237.246094 190.035156 238.429688 L 201.066406 244.113281 C 202.164062 244.660156 202.984375 245.621094 203.382812 246.8125 C 203.78125 248.003906 203.691406 249.265625 203.160156 250.335938 C 202.574219 251.472656 201.617188 252.308594 200.371094 252.714844 C 199.21875 253.117188 197.976562 253.019531 196.828125 252.433594 L 183.90625 246.011719 C 183.90625 244.445312 183.597656 242.878906 182.953125 241.398438 C 181.71875 238.53125 179.4375 236.320312 176.539062 235.164062 C 174.890625 234.511719 173.15625 234.289062 171.445312 234.40625 C 171.261719 233.683594 171.058594 232.960938 170.753906 232.261719 C 169.273438 228.824219 166.539062 226.171875 163.054688 224.785156 C 159.804688 223.5 156.273438 223.515625 153.011719 224.726562 C 151.527344 221.726562 149.019531 219.21875 145.675781 217.890625 C 142.195312 216.507812 138.382812 216.566406 134.941406 218.050781 C 133.972656 218.46875 133.089844 219.007812 132.257812 219.609375 C 130.789062 217.785156 128.894531 216.261719 126.570312 215.339844 C 124.511719 214.527344 122.347656 214.277344 120.203125 214.460938 L 60.863281 190.003906 C 60.859375 190.003906 60.855469 190 60.851562 190 L 47.257812 184.398438 Z M 173.539062 249.066406 C 173.539062 249.066406 173.546875 249.066406 173.550781 249.066406 L 171.816406 253.410156 L 173.535156 249.0625 L 169.195312 247.339844 L 170.058594 245.164062 C 170.367188 244.382812 170.96875 244.027344 171.300781 243.886719 C 171.5 243.796875 171.828125 243.6875 172.230469 243.6875 C 172.492188 243.6875 172.78125 243.734375 173.089844 243.859375 C 174.289062 244.332031 174.875 245.691406 174.398438 246.890625 L 173.535156 249.066406 C 173.535156 249.066406 173.535156 249.066406 173.539062 249.066406 Z M 161.367188 241.71875 L 160.503906 243.890625 L 151.808594 240.445312 L 153.535156 236.097656 C 153.996094 234.9375 154.882812 234.023438 156.027344 233.53125 C 156.621094 233.273438 157.253906 233.144531 157.882812 233.144531 C 158.460938 233.144531 159.046875 233.253906 159.601562 233.476562 C 160.761719 233.9375 161.675781 234.824219 162.171875 235.96875 C 162.667969 237.117188 162.683594 238.386719 162.222656 239.550781 L 161.371094 241.703125 C 161.371094 241.707031 161.367188 241.710938 161.367188 241.71875 Z M 143.117188 236.996094 L 134.429688 233.550781 L 136.15625 229.203125 C 136.617188 228.039062 137.503906 227.132812 138.648438 226.632812 C 139.796875 226.140625 141.0625 226.117188 142.222656 226.585938 C 144.621094 227.535156 145.792969 230.253906 144.84375 232.652344 Z M 119.542969 224.085938 C 120.136719 223.828125 120.765625 223.699219 121.398438 223.699219 C 121.976562 223.699219 122.5625 223.808594 123.117188 224.03125 C 125.515625 224.980469 126.6875 227.703125 125.734375 230.097656 L 117.050781 226.652344 C 117.511719 225.492188 118.394531 224.578125 119.542969 224.085938 Z M 312.832031 213.71875 L 326.835938 226.367188 L 313.460938 258.613281 L 294.648438 257.652344 C 293.324219 257.605469 292.039062 258.082031 291.109375 259.019531 L 258.992188 291.136719 C 258.054688 292.070312 257.5625 293.359375 257.625 294.675781 L 258.585938 313.488281 L 226.339844 326.863281 L 213.691406 312.859375 C 212.804688 311.878906 211.546875 311.316406 210.222656 311.316406 L 164.78125 311.316406 C 163.457031 311.316406 162.195312 311.878906 161.308594 312.859375 L 148.660156 326.863281 L 116.417969 313.488281 L 117.375 294.675781 C 117.4375 293.359375 116.945312 292.070312 116.011719 291.136719 L 83.894531 259.019531 C 82.964844 258.082031 81.691406 257.605469 80.351562 257.652344 L 61.539062 258.613281 L 48.167969 226.367188 L 62.167969 213.71875 C 63.152344 212.832031 63.714844 211.574219 63.714844 210.25 L 63.714844 201.292969 L 109.941406 220.347656 C 109.320312 221.230469 108.769531 222.171875 108.359375 223.199219 C 107.4375 225.523438 107.472656 228.066406 108.46875 230.359375 C 109.460938 232.65625 111.28125 234.421875 113.601562 235.339844 L 122.292969 238.789062 L 122.296875 238.789062 C 123.410156 239.234375 124.574219 239.453125 125.738281 239.453125 C 126.199219 239.453125 126.660156 239.378906 127.117188 239.3125 C 128.121094 240.597656 129.425781 241.621094 130.980469 242.238281 L 139.671875 245.6875 C 139.675781 245.6875 139.675781 245.6875 139.675781 245.6875 C 140.796875 246.132812 141.960938 246.351562 143.125 246.351562 C 143.585938 246.351562 144.046875 246.277344 144.507812 246.207031 C 145.492188 247.460938 146.777344 248.503906 148.363281 249.136719 L 157.050781 252.582031 C 158.179688 253.027344 159.34375 253.238281 160.488281 253.238281 C 160.949219 253.238281 161.382812 253.105469 161.832031 253.039062 C 162.824219 254.324219 164.132812 255.390625 165.75 256.03125 L 170.085938 257.75 C 171.203125 258.195312 172.375 258.421875 173.542969 258.421875 C 174.800781 258.421875 176.058594 258.160156 177.25 257.648438 C 178.664062 257.035156 179.851562 256.074219 180.789062 254.90625 L 192.625 260.785156 C 194.628906 261.808594 196.789062 262.324219 198.9375 262.324219 C 200.429688 262.324219 201.914062 262.074219 203.34375 261.578125 C 206.882812 260.429688 209.769531 257.945312 211.503906 254.550781 C 212.230469 253.101562 212.640625 251.558594 212.832031 249.992188 L 213.566406 250.359375 C 215.816406 251.503906 218.253906 252.089844 220.636719 252.089844 C 222.109375 252.089844 223.5625 251.863281 224.9375 251.414062 C 227.910156 250.425781 230.265625 248.433594 231.550781 245.824219 L 233.226562 242.511719 C 234.085938 240.820312 234.394531 238.988281 234.3125 237.148438 C 235.152344 237.035156 235.992188 236.867188 236.816406 236.59375 C 240.402344 235.425781 243.316406 232.925781 245.03125 229.523438 L 247.058594 225.414062 C 248.207031 223.167969 248.621094 220.757812 248.503906 218.398438 C 249.519531 218.296875 250.535156 218.125 251.53125 217.800781 C 255.089844 216.632812 257.984375 214.15625 259.71875 210.761719 L 261.746094 206.617188 C 262.453125 205.226562 262.820312 203.738281 263.03125 202.230469 C 263.035156 202.230469 263.042969 202.230469 263.046875 202.226562 L 280.488281 196.003906 C 276.160156 243.464844 235.863281 281.023438 187.5 281.023438 C 149.457031 281.023438 115.527344 258.308594 101.050781 223.144531 C 100.070312 220.761719 97.34375 219.640625 94.945312 220.601562 C 92.558594 221.585938 91.421875 224.320312 92.402344 226.707031 C 108.328125 265.382812 145.65625 290.371094 187.5 290.371094 C 242.160156 290.371094 287.527344 246.78125 290.160156 192.550781 L 311.289062 185.007812 L 311.289062 210.25 C 311.289062 211.574219 311.851562 212.835938 312.832031 213.71875 Z M 327.742188 169.210938 L 261.507812 192.851562 L 245.277344 184.355469 C 241.179688 182.242188 237.132812 179.703125 233.257812 176.816406 L 209.992188 159.496094 C 205.441406 155.683594 199.257812 154.253906 193.46875 155.695312 L 182.851562 158.367188 C 181.515625 158.644531 180.210938 159.28125 179.109375 160.175781 L 159.632812 175.765625 C 159.210938 176.117188 158.523438 176.179688 157.902344 175.875 C 157.035156 175.4375 156.699219 174.453125 157.140625 173.585938 L 166.21875 155.417969 C 167.117188 153.585938 168.554688 152.136719 170.371094 151.226562 L 198.214844 137.335938 C 200.757812 136.039062 203.804688 135.59375 206.738281 136.042969 L 221.136719 138.472656 C 226.722656 139.410156 232.625 139.171875 238.214844 137.792969 C 240.726562 137.175781 242.257812 134.648438 241.640625 132.140625 C 241.027344 129.628906 238.5 128.074219 235.988281 128.714844 C 231.605469 129.789062 227 129.980469 222.691406 129.25 L 212.296875 127.5 L 203.511719 123.417969 C 193.515625 118.726562 181.8125 118.207031 171.363281 121.992188 L 138.003906 134.125 C 136.867188 134.539062 135.636719 134.5 134.527344 134.011719 L 116.886719 126.261719 C 134.65625 105.710938 160.066406 94.035156 187.5 94.035156 C 213.121094 94.035156 237.339844 104.460938 254.964844 122.816406 L 251.253906 124.261719 C 248.847656 125.195312 247.65625 127.902344 248.589844 130.308594 C 249.527344 132.714844 252.25 133.910156 254.640625 132.972656 L 264.246094 129.234375 C 264.355469 129.207031 264.457031 129.152344 264.5625 129.113281 L 295.78125 116.972656 C 295.925781 116.921875 296.0625 116.871094 296.207031 116.808594 L 327.742188 104.542969 Z M 327.742188 169.210938 " fill-opacity="1" fill-rule="nonzero"/></g></svg>