<svg xmlns="http://www.w3.org/2000/svg" xmlns:xlink="http://www.w3.org/1999/xlink" width="500" zoomAndPan="magnify" viewBox="0 0 375 374.999991" height="500" preserveAspectRatio="xMidYMid meet" version="1.0"><defs><clipPath id="6af62cb151"><path d="M 37.5 37.5 L 337.5 37.5 L 337.5 337.5 L 37.5 337.5 Z M 37.5 37.5 " clip-rule="nonzero"/></clipPath></defs><g clip-path="url(#6af62cb151)"><path fill="#545454" d="M 187.523438 337.523438 C 104.800781 337.523438 37.5 270.234375 37.5 187.523438 C 37.5 104.800781 104.800781 37.5 187.523438 37.5 C 270.238281 37.5 337.53125 104.800781 337.53125 187.523438 C 337.53125 270.234375 270.238281 337.523438 187.523438 337.523438 Z M 187.523438 52.355469 C 112.992188 52.355469 52.355469 112.988281 52.355469 187.523438 C 52.355469 262.042969 112.992188 322.671875 187.523438 322.671875 C 262.050781 322.671875 322.679688 262.042969 322.679688 187.523438 C 322.679688 112.988281 262.050781 52.355469 187.523438 52.355469 Z M 187.523438 52.355469 " fill-opacity="1" fill-rule="nonzero"/></g><path fill="#545454" d="M 149.078125 268.738281 C 142.417969 268.738281 135.761719 266.113281 130.8125 261.535156 L 90.242188 223.996094 C 82.589844 216.925781 80.191406 207.144531 83.832031 197.847656 C 87.835938 187.617188 98.117188 180.472656 108.839844 180.472656 C 115.125 180.472656 121.054688 182.878906 125.980469 187.4375 L 147.613281 207.453125 L 241.097656 110.140625 C 246 105.03125 252.035156 102.328125 258.542969 102.328125 C 268.722656 102.328125 278.414062 109.023438 282.65625 118.984375 C 286.664062 128.398438 284.726562 138.527344 277.46875 146.085938 L 166.859375 261.226562 C 162.207031 266.066406 155.890625 268.738281 149.078125 268.738281 Z M 108.839844 195.324219 C 104.242188 195.324219 99.433594 198.738281 97.664062 203.261719 C 96.257812 206.851562 97.15625 210.164062 100.332031 213.09375 L 140.894531 250.628906 C 143.128906 252.695312 146.113281 253.882812 149.078125 253.882812 C 151.011719 253.882812 153.808594 253.367188 156.148438 250.933594 L 266.753906 135.792969 C 270.714844 131.671875 270.160156 127.542969 268.988281 124.804688 C 267.109375 120.390625 262.714844 117.183594 258.546875 117.183594 C 256.140625 117.183594 253.875 118.277344 251.808594 120.429688 L 148.222656 228.261719 L 115.894531 198.34375 C 113.730469 196.339844 111.359375 195.324219 108.839844 195.324219 Z M 108.839844 195.324219 " fill-opacity="1" fill-rule="nonzero"/></svg>