<svg xmlns="http://www.w3.org/2000/svg" xmlns:xlink="http://www.w3.org/1999/xlink" width="500" zoomAndPan="magnify" viewBox="0 0 375 374.999991" height="500" preserveAspectRatio="xMidYMid meet" version="1.0"><defs><clipPath id="358ae9010b"><path d="M 42.1875 37.5 L 188 37.5 L 188 239 L 42.1875 239 Z M 42.1875 37.5 " clip-rule="nonzero"/></clipPath></defs><g clip-path="url(#358ae9010b)"><path fill="#545454" d="M 56.480469 238.746094 L 70.304688 238.746094 L 70.304688 89.222656 C 70.304688 76.117188 80.847656 65.585938 93.96875 65.585938 L 187.453125 65.585938 L 187.453125 51.78125 C 187.453125 43.824219 181.128906 37.507812 173.160156 37.507812 L 56.480469 37.507812 C 48.511719 37.507812 42.1875 43.824219 42.1875 51.78125 L 42.1875 224.472656 C 42.1875 232.425781 48.511719 238.746094 56.480469 238.746094 Z M 56.480469 238.746094 " fill-opacity="1" fill-rule="nonzero"/></g><path fill="#545454" d="M 79.675781 89.222656 L 79.675781 261.910156 C 79.675781 269.867188 86 276.183594 93.96875 276.183594 L 107.792969 276.183594 L 107.792969 266.824219 L 93.96875 266.824219 C 91.15625 266.824219 89.046875 264.484375 89.046875 261.910156 L 89.046875 89.222656 C 89.046875 86.414062 91.390625 84.308594 93.96875 84.308594 L 210.648438 84.308594 C 213.460938 84.308594 215.570312 86.648438 215.570312 89.222656 L 215.570312 103.027344 L 224.941406 103.027344 L 224.941406 89.222656 C 224.941406 81.265625 218.613281 74.945312 210.648438 74.945312 L 93.96875 74.945312 C 86 74.945312 79.675781 81.265625 79.675781 89.222656 Z M 79.675781 89.222656 " fill-opacity="1" fill-rule="nonzero"/><path fill="#545454" d="M 182.765625 228.449219 C 182.765625 258.871094 207.601562 283.671875 238.0625 283.671875 C 243.214844 283.671875 248.136719 282.972656 253.058594 281.566406 L 268.050781 296.308594 C 271.800781 300.054688 278.128906 300.054688 281.875 296.308594 L 283.515625 294.671875 C 283.515625 294.671875 324.519531 335.621094 324.753906 335.621094 C 326.394531 337.257812 329.671875 337.492188 331.3125 335.621094 C 333.1875 333.75 333.1875 330.941406 331.3125 329.070312 L 290.078125 288.117188 L 298.277344 280.164062 L 324.753906 305.433594 C 326.628906 307.308594 329.671875 307.074219 331.3125 305.199219 C 333.1875 303.328125 332.953125 300.285156 331.078125 298.648438 L 304.601562 273.378906 C 305.773438 271.738281 306.476562 269.632812 306.476562 267.527344 C 306.476562 264.953125 305.539062 262.378906 303.664062 260.507812 L 290.078125 246.933594 C 292.183594 241.085938 293.355469 234.765625 293.355469 228.449219 C 293.355469 198.03125 268.519531 173.226562 238.0625 173.226562 C 207.601562 173.226562 182.765625 198.03125 182.765625 228.449219 Z M 284.21875 228.449219 C 284.21875 253.722656 263.601562 274.3125 238.296875 274.3125 C 212.992188 274.3125 192.140625 253.722656 192.140625 228.449219 C 192.140625 203.179688 212.757812 182.585938 238.0625 182.585938 C 263.367188 182.585938 284.21875 203.179688 284.21875 228.449219 Z M 284.21875 228.449219 " fill-opacity="1" fill-rule="nonzero"/><path fill="#545454" d="M 225.410156 226.8125 C 223.769531 224.707031 220.957031 224.238281 218.847656 225.875 C 216.742188 227.511719 216.273438 230.320312 217.910156 232.425781 C 217.910156 232.425781 224.941406 241.789062 224.941406 241.789062 C 226.582031 243.894531 229.628906 244.363281 231.734375 242.722656 L 257.507812 221.664062 C 259.617188 220.027344 259.851562 216.984375 258.210938 215.113281 C 256.570312 213.003906 253.527344 212.773438 251.652344 214.410156 L 229.628906 232.195312 Z M 225.410156 226.8125 " fill-opacity="1" fill-rule="nonzero"/><path fill="#545454" d="M 117.164062 126.660156 L 117.164062 299.351562 C 117.164062 307.308594 123.488281 313.625 131.457031 313.625 L 248.136719 313.625 C 254.695312 313.625 260.085938 309.179688 261.960938 303.328125 C 261.726562 303.09375 261.726562 303.09375 261.492188 302.859375 L 250.246094 291.628906 C 246.261719 292.332031 242.277344 292.800781 238.296875 292.800781 C 225.878906 292.800781 214.164062 289.289062 204.324219 283.203125 L 147.621094 283.203125 C 145.046875 283.203125 142.9375 281.097656 142.9375 278.523438 C 142.9375 275.949219 145.046875 273.84375 147.621094 273.84375 L 192.375 273.84375 C 189.5625 271.039062 186.984375 267.761719 184.640625 264.484375 L 147.621094 264.484375 C 145.046875 264.484375 142.9375 262.378906 142.9375 259.804688 C 142.9375 257.230469 145.046875 255.125 147.621094 255.125 L 179.253906 255.125 C 177.847656 252.082031 176.675781 249.042969 175.738281 245.765625 L 147.621094 245.765625 C 145.046875 245.765625 142.9375 243.660156 142.9375 241.085938 C 142.9375 238.511719 145.046875 236.40625 147.621094 236.40625 L 173.863281 236.40625 C 173.628906 233.832031 173.394531 231.023438 173.394531 228.449219 C 173.394531 227.980469 173.394531 227.511719 173.394531 227.046875 L 147.621094 227.046875 C 145.046875 227.046875 142.9375 224.941406 142.9375 222.367188 C 142.9375 219.792969 145.046875 217.6875 147.621094 217.6875 L 174.332031 217.6875 C 174.800781 214.410156 175.738281 211.367188 176.675781 208.324219 L 147.621094 208.324219 C 145.046875 208.324219 142.9375 206.21875 142.9375 203.644531 C 142.9375 201.070312 145.046875 198.964844 147.621094 198.964844 L 180.425781 198.964844 C 182.0625 195.691406 184.171875 192.414062 186.28125 189.605469 L 147.621094 189.605469 C 145.046875 189.605469 142.9375 187.5 142.9375 184.925781 C 142.9375 182.351562 145.046875 180.246094 147.621094 180.246094 L 195.183594 180.246094 C 199.402344 176.503906 203.855469 173.460938 209.007812 170.886719 L 147.621094 170.886719 C 145.046875 170.886719 142.9375 168.78125 142.9375 166.207031 C 142.9375 163.632812 145.046875 161.527344 147.621094 161.527344 L 231.96875 161.527344 C 233.609375 161.527344 235.25 162.460938 235.953125 163.867188 C 236.65625 163.867188 237.359375 163.867188 238.0625 163.867188 C 246.496094 163.867188 254.695312 165.503906 262.195312 168.546875 C 262.429688 144.445312 262.429688 126.660156 262.429688 126.660156 C 262.429688 118.703125 256.101562 112.386719 248.136719 112.386719 L 131.457031 112.386719 C 123.488281 112.386719 117.164062 118.9375 117.164062 126.660156 Z M 147.621094 142.804688 L 231.96875 142.804688 C 234.546875 142.804688 236.65625 144.914062 236.65625 147.488281 C 236.65625 150.058594 234.546875 152.167969 231.96875 152.167969 L 147.621094 152.167969 C 145.046875 152.167969 142.9375 150.058594 142.9375 147.488281 C 142.9375 144.914062 145.046875 142.804688 147.621094 142.804688 Z M 147.621094 142.804688 " fill-opacity="1" fill-rule="nonzero"/></svg>