<svg xmlns="http://www.w3.org/2000/svg" xmlns:xlink="http://www.w3.org/1999/xlink" width="500" zoomAndPan="magnify" viewBox="0 0 375 374.999991" height="500" preserveAspectRatio="xMidYMid meet" version="1.0"><defs><clipPath id="eed46cfae7"><path d="M 39 187 L 254 187 L 254 322.5 L 39 322.5 Z M 39 187 " clip-rule="nonzero"/></clipPath><clipPath id="c615721850"><path d="M 109 52.5 L 337.5 52.5 L 337.5 230 L 109 230 Z M 109 52.5 " clip-rule="nonzero"/></clipPath></defs><g clip-path="url(#eed46cfae7)"><path fill="#545454" d="M 237.851562 207.734375 C 233.292969 207.734375 228.53125 209.644531 224.765625 213.992188 L 206.003906 238.148438 C 203.835938 234.566406 187.472656 204.699219 177.394531 196.726562 C 172.921875 193.191406 167.191406 190.363281 161.074219 188.199219 C 158.519531 190.917969 155.609375 193.285156 152.417969 195.25 C 159.660156 197.21875 166.71875 200.144531 171.621094 204.023438 C 175.007812 206.703125 205.046875 254.539062 205.046875 254.539062 L 213.347656 243.851562 L 231.933594 219.929688 C 234.078125 217.539062 236.328125 217.035156 237.851562 217.035156 C 239.5625 217.035156 241.21875 217.667969 242.394531 218.769531 C 244.695312 220.921875 245.808594 226.605469 241.804688 231.253906 L 241.625 231.464844 L 241.457031 231.683594 L 208.796875 274.5625 C 206.980469 276.851562 204.554688 278.167969 202.144531 278.167969 C 200.652344 278.167969 199.238281 277.660156 198.007812 276.695312 L 170.863281 230.75 L 170.863281 302.570312 C 170.863281 308.363281 166.203125 313.082031 160.480469 313.082031 L 100.191406 313.082031 C 97.339844 313.082031 94.703125 312.007812 92.773438 310.050781 C 90.984375 308.242188 90.015625 305.863281 90.046875 303.261719 L 90.269531 228.105469 L 64.492188 289.65625 C 62.328125 294.402344 58.316406 296.5625 55.488281 296.5625 C 54.71875 296.5625 53.988281 296.410156 53.3125 296.113281 C 49.480469 294.414062 47.988281 288.214844 50.125 282.847656 L 57.1875 265.074219 C 64.375 246.980469 72.472656 226.609375 73.585938 223.816406 C 81.136719 208.675781 92.511719 199.089844 108.03125 194.792969 C 104.960938 192.820312 102.183594 190.453125 99.730469 187.773438 C 85.871094 192.988281 73.527344 202.882812 65.085938 220.019531 C 65.050781 220.09375 50.613281 256.429688 41.480469 279.40625 C 37.441406 289.570312 41.050781 300.855469 49.546875 304.617188 C 51.457031 305.460938 53.46875 305.867188 55.488281 305.867188 C 62.460938 305.867188 69.558594 301.101562 73.023438 293.367188 L 80.828125 274.726562 L 80.746094 303.234375 C 80.613281 313.808594 89.320312 322.386719 100.191406 322.386719 L 160.480469 322.386719 C 171.351562 322.386719 180.164062 313.515625 180.164062 302.570312 L 180.164062 264.777344 L 190.714844 282.648438 C 193.96875 285.886719 198.039062 287.46875 202.144531 287.46875 C 207.246094 287.46875 212.414062 285.019531 216.152344 280.261719 L 248.859375 237.320312 C 255.976562 229.050781 254.871094 217.707031 248.753906 211.980469 C 245.863281 209.273438 241.941406 207.734375 237.851562 207.734375 Z M 237.851562 207.734375 " fill-opacity="1" fill-rule="nonzero"/></g><g clip-path="url(#c615721850)"><path fill="#545454" d="M 318.894531 52.617188 L 128.199219 52.617188 C 117.964844 52.617188 109.59375 60.988281 109.59375 71.222656 L 109.59375 123.441406 C 112.496094 121.75 115.605469 120.390625 118.894531 119.429688 L 118.894531 71.222656 C 118.894531 66.089844 123.070312 61.921875 128.199219 61.921875 L 318.894531 61.921875 C 324.027344 61.921875 328.199219 66.089844 328.199219 71.222656 L 328.199219 210.757812 C 328.199219 215.886719 324.027344 220.058594 318.894531 220.058594 L 262.730469 220.058594 C 263.1875 223.109375 263.136719 226.253906 262.574219 229.363281 L 318.894531 229.363281 C 329.128906 229.363281 337.5 220.992188 337.5 210.757812 L 337.5 71.222656 C 337.5 60.988281 329.128906 52.617188 318.894531 52.617188 Z M 318.894531 52.617188 " fill-opacity="1" fill-rule="nonzero"/></g><path fill="#545454" d="M 130.597656 192.152344 C 148.582031 192.152344 163.152344 177.578125 163.152344 159.589844 C 163.152344 141.609375 148.582031 127.039062 130.597656 127.039062 C 112.621094 127.039062 98.039062 141.609375 98.039062 159.589844 C 98.039062 177.578125 112.621094 192.152344 130.597656 192.152344 Z M 130.597656 136.339844 C 143.417969 136.339844 153.851562 146.769531 153.851562 159.589844 C 153.851562 172.414062 143.417969 182.851562 130.597656 182.851562 C 117.773438 182.851562 107.339844 172.414062 107.339844 159.589844 C 107.339844 146.769531 117.773438 136.339844 130.597656 136.339844 Z M 130.597656 136.339844 " fill-opacity="1" fill-rule="nonzero"/></svg>