<svg xmlns="http://www.w3.org/2000/svg" xmlns:xlink="http://www.w3.org/1999/xlink" width="500" zoomAndPan="magnify" viewBox="0 0 375 374.999991" height="500" preserveAspectRatio="xMidYMid meet" version="1.0"><defs><clipPath id="2f2aab6cf6"><path d="M 37.5 108.136719 L 337.5 108.136719 L 337.5 267.136719 L 37.5 267.136719 Z M 37.5 108.136719 " clip-rule="nonzero"/></clipPath></defs><rect x="-37.5" width="450" fill="#ffffff" y="-37.499999" height="449.999989" fill-opacity="1"/><rect x="-37.5" width="450" fill="#ffffff" y="-37.499999" height="449.999989" fill-opacity="1"/><g clip-path="url(#2f2aab6cf6)"><path fill="#545454" d="M 315.226562 191.898438 C 312.527344 190.382812 309.734375 189.039062 306.871094 187.878906 C 313.058594 181.140625 316.84375 172.152344 316.84375 162.296875 C 316.84375 141.4375 299.90625 124.464844 279.082031 124.464844 C 258.261719 124.464844 241.320312 141.4375 241.320312 162.296875 C 241.320312 172.160156 245.113281 181.15625 251.3125 187.894531 C 246.808594 189.722656 242.480469 191.992188 238.40625 194.675781 C 231.941406 190.300781 225.074219 186.792969 217.945312 184.199219 C 226.34375 176.15625 231.589844 164.835938 231.589844 152.304688 C 231.589844 127.949219 211.808594 108.136719 187.5 108.136719 C 163.191406 108.136719 143.410156 127.949219 143.410156 152.304688 C 143.410156 164.835938 148.65625 176.15625 157.054688 184.203125 C 149.925781 186.792969 143.058594 190.300781 136.59375 194.675781 C 132.519531 191.992188 128.191406 189.722656 123.6875 187.898438 C 129.886719 181.15625 133.679688 172.164062 133.679688 162.296875 C 133.679688 141.4375 116.738281 124.46875 95.917969 124.46875 C 75.09375 124.46875 58.15625 141.4375 58.15625 162.296875 C 58.15625 172.15625 61.945312 181.144531 68.136719 187.886719 C 65.558594 188.929688 63.039062 190.109375 60.597656 191.441406 C 46.410156 199.179688 37.597656 214.054688 37.597656 230.257812 L 37.597656 240.636719 C 37.597656 245.515625 41.546875 249.46875 46.417969 249.46875 L 116.957031 249.46875 L 116.957031 258.304688 C 116.957031 263.179688 120.90625 267.136719 125.777344 267.136719 L 249.222656 267.136719 C 254.09375 267.136719 258.042969 263.179688 258.042969 258.304688 L 258.042969 249.46875 L 328.582031 249.46875 C 333.453125 249.46875 337.402344 245.515625 337.402344 240.636719 L 337.402344 230.25 C 337.402344 214.285156 328.90625 199.589844 315.226562 191.898438 Z M 116.957031 231.304688 L 116.957031 231.804688 L 55.234375 231.804688 L 55.234375 230.257812 C 55.234375 220.53125 60.519531 211.601562 69.03125 206.957031 C 85.777344 197.820312 106.75 197.667969 123.90625 207.578125 C 119.433594 214.558594 116.957031 222.765625 116.957031 231.304688 Z M 187.5 125.804688 C 202.085938 125.804688 213.953125 137.691406 213.953125 152.304688 C 213.953125 166.914062 202.085938 178.804688 187.5 178.804688 C 172.914062 178.804688 161.046875 166.914062 161.046875 152.304688 C 161.046875 137.691406 172.914062 125.804688 187.5 125.804688 Z M 240.40625 249.46875 L 222.769531 249.46875 L 222.769531 240.636719 C 222.769531 235.757812 218.824219 231.804688 213.953125 231.804688 C 209.082031 231.804688 205.136719 235.757812 205.136719 240.636719 L 205.136719 249.46875 L 169.863281 249.46875 L 169.863281 240.636719 C 169.863281 235.757812 165.917969 231.804688 161.046875 231.804688 C 156.175781 231.804688 152.230469 235.757812 152.230469 240.636719 L 152.230469 249.46875 L 134.59375 249.46875 L 134.59375 231.304688 C 134.59375 222.628906 138.867188 214.515625 146.023438 209.605469 C 171.527344 192.101562 203.445312 192.082031 228.976562 209.605469 C 236.132812 214.515625 240.40625 222.628906 240.40625 231.304688 Z M 319.765625 231.804688 L 258.042969 231.804688 C 257.972656 231.320312 258.765625 219.554688 251.09375 207.578125 C 268.378906 197.59375 289.644531 197.777344 306.59375 207.304688 C 314.71875 211.875 319.765625 220.664062 319.765625 230.25 Z M 319.765625 231.804688 " fill-opacity="1" fill-rule="nonzero"/></g></svg>