<svg xmlns="http://www.w3.org/2000/svg" xmlns:xlink="http://www.w3.org/1999/xlink" width="500" zoomAndPan="magnify" viewBox="0 0 375 374.999991" height="500" preserveAspectRatio="xMidYMid meet" version="1.0"><defs><clipPath id="cca27c9d62"><path d="M 37.5 60.75 L 239 60.75 L 239 314.25 L 37.5 314.25 Z M 37.5 60.75 " clip-rule="nonzero"/></clipPath><clipPath id="00ed77a9d3"><path d="M 179 60.75 L 239 60.75 L 239 124 L 179 124 Z M 179 60.75 " clip-rule="nonzero"/></clipPath><clipPath id="a3dd8a325b"><path d="M 188 177 L 337.5 177 L 337.5 271 L 188 271 Z M 188 177 " clip-rule="nonzero"/></clipPath></defs><path fill="#ffffff" d="M 237.136719 122 L 237.136719 312.953125 L 39.011719 312.953125 L 39.011719 62.21875 L 180.4375 62.21875 L 237.136719 122 " fill-opacity="1" fill-rule="nonzero"/><g clip-path="url(#cca27c9d62)"><path fill="#2e2f2f" d="M 237.136719 122 L 235.828125 122 L 235.828125 311.644531 L 40.320312 311.644531 L 40.320312 63.53125 L 179.875 63.53125 L 236.183594 122.902344 L 237.136719 122 L 235.828125 122 L 237.136719 122 L 238.089844 121.101562 L 181.390625 61.320312 C 181.140625 61.054688 180.800781 60.910156 180.4375 60.910156 L 39.011719 60.910156 C 38.667969 60.910156 38.328125 61.050781 38.082031 61.292969 C 37.839844 61.535156 37.699219 61.875 37.699219 62.21875 L 37.699219 312.953125 C 37.699219 313.300781 37.839844 313.636719 38.082031 313.882812 C 38.328125 314.125 38.667969 314.265625 39.011719 314.265625 L 237.136719 314.265625 C 237.484375 314.265625 237.816406 314.128906 238.0625 313.882812 C 238.308594 313.632812 238.445312 313.304688 238.445312 312.953125 L 238.445312 122 C 238.445312 121.667969 238.316406 121.34375 238.089844 121.101562 L 237.136719 122 " fill-opacity="1" fill-rule="nonzero"/></g><path fill="#2e2f2f" d="M 219.855469 194.898438 L 146.519531 194.898438 L 146.519531 105.632812 L 219.855469 105.632812 L 219.855469 194.898438 " fill-opacity="1" fill-rule="nonzero"/><path fill="#2e2f2f" d="M 219.855469 194.898438 L 219.855469 193.152344 L 148.269531 193.152344 L 148.269531 107.378906 L 218.105469 107.378906 L 218.105469 194.898438 L 219.855469 194.898438 L 219.855469 193.152344 L 219.855469 194.898438 L 221.597656 194.898438 L 221.597656 105.632812 C 221.597656 105.164062 221.417969 104.726562 221.089844 104.398438 C 220.757812 104.066406 220.316406 103.886719 219.855469 103.886719 L 146.519531 103.886719 C 146.0625 103.886719 145.613281 104.070312 145.285156 104.394531 C 144.960938 104.722656 144.773438 105.171875 144.773438 105.632812 L 144.773438 194.898438 C 144.773438 195.355469 144.960938 195.804688 145.285156 196.132812 C 145.613281 196.457031 146.0625 196.644531 146.519531 196.644531 L 219.855469 196.644531 C 220.316406 196.644531 220.757812 196.460938 221.089844 196.132812 C 221.417969 195.800781 221.597656 195.363281 221.597656 194.898438 L 219.855469 194.898438 " fill-opacity="1" fill-rule="nonzero"/><path fill="#ffffff" d="M 57.800781 126.621094 L 135.132812 126.621094 L 135.132812 105.632812 L 57.800781 105.632812 L 57.800781 126.621094 " fill-opacity="1" fill-rule="nonzero"/><path fill="#2e2f2f" d="M 57.800781 126.621094 L 57.800781 128.371094 L 135.132812 128.371094 C 135.597656 128.371094 136.039062 128.1875 136.367188 127.855469 C 136.695312 127.527344 136.878906 127.089844 136.878906 126.621094 L 136.878906 105.632812 C 136.878906 105.164062 136.695312 104.726562 136.367188 104.398438 C 136.039062 104.066406 135.597656 103.886719 135.132812 103.886719 L 57.800781 103.886719 C 57.34375 103.886719 56.894531 104.070312 56.566406 104.394531 C 56.242188 104.722656 56.054688 105.171875 56.054688 105.632812 L 56.054688 126.621094 C 56.054688 127.082031 56.242188 127.53125 56.566406 127.855469 C 56.894531 128.183594 57.34375 128.371094 57.800781 128.371094 L 57.800781 126.621094 L 59.550781 126.621094 L 59.550781 107.378906 L 133.382812 107.378906 L 133.382812 124.875 L 57.800781 124.875 L 57.800781 126.621094 L 59.550781 126.621094 L 57.800781 126.621094 " fill-opacity="1" fill-rule="nonzero"/><path fill="#ffffff" d="M 57.800781 229.359375 L 219.855469 229.359375 L 219.855469 212.507812 L 57.800781 212.507812 L 57.800781 229.359375 " fill-opacity="1" fill-rule="nonzero"/><path fill="#2e2f2f" d="M 57.800781 229.359375 L 57.800781 231.101562 L 219.855469 231.101562 C 220.316406 231.101562 220.757812 230.921875 221.089844 230.59375 C 221.417969 230.261719 221.597656 229.820312 221.597656 229.359375 L 221.597656 212.507812 C 221.597656 212.039062 221.417969 211.601562 221.089844 211.273438 C 220.757812 210.941406 220.316406 210.761719 219.855469 210.761719 L 57.800781 210.761719 C 57.34375 210.761719 56.894531 210.945312 56.566406 211.273438 C 56.242188 211.597656 56.054688 212.046875 56.054688 212.507812 L 56.054688 229.359375 C 56.054688 229.816406 56.242188 230.265625 56.566406 230.59375 C 56.894531 230.917969 57.34375 231.101562 57.800781 231.101562 L 57.800781 229.359375 L 59.550781 229.359375 L 59.550781 214.253906 L 218.101562 214.253906 L 218.101562 227.609375 L 57.800781 227.609375 L 57.800781 229.359375 L 59.550781 229.359375 L 57.800781 229.359375 " fill-opacity="1" fill-rule="nonzero"/><path fill="#2e2f2f" d="M 57.800781 140.484375 L 135.132812 140.484375 C 136.097656 140.484375 136.878906 139.699219 136.878906 138.734375 C 136.878906 137.769531 136.097656 136.988281 135.132812 136.988281 L 57.800781 136.988281 C 56.839844 136.988281 56.054688 137.769531 56.054688 138.734375 C 56.054688 139.699219 56.839844 140.484375 57.800781 140.484375 " fill-opacity="1" fill-rule="nonzero"/><path fill="#2e2f2f" d="M 57.800781 156.921875 L 135.132812 156.921875 C 136.097656 156.921875 136.878906 156.140625 136.878906 155.175781 C 136.878906 154.210938 136.097656 153.429688 135.132812 153.429688 L 57.800781 153.429688 C 56.839844 153.429688 56.054688 154.210938 56.054688 155.175781 C 56.054688 156.140625 56.839844 156.921875 57.800781 156.921875 " fill-opacity="1" fill-rule="nonzero"/><path fill="#2e2f2f" d="M 57.800781 173.363281 L 135.132812 173.363281 C 136.097656 173.363281 136.878906 172.582031 136.878906 171.617188 C 136.878906 170.648438 136.097656 169.867188 135.132812 169.867188 L 57.800781 169.867188 C 56.839844 169.867188 56.054688 170.648438 56.054688 171.617188 C 56.054688 172.582031 56.839844 173.363281 57.800781 173.363281 " fill-opacity="1" fill-rule="nonzero"/><path fill="#2e2f2f" d="M 57.800781 189.808594 L 135.132812 189.808594 C 136.097656 189.808594 136.878906 189.023438 136.878906 188.058594 C 136.878906 187.09375 136.097656 186.3125 135.132812 186.3125 L 57.800781 186.3125 C 56.839844 186.3125 56.054688 187.09375 56.054688 188.058594 C 56.054688 189.023438 56.839844 189.808594 57.800781 189.808594 " fill-opacity="1" fill-rule="nonzero"/><path fill="#2e2f2f" d="M 57.800781 247.855469 L 218.796875 247.855469 C 219.761719 247.855469 220.542969 247.070312 220.542969 246.109375 C 220.542969 245.144531 219.761719 244.363281 218.796875 244.363281 L 57.800781 244.363281 C 56.839844 244.363281 56.054688 245.144531 56.054688 246.109375 C 56.054688 247.070312 56.839844 247.855469 57.800781 247.855469 " fill-opacity="1" fill-rule="nonzero"/><path fill="#2e2f2f" d="M 57.800781 264.296875 L 218.796875 264.296875 C 219.761719 264.296875 220.542969 263.511719 220.542969 262.550781 C 220.542969 261.582031 219.761719 260.800781 218.796875 260.800781 L 57.800781 260.800781 C 56.839844 260.800781 56.054688 261.582031 56.054688 262.550781 C 56.054688 263.511719 56.839844 264.296875 57.800781 264.296875 " fill-opacity="1" fill-rule="nonzero"/><path fill="#2e2f2f" d="M 57.800781 280.734375 L 218.796875 280.734375 C 219.761719 280.734375 220.542969 279.953125 220.542969 278.988281 C 220.542969 278.023438 219.761719 277.242188 218.796875 277.242188 L 57.800781 277.242188 C 56.839844 277.242188 56.054688 278.023438 56.054688 278.988281 C 56.054688 279.953125 56.839844 280.734375 57.800781 280.734375 " fill-opacity="1" fill-rule="nonzero"/><path fill="#ffffff" d="M 237.136719 122 L 189.320312 111.40625 L 180.4375 62.21875 Z M 237.136719 122 " fill-opacity="1" fill-rule="nonzero"/><g clip-path="url(#00ed77a9d3)"><path fill="#2e2f2f" d="M 237.136719 122 L 237.417969 120.722656 L 190.457031 110.316406 L 182.511719 66.308594 L 236.183594 122.902344 L 237.136719 122 L 237.417969 120.722656 L 237.136719 122 L 238.089844 121.101562 L 181.390625 61.320312 C 180.992188 60.898438 180.363281 60.789062 179.847656 61.050781 C 179.332031 61.3125 179.046875 61.886719 179.152344 62.453125 L 188.03125 111.640625 C 188.125 112.160156 188.519531 112.570312 189.039062 112.6875 L 236.851562 123.28125 C 237.417969 123.40625 237.992188 123.152344 238.277344 122.648438 C 238.5625 122.144531 238.484375 121.519531 238.089844 121.101562 L 237.136719 122 " fill-opacity="1" fill-rule="nonzero"/></g><path fill="#ffffff" d="M 335.902344 260.796875 L 276.03125 240.691406 C 276.03125 240.691406 248.449219 257.714844 238.207031 262.058594 C 227.972656 266.398438 221.980469 270.730469 212.558594 268.175781 C 209.847656 267.445312 213.898438 264.441406 210.921875 257.953125 C 203.550781 241.863281 189.550781 213.671875 189.550781 213.671875 L 234.761719 179.347656 C 234.761719 179.347656 246.140625 178.574219 257.863281 181.480469 C 269.585938 184.382812 282.621094 198.71875 296.8125 201.488281 C 301.628906 202.425781 335.902344 208.15625 335.902344 208.15625 L 335.902344 260.796875 " fill-opacity="1" fill-rule="nonzero"/><g clip-path="url(#a3dd8a325b)"><path fill="#2e2f2f" d="M 335.902344 260.796875 L 336.320312 259.554688 L 276.449219 239.449219 C 276.082031 239.320312 275.675781 239.371094 275.34375 239.574219 C 275.34375 239.574219 274.917969 239.835938 274.140625 240.3125 C 271.441406 241.964844 264.53125 246.171875 257.1875 250.429688 C 253.519531 252.558594 249.738281 254.699219 246.324219 256.542969 C 242.917969 258.386719 239.863281 259.933594 237.695312 260.851562 C 233.589844 262.59375 230.1875 264.316406 227.0625 265.574219 C 223.929688 266.835938 221.101562 267.625 218.03125 267.628906 C 216.425781 267.628906 214.746094 267.410156 212.898438 266.914062 C 212.789062 266.882812 212.742188 266.859375 212.734375 266.855469 L 212.625 267.046875 L 212.785156 266.894531 L 212.734375 266.855469 L 212.625 267.046875 L 212.785156 266.894531 L 212.5 267.167969 L 212.878906 267.046875 L 212.785156 266.894531 L 212.5 267.167969 L 212.878906 267.046875 L 212.703125 267.105469 L 212.882812 267.066406 L 212.878906 267.046875 L 212.703125 267.105469 L 212.882812 267.066406 L 212.882812 267.054688 L 212.878906 267 C 212.871094 266.800781 212.972656 266.265625 213.109375 265.558594 C 213.242188 264.847656 213.386719 263.949219 213.382812 262.886719 C 213.386719 261.363281 213.082031 259.519531 212.113281 257.40625 C 204.722656 241.28125 190.726562 213.09375 190.722656 213.089844 L 189.550781 213.671875 L 190.34375 214.714844 L 235.554688 180.390625 L 234.761719 179.347656 L 234.851562 180.65625 L 234.902344 180.652344 C 235.175781 180.636719 236.453125 180.566406 238.421875 180.566406 C 242.648438 180.5625 250.0625 180.894531 257.546875 182.753906 C 260.292969 183.429688 263.207031 184.8125 266.242188 186.574219 C 270.796875 189.21875 275.613281 192.707031 280.65625 195.824219 C 285.699219 198.929688 290.980469 201.679688 296.5625 202.773438 C 297.796875 203.015625 300.832031 203.546875 304.730469 204.214844 C 316.40625 206.226562 335.6875 209.449219 335.6875 209.449219 L 335.902344 208.15625 L 334.589844 208.15625 L 334.589844 260.796875 L 335.902344 260.796875 L 336.320312 259.554688 L 335.902344 260.796875 L 337.210938 260.796875 L 337.210938 208.15625 C 337.210938 207.515625 336.75 206.96875 336.117188 206.863281 C 336.117188 206.863281 335.582031 206.777344 334.636719 206.617188 C 331.324219 206.0625 322.976562 204.660156 314.929688 203.296875 C 310.910156 202.617188 306.960938 201.945312 303.757812 201.390625 C 300.558594 200.839844 298.089844 200.402344 297.0625 200.199219 C 290.3125 198.898438 283.613281 194.730469 277.136719 190.441406 C 273.894531 188.300781 270.707031 186.136719 267.558594 184.308594 C 264.40625 182.484375 261.296875 180.984375 258.179688 180.207031 C 250.375 178.277344 242.785156 177.945312 238.421875 177.945312 C 236.097656 177.945312 234.695312 178.042969 234.667969 178.042969 C 234.417969 178.058594 234.171875 178.152344 233.964844 178.308594 L 188.757812 212.628906 C 188.257812 213.007812 188.097656 213.6875 188.375 214.253906 C 188.378906 214.253906 188.59375 214.695312 188.992188 215.496094 C 191.769531 221.105469 203.292969 244.453125 209.734375 258.5 C 210.546875 260.285156 210.761719 261.703125 210.765625 262.886719 C 210.761719 263.710938 210.652344 264.429688 210.535156 265.082031 C 210.417969 265.738281 210.269531 266.308594 210.257812 267 C 210.257812 267.226562 210.277344 267.480469 210.355469 267.746094 C 210.453125 268.144531 210.707031 268.574219 211.0625 268.867188 C 211.410156 269.164062 211.8125 269.332031 212.21875 269.441406 C 214.265625 269.996094 216.1875 270.25 218.03125 270.25 C 221.570312 270.25 224.765625 269.324219 228.042969 268.003906 C 231.320312 266.679688 234.707031 264.964844 238.71875 263.261719 C 241.363281 262.140625 245.023438 260.253906 249.070312 258.035156 C 261.191406 251.386719 276.710938 241.808594 276.722656 241.804688 L 276.03125 240.691406 L 275.617188 241.933594 L 335.484375 262.039062 C 335.882812 262.171875 336.324219 262.105469 336.667969 261.859375 C 337.007812 261.613281 337.210938 261.21875 337.210938 260.796875 L 335.902344 260.796875 " fill-opacity="1" fill-rule="nonzero"/></g><path fill="#ffffff" d="M 296.425781 202.992188 C 296.425781 202.992188 279.402344 186.484375 258.167969 179.210938 C 243.066406 174.042969 215.070312 177.320312 204.152344 179.8125 C 186.691406 183.804688 156.457031 197.128906 152.445312 198.527344 C 148.433594 199.921875 151.988281 216.816406 174.078125 214.929688 C 196.167969 213.050781 196.519531 203.390625 207.796875 204.488281 C 219.074219 205.589844 222.902344 213.054688 242.25 218.292969 " fill-opacity="1" fill-rule="nonzero"/><path fill="#2e2f2f" d="M 297.335938 202.050781 C 297.304688 202.019531 293.007812 197.855469 286.03125 192.769531 C 279.050781 187.683594 269.394531 181.671875 258.589844 177.972656 C 252.484375 175.886719 244.570312 175.164062 236.488281 175.160156 C 223.761719 175.164062 210.660156 176.988281 203.859375 178.535156 C 194.992188 180.566406 183.050781 184.910156 172.777344 188.921875 C 167.644531 190.929688 162.9375 192.855469 159.265625 194.363281 C 157.425781 195.121094 155.851562 195.769531 154.613281 196.273438 C 153.375 196.773438 152.460938 197.136719 152.015625 197.289062 C 151.597656 197.433594 151.222656 197.675781 150.917969 197.972656 C 150.464844 198.417969 150.164062 198.972656 149.972656 199.566406 C 149.785156 200.160156 149.699219 200.800781 149.699219 201.484375 C 149.699219 202.921875 150.078125 204.539062 150.867188 206.199219 C 152.050781 208.679688 154.183594 211.242188 157.453125 213.171875 C 160.714844 215.101562 165.101562 216.386719 170.742188 216.386719 C 171.84375 216.386719 172.988281 216.339844 174.191406 216.238281 C 179.507812 215.789062 183.621094 214.886719 186.953125 213.78125 C 191.949219 212.125 195.164062 210 197.886719 208.398438 C 199.25 207.589844 200.484375 206.917969 201.773438 206.453125 C 203.066406 205.992188 204.414062 205.714844 206.074219 205.714844 C 206.574219 205.714844 207.105469 205.738281 207.667969 205.792969 C 210.355469 206.058594 212.558594 206.6875 214.710938 207.585938 C 217.9375 208.925781 221.054688 210.90625 225.214844 213.074219 C 229.375 215.242188 234.558594 217.570312 241.910156 219.554688 C 242.609375 219.746094 243.328125 219.332031 243.515625 218.632812 C 243.707031 217.9375 243.292969 217.21875 242.597656 217.027344 C 233.046875 214.441406 227.410156 211.34375 222.632812 208.695312 C 220.242188 207.367188 218.0625 206.140625 215.722656 205.164062 C 213.378906 204.1875 210.878906 203.472656 207.925781 203.1875 C 207.28125 203.125 206.664062 203.09375 206.074219 203.09375 C 203.460938 203.085938 201.324219 203.703125 199.386719 204.613281 C 196.476562 205.980469 193.980469 207.902344 190.285156 209.636719 C 186.59375 211.367188 181.675781 212.96875 173.96875 213.628906 C 172.839844 213.722656 171.765625 213.765625 170.742188 213.765625 C 163.746094 213.761719 159.167969 211.667969 156.308594 209.105469 C 154.878906 207.824219 153.875 206.414062 153.234375 205.070312 C 152.589844 203.730469 152.320312 202.449219 152.320312 201.484375 C 152.320312 200.871094 152.429688 200.398438 152.566406 200.121094 C 152.632812 199.984375 152.699219 199.898438 152.75 199.847656 L 152.875 199.765625 C 153.433594 199.570312 154.34375 199.207031 155.597656 198.699219 C 159.964844 196.925781 168.394531 193.386719 177.632812 189.855469 C 186.867188 186.328125 196.925781 182.808594 204.449219 181.089844 C 210.992188 179.589844 224.023438 177.777344 236.488281 177.777344 C 244.40625 177.773438 252.117188 178.519531 257.742188 180.453125 C 268.179688 184.023438 277.648438 189.898438 284.488281 194.886719 C 287.90625 197.378906 290.671875 199.648438 292.578125 201.289062 C 293.53125 202.109375 294.269531 202.777344 294.765625 203.234375 C 295.015625 203.460938 295.203125 203.636719 295.328125 203.757812 L 295.46875 203.890625 L 295.511719 203.933594 C 296.03125 204.433594 296.859375 204.421875 297.367188 203.902344 C 297.867188 203.382812 297.855469 202.554688 297.335938 202.050781 " fill-opacity="1" fill-rule="nonzero"/><path fill="#ffffff" d="M 177.035156 215.425781 L 167.023438 204.328125 L 178.503906 193.980469 L 188.511719 205.078125 L 177.035156 215.425781 " fill-opacity="1" fill-rule="nonzero"/><path fill="#2e2f2f" d="M 177.035156 215.425781 L 178.003906 214.550781 L 168.875 204.425781 L 178.410156 195.828125 L 186.660156 204.980469 L 176.15625 214.453125 L 177.035156 215.425781 L 178.003906 214.550781 L 177.035156 215.425781 L 177.910156 216.402344 L 189.390625 206.050781 C 189.648438 205.8125 189.800781 205.492188 189.820312 205.144531 C 189.839844 204.792969 189.71875 204.457031 189.484375 204.199219 L 179.476562 193.101562 C 178.992188 192.5625 178.164062 192.519531 177.628906 193.007812 L 166.148438 203.355469 C 165.609375 203.839844 165.566406 204.667969 166.050781 205.207031 L 176.0625 216.304688 C 176.289062 216.5625 176.621094 216.71875 176.964844 216.734375 C 177.308594 216.753906 177.65625 216.628906 177.910156 216.402344 L 177.035156 215.425781 " fill-opacity="1" fill-rule="nonzero"/><path fill="#ffffff" d="M 101.554688 178.757812 C 87.046875 162.671875 88.324219 137.867188 104.414062 123.359375 C 120.503906 108.851562 145.308594 110.128906 159.820312 126.21875 C 174.324219 142.308594 173.042969 167.113281 156.957031 181.625 C 140.867188 196.128906 116.058594 194.847656 101.554688 178.757812 Z M 172.050781 115.1875 C 151.449219 92.339844 116.226562 90.519531 93.378906 111.125 C 70.535156 131.726562 68.714844 166.949219 89.316406 189.792969 C 107.628906 210.101562 137.476562 213.78125 159.933594 199.890625 L 167.371094 208.132812 L 182.253906 194.714844 L 174.820312 186.46875 C 190.949219 165.5625 190.363281 135.492188 172.050781 115.1875 " fill-opacity="1" fill-rule="nonzero"/><path fill="#2e2f2f" d="M 101.554688 178.757812 L 102.527344 177.878906 C 95.984375 170.628906 92.769531 161.558594 92.765625 152.503906 C 92.769531 142.132812 96.984375 131.824219 105.289062 124.332031 C 112.546875 117.792969 121.617188 114.574219 130.671875 114.574219 C 141.039062 114.574219 151.351562 118.792969 158.84375 127.101562 C 165.382812 134.351562 168.601562 143.425781 168.601562 152.476562 C 168.601562 162.84375 164.378906 173.160156 156.074219 180.648438 C 148.824219 187.191406 139.75 190.402344 130.699219 190.40625 C 120.328125 190.402344 110.011719 186.1875 102.527344 177.878906 L 101.554688 178.757812 L 100.578125 179.632812 C 108.582031 188.511719 119.621094 193.027344 130.699219 193.027344 C 140.367188 193.027344 150.082031 189.582031 157.832031 182.597656 C 166.703125 174.59375 171.226562 163.554688 171.222656 152.476562 C 171.226562 142.804688 167.777344 133.089844 160.789062 125.34375 C 152.785156 116.46875 141.742188 111.949219 130.671875 111.953125 C 121 111.949219 111.28125 115.398438 103.535156 122.386719 C 94.660156 130.386719 90.144531 141.429688 90.148438 152.503906 C 90.144531 162.175781 93.589844 171.890625 100.578125 179.632812 Z M 172.050781 115.1875 L 173.023438 114.3125 C 161.769531 101.828125 146.242188 95.476562 130.664062 95.476562 C 117.058594 95.476562 103.398438 100.320312 92.5 110.152344 C 80.023438 121.40625 73.667969 136.929688 73.667969 152.507812 C 73.667969 166.113281 78.515625 179.773438 88.34375 190.671875 C 99.59375 203.148438 115.109375 209.5 130.679688 209.496094 C 141.039062 209.496094 151.4375 206.6875 160.625 201.003906 L 159.933594 199.890625 L 158.960938 200.765625 L 166.398438 209.011719 C 166.628906 209.265625 166.960938 209.421875 167.304688 209.441406 C 167.648438 209.460938 167.992188 209.339844 168.25 209.105469 L 183.132812 195.6875 C 183.390625 195.449219 183.542969 195.128906 183.5625 194.78125 C 183.578125 194.429688 183.457031 194.097656 183.226562 193.835938 L 175.792969 185.59375 L 174.820312 186.46875 L 175.851562 187.269531 C 183.707031 177.089844 187.691406 164.789062 187.691406 152.453125 C 187.691406 138.855469 182.847656 125.203125 173.023438 114.3125 L 171.078125 116.066406 C 180.457031 126.464844 185.066406 139.476562 185.070312 152.453125 C 185.070312 164.226562 181.269531 175.960938 173.777344 185.667969 C 173.390625 186.167969 173.417969 186.875 173.84375 187.347656 L 180.402344 194.617188 L 167.464844 206.285156 L 160.90625 199.011719 C 160.484375 198.542969 159.785156 198.441406 159.246094 198.773438 C 150.484375 204.191406 140.570312 206.875 130.679688 206.875 C 115.816406 206.875 101.027344 200.824219 90.289062 188.917969 C 80.90625 178.511719 76.292969 165.496094 76.289062 152.507812 C 76.292969 137.636719 82.347656 122.839844 94.257812 112.097656 C 104.660156 102.714844 117.679688 98.097656 130.664062 98.09375 C 145.535156 98.097656 160.335938 104.152344 171.078125 116.066406 L 172.050781 115.1875 " fill-opacity="1" fill-rule="nonzero"/><path fill="#2e2f2f" d="M 229.695312 277.25 L 171.691406 212.929688 L 186.578125 199.503906 L 244.578125 263.828125 L 229.695312 277.25 " fill-opacity="1" fill-rule="nonzero"/><path fill="#2e2f2f" d="M 229.695312 277.25 L 230.996094 276.078125 L 174.160156 213.054688 L 186.449219 201.972656 L 242.113281 263.699219 L 228.523438 275.953125 L 229.695312 277.25 L 230.996094 276.078125 L 229.695312 277.25 L 230.863281 278.550781 L 245.75 265.125 C 246.09375 264.816406 246.296875 264.382812 246.324219 263.917969 C 246.347656 263.453125 246.1875 263.007812 245.875 262.65625 L 187.875 198.332031 C 187.226562 197.621094 186.121094 197.5625 185.40625 198.207031 L 170.523438 211.632812 C 169.800781 212.277344 169.75 213.382812 170.394531 214.097656 L 228.398438 278.417969 C 228.703125 278.761719 229.144531 278.972656 229.605469 278.996094 C 230.066406 279.019531 230.523438 278.855469 230.863281 278.550781 L 229.695312 277.25 " fill-opacity="1" fill-rule="nonzero"/><path fill="#ffffff" d="M 203.003906 206.402344 C 213.1875 202.394531 218.167969 213.957031 208.742188 219.164062 C 202.398438 222.671875 186.027344 232.140625 177.742188 235.628906 C 169.457031 239.121094 159.351562 224.894531 171.097656 219.25 C 182.851562 213.605469 193.953125 209.96875 203.003906 206.402344 " fill-opacity="1" fill-rule="nonzero"/><path fill="#2e2f2f" d="M 203.003906 206.402344 L 203.484375 207.625 C 204.808594 207.101562 205.996094 206.886719 207.035156 206.886719 C 208.789062 206.890625 210.105469 207.492188 211.019531 208.390625 C 211.929688 209.292969 212.4375 210.523438 212.441406 211.859375 C 212.441406 212.882812 212.140625 213.972656 211.457031 215.035156 C 210.769531 216.101562 209.691406 217.140625 208.109375 218.019531 C 204.917969 219.78125 199.25 223.019531 193.339844 226.257812 C 187.4375 229.488281 181.277344 232.71875 177.234375 234.425781 C 176.511719 234.730469 175.785156 234.867188 175.050781 234.867188 C 174.078125 234.867188 173.09375 234.621094 172.152344 234.167969 C 170.746094 233.496094 169.445312 232.355469 168.523438 231.003906 C 167.601562 229.644531 167.0625 228.089844 167.066406 226.609375 C 167.070312 225.46875 167.371094 224.367188 168.074219 223.320312 C 168.777344 222.277344 169.914062 221.273438 171.664062 220.429688 C 183.324219 214.828125 194.382812 211.207031 203.484375 207.625 L 203.003906 206.402344 L 202.527344 205.1875 C 193.53125 208.730469 182.375 212.382812 170.53125 218.070312 C 168.445312 219.070312 166.910156 220.367188 165.902344 221.851562 C 164.894531 223.335938 164.441406 224.992188 164.445312 226.609375 C 164.453125 229.417969 165.75 232.089844 167.671875 234.09375 C 168.640625 235.097656 169.777344 235.9375 171.023438 236.535156 C 172.273438 237.132812 173.636719 237.484375 175.050781 237.484375 C 176.113281 237.484375 177.199219 237.28125 178.25 236.835938 C 182.488281 235.050781 188.660156 231.804688 194.597656 228.554688 C 200.53125 225.304688 206.21875 222.054688 209.375 220.3125 C 211.289062 219.253906 212.714844 217.921875 213.660156 216.460938 C 214.605469 214.996094 215.0625 213.398438 215.0625 211.859375 C 215.0625 209.847656 214.277344 207.929688 212.863281 206.53125 C 211.449219 205.125 209.40625 204.261719 207.035156 204.265625 C 205.632812 204.265625 204.117188 204.558594 202.527344 205.1875 L 203.003906 206.402344 " fill-opacity="1" fill-rule="nonzero"/><path fill="#ffffff" d="M 214.582031 219.296875 C 225.320312 215.089844 230.726562 227.59375 220.796875 233.105469 C 214.109375 236.816406 196.871094 246.84375 188.136719 250.511719 C 179.394531 254.183594 168.535156 238.75 180.921875 232.800781 C 193.3125 226.847656 205.039062 223.046875 214.582031 219.296875 " fill-opacity="1" fill-rule="nonzero"/><path fill="#2e2f2f" d="M 214.582031 219.296875 L 215.0625 220.519531 C 216.425781 219.984375 217.664062 219.757812 218.746094 219.757812 C 220.65625 219.761719 222.109375 220.4375 223.125 221.457031 C 224.144531 222.476562 224.710938 223.867188 224.714844 225.363281 C 224.710938 226.480469 224.394531 227.664062 223.675781 228.796875 C 222.953125 229.933594 221.820312 231.039062 220.15625 231.960938 C 216.800781 233.824219 210.828125 237.253906 204.605469 240.675781 C 198.382812 244.09375 191.898438 247.511719 187.628906 249.300781 C 186.878906 249.617188 186.125 249.761719 185.359375 249.761719 C 184.316406 249.761719 183.242188 249.488281 182.21875 248.984375 C 180.683594 248.238281 179.265625 246.96875 178.253906 245.460938 C 177.242188 243.957031 176.648438 242.226562 176.652344 240.585938 C 176.65625 239.347656 176.976562 238.160156 177.71875 237.042969 C 178.464844 235.925781 179.65625 234.867188 181.492188 233.980469 C 193.785156 228.070312 205.457031 224.285156 215.0625 220.519531 L 214.582031 219.296875 L 214.105469 218.082031 C 204.613281 221.804688 192.839844 225.621094 180.355469 231.621094 C 178.179688 232.660156 176.582031 234.023438 175.539062 235.585938 C 174.496094 237.140625 174.027344 238.886719 174.03125 240.585938 C 174.039062 243.609375 175.425781 246.496094 177.488281 248.679688 C 178.523438 249.773438 179.734375 250.6875 181.070312 251.339844 C 182.402344 251.992188 183.859375 252.378906 185.359375 252.378906 C 186.453125 252.378906 187.566406 252.171875 188.640625 251.71875 C 193.109375 249.839844 199.609375 246.414062 205.867188 242.972656 C 212.113281 239.535156 218.105469 236.097656 221.429688 234.25 C 223.425781 233.144531 224.90625 231.746094 225.886719 230.203125 C 226.867188 228.660156 227.335938 226.984375 227.335938 225.363281 C 227.335938 223.191406 226.496094 221.125 224.984375 219.605469 C 223.476562 218.082031 221.292969 217.136719 218.746094 217.140625 C 217.300781 217.140625 215.738281 217.4375 214.105469 218.082031 L 214.582031 219.296875 " fill-opacity="1" fill-rule="nonzero"/><path fill="#ffffff" d="M 227.941406 232.390625 C 238.023438 228.4375 243.101562 240.179688 233.773438 245.355469 C 227.496094 248.84375 211.304688 258.257812 203.101562 261.703125 C 194.894531 265.148438 184.695312 250.660156 196.332031 245.066406 C 207.960938 239.480469 218.976562 235.90625 227.941406 232.390625 " fill-opacity="1" fill-rule="nonzero"/><path fill="#2e2f2f" d="M 227.941406 232.390625 L 228.417969 233.609375 C 229.695312 233.113281 230.84375 232.902344 231.851562 232.902344 C 233.621094 232.90625 234.964844 233.53125 235.90625 234.46875 C 236.847656 235.414062 237.375 236.699219 237.375 238.082031 C 237.375 239.121094 237.082031 240.210938 236.410156 241.265625 C 235.738281 242.324219 234.6875 243.347656 233.136719 244.210938 C 229.984375 245.960938 224.375 249.183594 218.53125 252.394531 C 212.691406 255.609375 206.601562 258.816406 202.59375 260.496094 C 201.90625 260.785156 201.207031 260.917969 200.5 260.917969 C 199.53125 260.917969 198.539062 260.664062 197.585938 260.199219 C 196.15625 259.5 194.832031 258.316406 193.894531 256.914062 C 192.949219 255.507812 192.394531 253.902344 192.398438 252.378906 C 192.402344 251.234375 192.695312 250.132812 193.386719 249.09375 C 194.082031 248.0625 195.1875 247.074219 196.898438 246.253906 C 208.4375 240.703125 219.394531 237.148438 228.417969 233.609375 L 227.941406 232.390625 L 227.460938 231.171875 C 218.554688 234.667969 207.488281 238.253906 195.761719 243.886719 C 193.707031 244.875 192.199219 246.160156 191.207031 247.640625 C 190.21875 249.113281 189.773438 250.765625 189.777344 252.378906 C 189.785156 255.242188 191.097656 257.976562 193.046875 260.039062 C 194.027344 261.070312 195.171875 261.933594 196.433594 262.550781 C 197.695312 263.171875 199.074219 263.539062 200.5 263.539062 C 201.535156 263.539062 202.589844 263.339844 203.609375 262.910156 C 207.8125 261.148438 213.917969 257.921875 219.792969 254.695312 C 225.660156 251.464844 231.289062 248.234375 234.410156 246.5 C 236.292969 245.457031 237.695312 244.132812 238.621094 242.671875 C 239.550781 241.210938 239.996094 239.621094 239.996094 238.082031 C 239.996094 236.027344 239.199219 234.0625 237.765625 232.625 C 236.335938 231.179688 234.261719 230.277344 231.851562 230.28125 C 230.480469 230.28125 229.003906 230.566406 227.460938 231.171875 L 227.941406 232.390625 " fill-opacity="1" fill-rule="nonzero"/><path fill="#ffffff" d="M 237.636719 244.898438 C 245.941406 241.585938 249.695312 250.347656 241.96875 254.566406 C 236.769531 257.40625 223.339844 265.054688 216.578125 267.925781 C 209.808594 270.800781 201.980469 260.105469 211.59375 255.503906 C 221.203125 250.894531 230.25 247.84375 237.636719 244.898438 " fill-opacity="1" fill-rule="nonzero"/><path fill="#2e2f2f" d="M 237.636719 244.898438 L 238.121094 246.117188 C 239.261719 245.660156 240.261719 245.476562 241.109375 245.476562 C 242.398438 245.480469 243.3125 245.890625 243.925781 246.464844 C 244.539062 247.042969 244.867188 247.8125 244.871094 248.699219 C 244.871094 249.421875 244.644531 250.226562 244.089844 251.050781 C 243.539062 251.867188 242.652344 252.703125 241.339844 253.417969 C 238.722656 254.84375 234.074219 257.464844 229.234375 260.082031 C 224.398438 262.703125 219.355469 265.324219 216.0625 266.722656 C 215.445312 266.984375 214.832031 267.097656 214.214844 267.101562 C 212.765625 267.105469 211.289062 266.417969 210.191406 265.328125 C 209.085938 264.246094 208.414062 262.796875 208.417969 261.445312 C 208.421875 260.609375 208.648438 259.796875 209.214844 258.992188 C 209.78125 258.1875 210.707031 257.378906 212.160156 256.683594 C 221.6875 252.117188 230.683594 249.082031 238.121094 246.117188 L 237.636719 244.898438 L 237.148438 243.683594 C 229.816406 246.609375 220.722656 249.679688 211.03125 254.320312 C 209.257812 255.167969 207.941406 256.246094 207.070312 257.480469 C 206.199219 258.71875 205.796875 260.105469 205.796875 261.445312 C 205.804688 263.648438 206.824219 265.683594 208.347656 267.191406 C 209.871094 268.699219 211.949219 269.714844 214.214844 269.722656 C 215.164062 269.722656 216.140625 269.535156 217.085938 269.132812 C 220.554688 267.65625 225.609375 265.023438 230.484375 262.386719 C 235.34375 259.757812 240.007812 257.128906 242.597656 255.71875 C 244.21875 254.832031 245.441406 253.726562 246.261719 252.515625 C 247.078125 251.304688 247.492188 249.980469 247.492188 248.699219 C 247.496094 247.128906 246.863281 245.632812 245.726562 244.558594 C 244.589844 243.480469 242.96875 242.851562 241.109375 242.855469 C 239.882812 242.855469 238.554688 243.121094 237.148438 243.683594 L 237.636719 244.898438 " fill-opacity="1" fill-rule="nonzero"/></svg>