<svg xmlns="http://www.w3.org/2000/svg" xmlns:xlink="http://www.w3.org/1999/xlink" width="500" zoomAndPan="magnify" viewBox="0 0 375 374.999991" height="500" preserveAspectRatio="xMidYMid meet" version="1.0"><defs><filter x="0%" y="0%" width="100%" height="100%" id="ada81a9f9e"><feColorMatrix values="0 0 0 0 1 0 0 0 0 1 0 0 0 0 1 0 0 0 1 0" color-interpolation-filters="sRGB"/></filter><clipPath id="005ee303f0"><path d="M 37.5 75 L 269 75 L 269 337.296875 L 37.5 337.296875 Z M 37.5 75 " clip-rule="nonzero"/></clipPath><clipPath id="ab25d72d49"><path d="M 73 44.046875 L 300 44.046875 L 300 306 L 73 306 Z M 73 44.046875 " clip-rule="nonzero"/></clipPath><mask id="73367869bb"><g filter="url(#ada81a9f9e)"><rect x="-37.5" width="450" fill="#000000" y="-37.499999" height="449.999989" fill-opacity="0.4"/></g></mask><clipPath id="43d2cbe74c"><path d="M 1 0.398438 L 169 0.398438 L 169 119.921875 L 1 119.921875 Z M 1 0.398438 " clip-rule="nonzero"/></clipPath><clipPath id="1587ecc009"><rect x="0" width="170" y="0" height="120"/></clipPath><clipPath id="22cc31505f"><path d="M 269 170 L 337.5 170 L 337.5 239 L 269 239 Z M 269 170 " clip-rule="nonzero"/></clipPath><clipPath id="0642a5c702"><path d="M 73 44.046875 L 304 44.046875 L 304 282 L 73 282 Z M 73 44.046875 " clip-rule="nonzero"/></clipPath></defs><rect x="-37.5" width="450" fill="#ffffff" y="-37.499999" height="449.999989" fill-opacity="1"/><rect x="-37.5" width="450" fill="#ffffff" y="-37.499999" height="449.999989" fill-opacity="1"/><g clip-path="url(#005ee303f0)"><path fill="#ffffff" d="M 259.734375 124.953125 C 257.480469 124.953125 255.152344 124.082031 253.480469 122.335938 C 235.003906 103.582031 210.34375 93.257812 184.007812 93.257812 C 171.496094 93.257812 159.273438 95.585938 147.707031 100.238281 C 143.199219 102.054688 138.035156 99.875 136.214844 95.367188 C 134.394531 90.859375 136.578125 85.699219 141.089844 83.878906 C 154.691406 78.429688 169.09375 75.667969 183.933594 75.667969 C 214.996094 75.667969 244.09375 87.878906 265.917969 109.976562 C 269.339844 113.46875 269.265625 118.992188 265.847656 122.410156 C 264.246094 124.082031 261.992188 124.953125 259.734375 124.953125 Z M 239.730469 326.175781 C 244.242188 324.359375 246.351562 319.195312 244.53125 314.6875 C 242.714844 310.183594 237.546875 308.074219 233.039062 309.890625 C 217.472656 316.289062 201.03125 319.558594 184.007812 319.558594 C 112.9375 319.558594 55.105469 261.765625 55.105469 190.742188 C 55.105469 177.875 56.996094 165.15625 60.777344 152.941406 C 61.871094 149.453125 63.105469 145.960938 64.488281 142.546875 C 66.308594 138.039062 64.125 132.878906 59.613281 131.058594 C 55.105469 129.242188 49.9375 131.421875 48.121094 135.929688 C 46.59375 139.785156 45.136719 143.78125 43.902344 147.78125 C 39.683594 161.59375 37.5 176.058594 37.5 190.671875 C 37.5 271.433594 103.261719 337.078125 184.007812 337.078125 C 203.285156 337.078125 222.054688 333.445312 239.730469 326.175781 Z M 239.730469 326.175781 " fill-opacity="1" fill-rule="nonzero"/></g><path fill="#545454" d="M 296.542969 278.851562 C 294.796875 278.851562 292.980469 278.339844 291.453125 277.25 C 287.453125 274.414062 286.503906 268.964844 289.34375 264.964844 C 304.765625 243.15625 312.914062 217.496094 312.914062 190.671875 C 312.914062 143.492188 287.160156 100.09375 245.625 77.484375 C 241.332031 75.15625 239.804688 69.777344 242.132812 65.5625 C 244.460938 61.273438 249.84375 59.746094 254.0625 62.070312 C 301.199219 87.804688 330.515625 137.09375 330.515625 190.671875 C 330.515625 221.128906 321.277344 250.351562 303.671875 275.144531 C 302 277.542969 299.308594 278.851562 296.542969 278.851562 Z M 296.542969 278.851562 " fill-opacity="1" fill-rule="nonzero"/><g clip-path="url(#ab25d72d49)"><path fill="#545454" d="M 184.007812 305.746094 C 133.304688 305.746094 89.148438 273.253906 74.089844 224.910156 C 72.636719 220.257812 75.253906 215.3125 79.910156 213.859375 C 84.566406 212.40625 89.511719 215.023438 90.96875 219.675781 C 103.699219 260.605469 141.160156 288.15625 184.082031 288.15625 C 237.839844 288.15625 281.558594 244.464844 281.558594 190.742188 C 281.558594 182.164062 280.46875 173.585938 278.214844 165.371094 C 276.976562 160.648438 279.742188 155.847656 284.46875 154.539062 C 289.199219 153.304688 294 156.066406 295.308594 160.792969 C 297.925781 170.535156 299.234375 180.636719 299.234375 190.742188 C 299.164062 254.132812 247.515625 305.746094 184.007812 305.746094 Z M 90.023438 102.5625 C 114.683594 76.320312 148.070312 61.855469 184.007812 61.855469 C 188.882812 61.855469 192.808594 57.929688 192.808594 53.058594 C 192.808594 48.1875 188.882812 44.261719 184.007812 44.261719 C 143.707031 44.261719 104.789062 61.128906 77.144531 90.496094 C 73.800781 94.058594 74.019531 99.582031 77.507812 102.925781 C 79.183594 104.527344 81.363281 105.324219 83.546875 105.324219 C 85.949219 105.324219 88.277344 104.382812 90.023438 102.5625 Z M 90.023438 102.5625 " fill-opacity="1" fill-rule="nonzero"/></g><path fill="#545454" d="M 283.449219 274.996094 L 84.566406 274.996094 L 110.246094 226.945312 L 110.246094 138.984375 L 257.773438 138.984375 L 257.773438 226.945312 Z M 283.449219 274.996094 " fill-opacity="1" fill-rule="nonzero"/><path fill="#ffffff" d="M 117.226562 144.144531 L 250.859375 144.144531 L 250.859375 221.855469 L 117.226562 221.855469 Z M 117.226562 144.144531 " fill-opacity="1" fill-rule="nonzero"/><path fill="#545454" d="M 242.058594 155.558594 L 242.058594 175.695312 C 242.058594 177.511719 240.53125 179.039062 238.710938 179.039062 C 236.894531 179.039062 235.367188 177.511719 235.367188 175.695312 L 235.367188 163.699219 L 205.46875 193.578125 C 204.160156 194.886719 202.050781 194.886719 200.738281 193.578125 L 192.882812 185.726562 L 174.1875 204.410156 C 172.878906 205.71875 170.769531 205.71875 169.460938 204.410156 L 160.074219 195.03125 L 143.707031 211.316406 C 143.054688 211.96875 142.179688 212.332031 141.308594 212.332031 C 140.433594 212.332031 139.5625 211.96875 138.90625 211.316406 C 137.597656 210.007812 137.597656 207.898438 138.90625 206.589844 L 157.527344 187.980469 C 158.839844 186.671875 160.949219 186.671875 162.257812 187.980469 L 171.640625 197.359375 L 190.335938 178.675781 C 191.644531 177.367188 193.757812 177.367188 195.066406 178.675781 L 202.921875 186.527344 L 230.492188 158.976562 L 218.488281 158.976562 C 216.671875 158.976562 215.144531 157.449219 215.144531 155.632812 C 215.144531 153.8125 216.671875 152.289062 218.488281 152.289062 L 238.640625 152.289062 C 238.859375 152.289062 239.074219 152.289062 239.292969 152.359375 C 239.367188 152.359375 239.511719 152.433594 239.585938 152.433594 C 239.730469 152.433594 239.804688 152.503906 239.949219 152.503906 C 240.09375 152.578125 240.167969 152.652344 240.3125 152.652344 C 240.386719 152.722656 240.457031 152.722656 240.53125 152.796875 C 240.894531 153.015625 241.1875 153.378906 241.476562 153.742188 C 241.550781 153.8125 241.550781 153.886719 241.621094 154.03125 C 241.695312 154.105469 241.769531 154.25 241.769531 154.324219 C 241.839844 154.46875 241.839844 154.539062 241.839844 154.6875 C 241.839844 154.757812 241.914062 154.902344 241.914062 154.976562 C 242.058594 155.121094 242.058594 155.339844 242.058594 155.558594 Z M 150.472656 152.796875 L 120.429688 152.796875 L 120.429688 170.171875 L 150.472656 170.171875 Z M 150.472656 152.796875 " fill-opacity="1" fill-rule="nonzero"/><g mask="url(#73367869bb)"><g transform="matrix(1, 0, 0, 1, 99, 152)"><g clip-path="url(#1587ecc009)"><g clip-path="url(#43d2cbe74c)"><path fill="#ffffff" d="M 168.957031 105.1875 L 1.132812 105.1875 L 13.425781 80.46875 L 156.515625 80.46875 Z M 100.066406 107.148438 L 70.023438 107.148438 L 67.402344 119.726562 L 102.613281 119.726562 Z M 21.5 0.796875 L 36.488281 11.265625 L 51.472656 0.796875 Z M 21.5 0.796875 " fill-opacity="1" fill-rule="nonzero"/></g></g></g></g><path fill="#545454" d="M 148.726562 156.359375 L 146.109375 156.359375 L 146.109375 148.726562 L 148.726562 148.726562 Z M 148.726562 157.519531 L 146.109375 157.519531 L 146.109375 159.191406 L 148.726562 159.191406 Z M 148.726562 157.519531 " fill-opacity="1" fill-rule="nonzero"/><path fill="#545454" d="M 104.714844 150.6875 L 104.714844 176.640625 L 78.746094 176.640625 C 64.414062 176.640625 52.777344 165.007812 52.777344 150.6875 C 52.777344 136.367188 64.414062 124.734375 78.746094 124.734375 C 93.078125 124.664062 104.714844 136.292969 104.714844 150.6875 Z M 104.714844 150.6875 " fill-opacity="1" fill-rule="nonzero"/><g clip-path="url(#22cc31505f)"><path fill="#ffffff" d="M 269.410156 204.917969 L 269.410156 170.898438 L 303.457031 170.898438 C 322.222656 170.898438 337.5 186.089844 337.5 204.917969 C 337.5 223.746094 322.296875 238.941406 303.457031 238.941406 C 284.613281 238.941406 269.410156 223.675781 269.410156 204.917969 Z M 269.410156 204.917969 " fill-opacity="1" fill-rule="nonzero"/></g><path fill="#ffffff" d="M 78.308594 162.609375 L 113.882812 127.0625 C 115.191406 125.753906 115.191406 123.644531 113.882812 122.410156 C 112.574219 121.101562 110.464844 121.101562 109.226562 122.410156 L 75.980469 155.632812 L 68.199219 147.851562 C 66.890625 146.542969 64.78125 146.542969 63.542969 147.851562 C 62.234375 149.160156 62.234375 151.269531 63.542969 152.503906 L 73.652344 162.609375 C 74.308594 163.265625 75.109375 163.554688 75.980469 163.554688 C 76.855469 163.554688 77.65625 163.191406 78.308594 162.609375 Z M 78.308594 162.609375 " fill-opacity="1" fill-rule="nonzero"/><path fill="#545454" d="M 290.289062 211.898438 C 289.488281 211.097656 289.488281 209.863281 290.289062 209.136719 C 297.5625 201.867188 309.347656 201.867188 316.621094 209.136719 C 317.421875 209.933594 317.421875 211.171875 316.621094 211.898438 C 315.820312 212.695312 314.585938 212.695312 313.859375 211.898438 C 308.109375 206.15625 298.800781 206.15625 293.125 211.898438 C 292.253906 212.695312 291.015625 212.695312 290.289062 211.898438 Z M 286.941406 205.863281 C 296.035156 196.777344 310.800781 196.777344 319.894531 205.863281 C 320.695312 206.664062 321.933594 206.664062 322.660156 205.863281 C 323.460938 205.0625 323.460938 203.828125 322.660156 203.101562 C 312.039062 192.488281 294.726562 192.488281 284.105469 203.101562 C 283.304688 203.902344 283.304688 205.136719 284.105469 205.863281 C 284.90625 206.589844 286.214844 206.589844 286.941406 205.863281 Z M 280.6875 199.613281 C 293.199219 187.109375 313.566406 187.109375 326.078125 199.613281 C 326.878906 200.410156 328.117188 200.410156 328.84375 199.613281 C 329.644531 198.8125 329.644531 197.578125 328.84375 196.847656 C 314.804688 182.820312 291.890625 182.820312 277.847656 196.847656 C 277.050781 197.648438 277.050781 198.886719 277.847656 199.613281 C 278.648438 200.339844 279.957031 200.339844 280.6875 199.613281 Z M 306.074219 217.132812 C 304.621094 215.675781 302.21875 215.675781 300.765625 217.132812 C 299.308594 218.585938 299.308594 220.984375 300.765625 222.4375 C 302.21875 223.890625 304.621094 223.890625 306.074219 222.4375 C 307.601562 220.984375 307.601562 218.585938 306.074219 217.132812 Z M 306.074219 217.132812 " fill-opacity="1" fill-rule="nonzero"/><g clip-path="url(#0642a5c702)"><path fill="#ffffff" d="M 303.457031 272.308594 C 303.457031 277.179688 299.527344 281.105469 294.652344 281.105469 C 289.78125 281.105469 285.851562 277.179688 285.851562 272.308594 C 285.851562 267.4375 289.78125 263.511719 294.652344 263.511719 C 299.527344 263.511719 303.457031 267.4375 303.457031 272.308594 Z M 81.800781 211.605469 C 76.929688 211.605469 73 215.53125 73 220.402344 C 73 225.273438 76.929688 229.199219 81.800781 229.199219 C 86.675781 229.199219 90.605469 225.273438 90.605469 220.402344 C 90.605469 215.53125 86.675781 211.605469 81.800781 211.605469 Z M 187.425781 44.261719 C 182.554688 44.261719 178.625 48.1875 178.625 53.058594 C 178.625 57.929688 182.554688 61.855469 187.425781 61.855469 C 192.300781 61.855469 196.230469 57.929688 196.230469 53.058594 C 196.230469 48.1875 192.300781 44.261719 187.425781 44.261719 Z M 187.425781 44.261719 " fill-opacity="1" fill-rule="nonzero"/></g><path fill="#545454" d="M 246.351562 317.378906 C 246.351562 322.25 242.421875 326.175781 237.546875 326.175781 C 232.675781 326.175781 228.746094 322.25 228.746094 317.378906 C 228.746094 312.507812 232.675781 308.582031 237.546875 308.582031 C 242.421875 308.582031 246.351562 312.507812 246.351562 317.378906 Z M 143.34375 83.808594 C 138.46875 83.808594 134.542969 87.734375 134.542969 92.605469 C 134.542969 97.476562 138.46875 101.398438 143.34375 101.398438 C 148.21875 101.398438 152.144531 97.476562 152.144531 92.605469 C 152.144531 87.734375 148.21875 83.808594 143.34375 83.808594 Z M 143.34375 83.808594 " fill-opacity="1" fill-rule="nonzero"/><path fill="#545454" d="M 256.679688 68.6875 C 256.679688 73.558594 252.753906 77.484375 247.878906 77.484375 C 243.003906 77.484375 239.074219 73.558594 239.074219 68.6875 C 239.074219 63.816406 243.003906 59.890625 247.878906 59.890625 C 252.753906 59.890625 256.679688 63.816406 256.679688 68.6875 Z M 256.679688 68.6875 " fill-opacity="1" fill-rule="nonzero"/></svg>