<svg xmlns="http://www.w3.org/2000/svg" xmlns:xlink="http://www.w3.org/1999/xlink" width="500" zoomAndPan="magnify" viewBox="0 0 375 374.999991" height="500" preserveAspectRatio="xMidYMid meet" version="1.0"><defs><clipPath id="bdb99a880f"><path d="M 37.773438 49.3125 L 337.234375 49.3125 L 337.234375 326.0625 L 37.773438 326.0625 Z M 37.773438 49.3125 " clip-rule="nonzero"/></clipPath></defs><g clip-path="url(#bdb99a880f)"><path fill="#2e2f2f" d="M 330.167969 247.023438 C 330.167969 253.089844 326.71875 258.308594 321.8125 260.546875 C 320.101562 256.734375 316.308594 254.285156 312.132812 254.304688 L 307.027344 254.304688 L 307.027344 101.511719 L 316.445312 101.511719 C 324.007812 101.511719 330.167969 108.113281 330.167969 116.210938 Z M 315.601562 268.796875 L 315.601562 315.554688 C 315.53125 317.519531 313.890625 319.054688 311.925781 318.992188 L 234.859375 318.992188 L 207.890625 294.058594 C 205.34375 291.765625 205.132812 287.839844 207.425781 285.289062 C 207.539062 285.164062 207.65625 285.042969 207.777344 284.925781 L 209.679688 283.085938 C 212.335938 280.589844 216.453125 280.527344 219.1875 282.933594 L 242.214844 303.761719 L 242.214844 227.730469 C 242.214844 223.386719 245.929688 219.84375 250.492188 219.84375 C 255.054688 219.84375 258.765625 223.386719 258.765625 227.730469 L 258.765625 261.378906 L 258.910156 261.378906 L 258.910156 269.164062 C 258.910156 271.117188 260.492188 272.699219 262.445312 272.699219 C 264.394531 272.699219 265.976562 271.117188 265.976562 269.164062 L 265.976562 261.378906 L 277.679688 261.378906 L 277.679688 270.363281 C 277.679688 272.316406 279.257812 273.902344 281.210938 273.902344 C 283.160156 273.902344 284.742188 272.316406 284.742188 270.363281 L 284.742188 261.378906 L 296.445312 261.378906 L 296.445312 270.363281 C 296.445312 272.316406 298.027344 273.902344 299.976562 273.902344 C 301.925781 273.902344 303.507812 272.316406 303.507812 270.363281 L 303.507812 261.378906 L 312.132812 261.378906 C 312.667969 261.378906 313.195312 261.496094 313.675781 261.722656 C 314.828125 262.222656 315.582031 263.351562 315.601562 264.609375 Z M 224.324219 209 L 234.460938 182.59375 C 234.621094 182.1875 234.699219 181.757812 234.699219 181.324219 L 234.699219 171.265625 L 261.929688 171.265625 L 261.929688 174.917969 C 261.925781 178.707031 258.859375 181.773438 255.074219 181.78125 L 249.710938 181.78125 C 248.246094 181.78125 246.933594 182.679688 246.410156 184.046875 L 236.824219 209 Z M 127.992188 261.722656 L 104.632812 261.722656 L 104.632812 241.246094 L 112.808594 227.878906 C 116.210938 222.375 114.609375 215.160156 109.203125 211.609375 L 107.550781 210.480469 C 106.644531 209.863281 105.667969 209.363281 104.632812 208.996094 L 104.632812 101.511719 L 134.878906 101.511719 C 133.972656 104.460938 133.511719 107.527344 133.515625 110.609375 L 133.515625 118.617188 C 133.515625 118.625 133.515625 118.632812 133.515625 118.640625 L 133.515625 141.097656 C 133.519531 150.671875 138.464844 159.5625 146.589844 164.609375 L 145.359375 164.609375 C 132.753906 164.621094 122.535156 174.855469 122.519531 187.480469 L 122.519531 212.535156 C 122.519531 214.488281 124.101562 216.074219 126.054688 216.074219 L 239.253906 216.074219 C 240.714844 216.074219 242.027344 215.171875 242.550781 213.804688 L 252.136719 188.851562 L 255.078125 188.851562 C 262.761719 188.84375 268.988281 182.609375 268.996094 174.914062 L 268.996094 167.726562 C 268.996094 165.773438 267.414062 164.1875 265.464844 164.1875 L 231.167969 164.1875 C 229.214844 164.1875 227.632812 165.773438 227.632812 167.726562 L 227.632812 180.664062 L 222.710938 193.484375 L 222.710938 187.480469 C 222.695312 174.855469 212.476562 164.621094 199.871094 164.609375 L 196.847656 164.609375 C 204.972656 159.5625 209.921875 150.671875 209.925781 141.097656 L 209.925781 110.609375 C 209.929688 107.527344 209.46875 104.460938 208.558594 101.511719 L 215.644531 101.511719 L 215.644531 104.976562 C 215.65625 115.628906 224.28125 124.261719 234.921875 124.277344 L 238.789062 124.277344 L 238.789062 146.679688 L 262.730469 124.277344 L 287.753906 124.277344 C 292.207031 124.277344 296.523438 122.734375 299.960938 119.902344 L 299.960938 254.304688 L 265.832031 254.304688 L 265.832031 227.730469 C 265.832031 219.484375 258.949219 212.765625 250.492188 212.765625 C 242.039062 212.765625 235.152344 219.484375 235.152344 227.730469 L 235.152344 261.722656 Z M 190.941406 190.339844 L 190.941406 209 L 153.945312 209 L 153.945312 190.339844 L 146.882812 190.339844 L 146.882812 209 L 129.585938 209 L 129.585938 187.480469 C 129.59375 178.757812 136.652344 171.691406 145.359375 171.683594 L 199.871094 171.683594 C 208.578125 171.691406 215.636719 178.761719 215.644531 187.480469 L 215.644531 209 L 198.007812 209 L 198.007812 190.339844 Z M 140.578125 121.152344 L 149.769531 117.933594 L 156.015625 117.933594 C 157.132812 117.925781 158.183594 117.394531 158.855469 116.5 L 162.929688 110.976562 L 164.042969 109.46875 L 170.875 116.808594 C 171.542969 117.527344 172.476562 117.933594 173.457031 117.933594 L 190.925781 117.933594 L 202.863281 120.59375 L 202.863281 141.097656 C 202.847656 152.472656 193.644531 161.6875 182.285156 161.703125 L 161.15625 161.703125 C 149.796875 161.6875 140.589844 152.472656 140.578125 141.097656 Z M 140.578125 110.609375 C 140.574219 107.488281 141.1875 104.398438 142.386719 101.511719 C 146.066406 92.605469 154.738281 86.792969 164.367188 86.792969 L 179.070312 86.792969 C 192.203125 86.792969 202.855469 97.457031 202.863281 110.609375 L 202.863281 113.347656 L 192.078125 110.941406 C 191.828125 110.886719 191.570312 110.859375 191.308594 110.859375 L 174.992188 110.859375 L 168.871094 104.28125 L 166.3125 101.53125 L 166.292969 101.511719 C 166.289062 101.507812 166.285156 101.503906 166.277344 101.496094 C 165.636719 100.828125 164.761719 100.441406 163.835938 100.414062 C 163.734375 100.40625 163.628906 100.40625 163.527344 100.414062 L 163.507812 100.414062 C 163.308594 100.425781 163.113281 100.457031 162.917969 100.503906 C 162.890625 100.507812 162.859375 100.515625 162.832031 100.523438 C 162.640625 100.574219 162.453125 100.640625 162.273438 100.722656 L 162.203125 100.757812 C 162.015625 100.84375 161.835938 100.949219 161.667969 101.070312 L 161.664062 101.074219 C 161.367188 101.289062 161.105469 101.546875 160.886719 101.839844 L 154.234375 110.859375 L 149.167969 110.859375 C 149.066406 110.859375 148.964844 110.875 148.863281 110.882812 C 148.570312 110.90625 148.28125 110.964844 148.003906 111.058594 L 140.578125 113.65625 Z M 222.710938 101.511719 L 222.710938 68.613281 C 222.71875 61.863281 228.179688 56.394531 234.921875 56.386719 L 287.753906 56.386719 C 294.492188 56.398438 299.953125 61.863281 299.960938 68.613281 L 299.960938 104.976562 C 299.953125 111.722656 294.492188 117.191406 287.753906 117.203125 L 259.945312 117.203125 L 245.855469 130.382812 L 245.855469 117.203125 L 234.921875 117.203125 C 228.179688 117.195312 222.71875 111.726562 222.710938 104.976562 Z M 97.527344 261.722656 L 92.109375 261.722656 L 97.527344 252.867188 Z M 97.527344 156.328125 L 97.527344 208.464844 C 94.214844 209.097656 91.292969 211.027344 89.402344 213.820312 L 74.390625 236.171875 L 74.390625 116.210938 C 74.390625 108.113281 80.546875 101.511719 88.113281 101.511719 L 97.527344 101.511719 Z M 316.445312 94.4375 L 307.027344 94.4375 L 307.027344 68.613281 C 307.015625 57.957031 298.394531 49.324219 287.753906 49.3125 L 234.921875 49.3125 C 224.28125 49.324219 215.65625 57.957031 215.644531 68.613281 L 215.644531 94.4375 L 205.34375 94.4375 C 199.734375 85.296875 189.785156 79.722656 179.070312 79.71875 L 164.367188 79.71875 C 153.648438 79.722656 143.703125 85.296875 138.09375 94.4375 L 88.113281 94.4375 C 76.652344 94.4375 67.324219 104.207031 67.324219 116.210938 L 67.324219 188.523438 L 41.386719 224.21875 C 39.042969 227.464844 37.777344 231.367188 37.773438 235.371094 L 37.773438 315.394531 L 44.835938 315.394531 L 44.835938 235.371094 C 44.84375 232.863281 45.632812 230.414062 47.097656 228.378906 L 67.324219 200.550781 L 67.324219 240.257812 C 63.714844 240.957031 59.546875 242.183594 57.085938 244.339844 L 61.734375 249.667969 C 62.753906 248.78125 64.917969 248.042969 67.328125 247.5 C 69.632812 246.984375 71.964844 246.644531 74.316406 246.480469 L 74.390625 246.476562 L 76.054688 246.367188 L 95.265625 217.773438 C 95.828125 216.9375 96.613281 216.273438 97.527344 215.851562 C 97.542969 215.847656 97.558594 215.835938 97.570312 215.828125 C 98.015625 215.625 98.484375 215.476562 98.964844 215.386719 C 100.5625 215.074219 102.214844 215.410156 103.5625 216.316406 L 104.59375 217.027344 L 104.632812 217.046875 L 105.21875 217.449219 C 107.476562 218.898438 108.171875 221.882812 106.785156 224.179688 L 104.632812 227.695312 L 104.59375 227.761719 L 97.570312 239.253906 L 97.527344 239.316406 L 84.203125 261.109375 L 80.441406 267.257812 L 78.210938 270.90625 L 77.980469 271.285156 L 77.84375 271.703125 C 77.808594 271.828125 73.964844 284.035156 68.328125 290.222656 L 62.082031 297.074219 L 67.304688 301.84375 L 73.550781 294.992188 C 79.660156 288.285156 83.664062 276.671875 84.457031 274.242188 L 87.789062 268.789062 C 87.894531 268.796875 88.007812 268.796875 88.113281 268.796875 L 121.253906 268.796875 C 121.304688 277.238281 119.699219 284.867188 115.203125 289.695312 C 108.765625 296.605469 103.882812 303.035156 103.679688 303.304688 L 102.960938 304.253906 L 102.960938 315.394531 L 110.027344 315.394531 L 110.027344 306.652344 C 111.59375 304.644531 115.578125 299.667969 120.371094 294.519531 C 126.339844 288.117188 128.363281 278.695312 128.332031 268.796875 L 235.152344 268.796875 L 235.152344 287.839844 L 223.921875 277.679688 C 218.4375 272.75 210.082031 272.886719 204.769531 278 L 202.867188 279.839844 C 197.570312 284.90625 197.382812 293.3125 202.441406 298.613281 C 202.652344 298.835938 202.871094 299.046875 203.097656 299.253906 L 232.101562 326.070312 L 311.925781 326.070312 C 317.789062 326.128906 322.59375 321.425781 322.667969 315.554688 L 322.667969 267.800781 C 331.097656 265.019531 337.234375 256.761719 337.234375 247.023438 L 337.234375 116.210938 C 337.234375 104.207031 327.90625 94.4375 316.445312 94.4375 " fill-opacity="1" fill-rule="nonzero"/></g><path fill="#2e2f2f" d="M 158.152344 139.496094 C 160.859375 139.496094 163.050781 137.300781 163.050781 134.589844 C 163.050781 131.882812 160.859375 129.683594 158.152344 129.683594 C 155.445312 129.683594 153.25 131.882812 153.25 134.589844 C 153.25 134.59375 153.25 134.59375 153.25 134.59375 C 153.25 137.300781 155.445312 139.496094 158.152344 139.496094 " fill-opacity="1" fill-rule="nonzero"/><path fill="#2e2f2f" d="M 184.535156 139.496094 C 187.242188 139.496094 189.4375 137.300781 189.4375 134.59375 C 189.4375 131.882812 187.242188 129.683594 184.535156 129.683594 C 181.832031 129.683594 179.632812 131.878906 179.632812 134.589844 C 179.632812 134.589844 179.632812 134.59375 179.632812 134.59375 C 179.632812 137.300781 181.828125 139.496094 184.535156 139.496094 " fill-opacity="1" fill-rule="nonzero"/><path fill="#2e2f2f" d="M 160.96875 153.757812 C 162.984375 156.253906 166.859375 157.746094 171.34375 157.746094 C 175.253906 157.746094 178.738281 156.605469 180.910156 154.621094 C 182.332031 153.28125 182.394531 151.039062 181.054688 149.621094 C 179.746094 148.226562 177.570312 148.128906 176.140625 149.402344 C 175.472656 150.011719 173.6875 150.671875 171.34375 150.671875 C 168.515625 150.671875 166.8125 149.742188 166.46875 149.316406 C 165.253906 147.785156 163.03125 147.53125 161.503906 148.746094 C 159.976562 149.964844 159.722656 152.1875 160.9375 153.71875 C 160.949219 153.734375 160.960938 153.746094 160.96875 153.761719 L 160.96875 153.757812 " fill-opacity="1" fill-rule="nonzero"/><path fill="#2e2f2f" d="M 259.558594 74.582031 L 285.59375 74.582031 L 285.59375 81.65625 L 259.558594 81.65625 L 259.558594 74.582031 " fill-opacity="1" fill-rule="nonzero"/><path fill="#2e2f2f" d="M 236.777344 74.582031 L 246 74.582031 L 246 81.65625 L 236.777344 81.65625 L 236.777344 74.582031 " fill-opacity="1" fill-rule="nonzero"/><path fill="#2e2f2f" d="M 235.699219 92.535156 L 286.734375 92.535156 L 286.734375 99.609375 L 235.699219 99.609375 L 235.699219 92.535156 " fill-opacity="1" fill-rule="nonzero"/></svg>