<svg xmlns="http://www.w3.org/2000/svg" xmlns:xlink="http://www.w3.org/1999/xlink" width="500" zoomAndPan="magnify" viewBox="0 0 375 374.999991" height="500" preserveAspectRatio="xMidYMid meet" version="1.0"><defs><clipPath id="0fb51f6e19"><path d="M 84 37.5 L 224 37.5 L 224 203 L 84 203 Z M 84 37.5 " clip-rule="nonzero"/></clipPath><clipPath id="6a30ee1b71"><path d="M 38 197 L 337.5 197 L 337.5 337.5 L 38 337.5 Z M 38 197 " clip-rule="nonzero"/></clipPath></defs><rect x="-37.5" width="450" fill="#ffffff" y="-37.499999" height="449.999989" fill-opacity="1"/><rect x="-37.5" width="450" fill="#ffffff" y="-37.499999" height="449.999989" fill-opacity="1"/><rect x="-37.5" width="450" fill="#ffffff" y="-37.499999" height="449.999989" fill-opacity="1"/><path fill="#545454" d="M 302.667969 309.144531 C 302.667969 309.445312 302.640625 309.738281 302.582031 310.03125 C 302.523438 310.324219 302.4375 310.609375 302.324219 310.886719 C 302.207031 311.164062 302.066406 311.425781 301.902344 311.671875 C 301.734375 311.921875 301.546875 312.152344 301.335938 312.363281 C 301.125 312.574219 300.894531 312.761719 300.648438 312.929688 C 300.398438 313.09375 300.136719 313.234375 299.859375 313.347656 C 299.582031 313.464844 299.300781 313.550781 299.007812 313.609375 C 298.714844 313.667969 298.417969 313.695312 298.117188 313.695312 C 297.820312 313.695312 297.523438 313.667969 297.230469 313.609375 C 296.9375 313.550781 296.652344 313.464844 296.375 313.347656 C 296.101562 313.234375 295.839844 313.09375 295.589844 312.929688 C 295.339844 312.761719 295.113281 312.574219 294.902344 312.363281 C 294.6875 312.152344 294.5 311.921875 294.335938 311.671875 C 294.167969 311.425781 294.027344 311.164062 293.914062 310.886719 C 293.800781 310.609375 293.714844 310.324219 293.65625 310.03125 C 293.597656 309.738281 293.566406 309.445312 293.566406 309.144531 C 293.566406 308.847656 293.597656 308.550781 293.65625 308.257812 C 293.714844 307.964844 293.800781 307.679688 293.914062 307.402344 C 294.027344 307.128906 294.167969 306.867188 294.335938 306.617188 C 294.5 306.367188 294.6875 306.136719 294.902344 305.925781 C 295.113281 305.714844 295.339844 305.527344 295.589844 305.363281 C 295.839844 305.195312 296.101562 305.054688 296.375 304.941406 C 296.652344 304.828125 296.9375 304.742188 297.230469 304.683594 C 297.523438 304.625 297.820312 304.59375 298.117188 304.59375 C 298.417969 304.59375 298.714844 304.625 299.007812 304.683594 C 299.300781 304.742188 299.582031 304.828125 299.859375 304.941406 C 300.136719 305.054688 300.398438 305.195312 300.648438 305.363281 C 300.894531 305.527344 301.125 305.714844 301.335938 305.925781 C 301.546875 306.136719 301.734375 306.367188 301.902344 306.617188 C 302.066406 306.867188 302.207031 307.128906 302.324219 307.402344 C 302.4375 307.679688 302.523438 307.964844 302.582031 308.257812 C 302.640625 308.550781 302.667969 308.847656 302.667969 309.144531 Z M 302.667969 309.144531 " fill-opacity="1" fill-rule="nonzero"/><path fill="#545454" d="M 158.796875 169.472656 C 161.59375 169.121094 164.046875 166.671875 164.046875 163.519531 L 164.046875 156.519531 C 164.046875 155.46875 162.644531 153.371094 160.546875 152.320312 L 159.144531 151.617188 Z M 158.796875 169.472656 " fill-opacity="1" fill-rule="nonzero"/><g clip-path="url(#0fb51f6e19)"><path fill="#545454" d="M 123.089844 202.378906 L 184.699219 202.378906 C 185.75 202.378906 204.652344 202.378906 215.855469 189.425781 C 222.15625 182.074219 224.957031 172.273438 223.207031 160.371094 C 218.65625 122.914062 185.050781 92.109375 173.496094 84.40625 C 173.496094 84.40625 190.300781 64.453125 190.652344 64.105469 C 192.75 58.855469 190.300781 52.902344 185.050781 50.800781 L 178.046875 48 C 177.699219 42.050781 172.796875 37.5 166.847656 37.5 L 141.292969 37.5 C 135.339844 37.5 130.441406 42.050781 130.089844 48 L 123.089844 50.800781 C 117.839844 52.902344 115.386719 58.855469 117.488281 64.105469 C 117.839844 64.453125 134.640625 84.40625 134.640625 84.40625 C 122.738281 92.460938 89.132812 123.265625 84.582031 160.71875 C 83.183594 172.621094 85.632812 182.425781 91.933594 189.773438 C 103.484375 202.378906 122.039062 202.378906 123.089844 202.378906 Z M 172.796875 129.566406 C 172.796875 132.015625 170.695312 133.765625 168.597656 133.765625 C 166.496094 133.765625 164.394531 131.664062 164.394531 129.566406 L 164.394531 126.414062 C 164.394531 123.613281 162.296875 120.8125 159.144531 120.464844 L 159.144531 142.167969 L 165.097656 144.617188 C 169.648438 146.367188 172.796875 151.269531 173.148438 156.519531 L 173.148438 163.519531 C 173.148438 171.222656 166.847656 177.875 159.144531 178.222656 L 159.144531 183.472656 C 159.144531 185.925781 157.046875 187.675781 154.945312 187.675781 C 152.84375 187.675781 150.742188 185.574219 150.742188 183.472656 L 150.742188 178.222656 L 150.394531 178.222656 C 142.34375 178.222656 135.691406 171.574219 135.691406 163.519531 L 135.691406 160.371094 C 135.691406 157.921875 137.792969 156.167969 139.890625 156.167969 C 142.34375 156.167969 144.09375 158.269531 144.09375 160.371094 L 144.09375 163.519531 C 144.09375 166.671875 146.894531 169.472656 150.042969 169.472656 L 150.394531 169.472656 L 150.394531 148.117188 L 143.042969 145.316406 C 136.390625 142.515625 134.992188 136.566406 134.992188 133.414062 L 134.992188 126.414062 C 134.992188 118.363281 141.640625 111.710938 149.695312 111.710938 C 149.695312 111.710938 150.394531 111.710938 150.394531 111.710938 L 150.394531 106.8125 C 150.394531 104.359375 152.496094 102.609375 154.59375 102.609375 C 156.695312 102.609375 158.796875 104.710938 158.796875 106.8125 L 158.796875 111.710938 C 166.496094 112.0625 172.796875 118.363281 172.796875 126.414062 Z M 126.238281 59.203125 L 133.242188 56.402344 L 138.492188 66.203125 C 139.191406 67.605469 140.59375 68.65625 142.34375 68.65625 C 144.792969 68.65625 146.894531 66.554688 146.542969 64.105469 C 146.542969 63.40625 146.191406 62.703125 146.191406 62.003906 C 146.191406 62.003906 138.84375 48.351562 138.492188 48 C 138.84375 46.953125 139.890625 46.25 140.941406 46.25 L 166.496094 46.25 C 167.546875 46.25 168.597656 46.953125 168.945312 48 L 161.59375 61.652344 C 160.546875 63.753906 161.246094 66.554688 163.347656 67.605469 C 164.046875 67.953125 164.746094 67.953125 165.445312 67.953125 C 167.195312 67.953125 168.597656 66.90625 169.296875 65.503906 L 174.546875 55.703125 L 181.199219 58.503906 C 181.898438 58.855469 182.25 59.203125 182.25 59.902344 L 164.046875 80.90625 C 157.046875 80.207031 150.042969 80.207031 143.042969 80.90625 L 124.839844 59.902344 C 125.191406 59.902344 125.539062 59.554688 126.238281 59.203125 Z M 126.238281 59.203125 " fill-opacity="1" fill-rule="nonzero"/></g><path fill="#545454" d="M 143.742188 126.414062 L 143.742188 133.414062 C 143.742188 134.464844 144.792969 136.917969 147.242188 137.617188 L 150.042969 138.667969 L 150.042969 120.464844 L 149.695312 120.464844 C 146.542969 120.464844 143.742188 123.265625 143.742188 126.414062 Z M 143.742188 126.414062 " fill-opacity="1" fill-rule="nonzero"/><g clip-path="url(#6a30ee1b71)"><path fill="#545454" d="M 333.824219 329.097656 L 278.515625 329.097656 L 278.515625 232.484375 L 324.722656 232.484375 C 327.171875 232.484375 328.921875 230.382812 328.921875 228.28125 C 328.921875 226.179688 327.171875 223.730469 324.722656 223.730469 L 278.515625 223.730469 L 278.515625 209.730469 C 278.515625 207.277344 276.414062 205.527344 274.316406 205.527344 C 272.214844 205.527344 270.113281 207.628906 270.113281 209.730469 L 270.113281 223.730469 L 245.257812 223.730469 C 242.808594 223.730469 241.058594 225.832031 241.058594 227.933594 L 241.058594 240.535156 L 233.007812 240.535156 L 207.453125 218.128906 C 206.753906 217.429688 205.703125 217.078125 204.652344 217.078125 L 134.292969 217.078125 C 132.191406 217.078125 130.089844 218.480469 130.089844 220.929688 L 129.742188 223.730469 C 129.742188 230.03125 131.839844 235.984375 135.691406 240.882812 L 130.789062 240.882812 L 113.289062 213.578125 C 107.6875 202.726562 95.433594 193.976562 82.832031 198.175781 C 76.179688 200.277344 75.832031 200.628906 75.832031 200.628906 C 74.78125 200.976562 73.730469 202.027344 73.382812 203.078125 C 73.03125 204.128906 73.03125 205.527344 73.730469 206.578125 L 75.132812 209.027344 C 65.328125 203.777344 53.078125 203.078125 44.675781 211.128906 C 39.425781 216.378906 39.074219 216.730469 39.074219 216.730469 C 37.675781 218.480469 37.675781 221.28125 39.773438 223.03125 C 39.773438 223.03125 102.4375 266.4375 102.4375 266.4375 C 102.785156 266.789062 201.152344 303.195312 201.152344 303.195312 C 201.152344 303.195312 229.507812 303.542969 240.359375 303.542969 L 240.359375 310.546875 C 240.359375 312.996094 242.460938 314.746094 244.558594 314.746094 L 269.414062 314.746094 L 269.414062 333.300781 C 269.414062 335.75 271.515625 337.5 273.613281 337.5 L 333.125 337.5 C 335.574219 337.5 337.324219 335.398438 337.324219 333.300781 C 337.324219 331.199219 335.925781 329.097656 333.824219 329.097656 Z M 85.28125 206.578125 C 92.984375 204.128906 101.386719 210.429688 105.234375 218.128906 L 114.6875 232.832031 L 89.132812 218.128906 L 83.183594 207.277344 Z M 240.359375 294.441406 L 203.601562 294.441406 L 106.988281 258.738281 L 49.226562 218.832031 L 50.628906 217.429688 C 56.578125 211.480469 66.730469 213.578125 73.730469 218.480469 L 125.890625 248.585938 C 126.589844 248.933594 127.289062 249.285156 127.988281 249.285156 L 190.652344 249.285156 C 193.101562 249.285156 194.851562 247.183594 194.851562 245.085938 C 194.851562 242.984375 192.75 240.882812 190.652344 240.882812 L 150.742188 240.882812 C 144.09375 239.832031 139.191406 232.484375 138.492188 225.832031 L 202.203125 225.832031 L 228.105469 248.234375 C 228.808594 248.933594 229.855469 249.285156 230.90625 249.285156 L 240.707031 249.285156 Z M 240.359375 294.441406 " fill-opacity="1" fill-rule="nonzero"/></g></svg>