<svg xmlns="http://www.w3.org/2000/svg" xmlns:xlink="http://www.w3.org/1999/xlink" width="500" zoomAndPan="magnify" viewBox="0 0 375 374.999991" height="500" preserveAspectRatio="xMidYMid meet" version="1.0"><defs><clipPath id="41f0c4ec5a"><path d="M 37.5 45.410156 L 337.5 45.410156 L 337.5 329.660156 L 37.5 329.660156 Z M 37.5 45.410156 " clip-rule="nonzero"/></clipPath></defs><g clip-path="url(#41f0c4ec5a)"><path fill="#2e2f2f" d="M 314.300781 261.300781 C 299.992188 246.984375 280.238281 238.097656 258.515625 238.097656 L 231.203125 238.097656 C 231.210938 237.738281 231.234375 237.375 231.234375 237.015625 L 231.234375 223.902344 C 232.417969 222.875 233.566406 221.800781 234.675781 220.691406 C 238.050781 217.316406 241.074219 213.574219 243.675781 209.542969 C 257.347656 207.976562 268.027344 203.207031 270.757812 190.503906 C 275.101562 189.648438 278.984375 187.503906 282 184.488281 C 285.96875 180.519531 288.433594 175.035156 288.433594 169.011719 L 288.433594 144.726562 C 288.433594 138.695312 285.96875 133.21875 282 129.253906 L 281.691406 128.96875 C 279.074219 126.445312 275.84375 124.578125 272.257812 123.589844 C 272.265625 123.5 272.273438 123.414062 272.273438 123.324219 C 272.273438 101.863281 262.933594 82.375 247.890625 68.253906 C 232.914062 54.203125 212.296875 45.488281 189.636719 45.488281 L 185.371094 45.488281 C 162.710938 45.488281 142.09375 54.203125 127.125 68.253906 C 112.078125 82.375 102.742188 101.863281 102.742188 123.324219 C 102.742188 123.414062 102.75 123.5 102.757812 123.589844 C 99.046875 124.609375 95.707031 126.582031 93.039062 129.246094 L 93.015625 129.265625 C 89.046875 133.242188 86.578125 138.71875 86.578125 144.726562 L 86.578125 169.011719 C 86.578125 174.878906 88.925781 180.226562 92.730469 184.179688 L 93.015625 184.488281 C 96.984375 188.457031 102.457031 190.925781 108.488281 190.925781 C 113.558594 190.925781 118.230469 189.175781 121.949219 186.265625 C 124.546875 199.550781 131.101562 211.464844 140.332031 220.699219 C 142.066406 222.433594 143.886719 224.0625 145.800781 225.597656 L 145.800781 237.03125 C 145.800781 237.390625 145.816406 237.75 145.828125 238.113281 L 116.488281 238.113281 C 94.761719 238.113281 75.015625 247 60.703125 261.316406 C 46.386719 275.613281 37.5 295.375 37.5 317.097656 L 37.5 324.734375 C 37.5 327.40625 39.667969 329.574219 42.335938 329.574219 L 332.664062 329.574219 C 335.332031 329.574219 337.5 327.40625 337.5 324.734375 L 337.5 317.097656 C 337.5 295.375 328.613281 275.613281 314.300781 261.300781 Z M 249.398438 198.507812 C 250.988281 194.59375 252.226562 190.488281 253.050781 186.25 C 255.277344 188 257.859375 189.328125 260.65625 190.105469 C 258.816406 194.375 254.789062 196.972656 249.398438 198.507812 Z M 275.144531 136.085938 C 277.363281 138.308594 278.746094 141.359375 278.746094 144.722656 L 278.746094 169.003906 C 278.746094 172.367188 277.363281 175.425781 275.144531 177.640625 C 272.925781 179.859375 269.863281 181.238281 266.503906 181.238281 C 263.144531 181.238281 260.085938 179.859375 257.871094 177.640625 L 257.851562 177.640625 C 255.644531 175.433594 254.273438 172.371094 254.273438 169.003906 L 254.273438 144.722656 C 254.273438 141.34375 255.644531 138.292969 257.851562 136.085938 L 257.871094 136.0625 C 260.078125 133.859375 263.136719 132.484375 266.511719 132.484375 C 269.773438 132.484375 272.753906 133.769531 274.933594 135.855469 Z M 133.734375 75.285156 C 146.960938 62.867188 165.234375 55.164062 185.363281 55.164062 L 189.628906 55.164062 C 209.753906 55.164062 228.03125 62.867188 241.261719 75.285156 C 254.378906 87.59375 262.539062 104.546875 262.574219 123.175781 C 259.425781 123.753906 256.507812 125.011719 253.972656 126.800781 C 252.472656 110.925781 245.363281 96.617188 234.660156 85.914062 C 222.5625 73.8125 205.859375 66.296875 187.492188 66.296875 C 169.125 66.296875 152.421875 73.8125 140.324219 85.914062 C 129.621094 96.617188 122.511719 110.925781 121.011719 126.800781 C 118.476562 125.011719 115.558594 123.753906 112.410156 123.175781 C 112.460938 104.546875 120.613281 87.59375 133.734375 75.285156 Z M 244.164062 126.140625 C 232.761719 126.09375 221.8125 124.632812 211.335938 121.765625 C 199.335938 118.480469 187.882812 113.316406 176.992188 106.289062 C 175.125 105.089844 172.597656 105.304688 170.96875 106.949219 C 166.148438 111.78125 159.960938 115.808594 152.398438 119.027344 C 146.175781 121.675781 139.011719 123.761719 130.949219 125.304688 C 132.691406 112.695312 138.570312 101.359375 147.179688 92.75 C 157.53125 82.394531 171.808594 75.964844 187.507812 75.964844 C 203.203125 75.964844 217.484375 82.394531 227.835938 92.75 C 236.625 101.546875 242.574219 113.199219 244.164062 126.140625 Z M 108.488281 181.238281 C 105.128906 181.238281 102.066406 179.859375 99.855469 177.640625 L 99.628906 177.429688 C 97.546875 175.238281 96.261719 172.269531 96.261719 169.003906 L 96.261719 144.722656 C 96.261719 141.34375 97.636719 138.292969 99.839844 136.085938 L 99.863281 136.0625 C 102.066406 133.859375 105.128906 132.484375 108.503906 132.484375 C 111.878906 132.484375 114.929688 133.859375 117.136719 136.0625 L 117.136719 136.085938 C 119.355469 138.308594 120.734375 141.359375 120.734375 144.722656 L 120.734375 169.003906 C 120.734375 172.367188 119.355469 175.425781 117.136719 177.640625 C 114.90625 179.859375 111.847656 181.238281 108.488281 181.238281 Z M 130.394531 173.511719 L 130.394531 135.238281 C 140.09375 133.535156 148.6875 131.097656 156.164062 127.910156 C 163.484375 124.796875 169.746094 120.957031 174.960938 116.410156 C 185.691406 122.9375 196.972656 127.828125 208.800781 131.058594 C 220.261719 134.195312 232.191406 135.769531 244.605469 135.777344 L 244.605469 173.503906 C 244.605469 183.175781 242.160156 192.296875 237.878906 200.300781 C 230.445312 200.796875 222.007812 200.488281 213.703125 200.175781 L 212.011719 200.113281 C 211.253906 197.632812 209.917969 195.402344 208.164062 193.601562 C 205.320312 190.691406 201.390625 188.882812 197.070312 188.882812 C 192.75 188.882812 188.820312 190.683594 185.976562 193.601562 C 183.171875 196.476562 181.433594 200.4375 181.433594 204.796875 C 181.433594 209.15625 183.171875 213.117188 185.976562 215.988281 C 188.820312 218.898438 192.75 220.707031 197.070312 220.707031 C 201.390625 220.707031 205.320312 218.90625 208.164062 215.988281 C 209.851562 214.253906 211.140625 212.132812 211.914062 209.769531 L 213.367188 209.820312 C 219.335938 210.046875 225.359375 210.273438 231.148438 210.226562 C 230.09375 211.480469 228.988281 212.695312 227.835938 213.859375 C 217.484375 224.210938 203.203125 230.640625 187.507812 230.640625 C 177.976562 230.640625 168.976562 228.261719 161.054688 224.082031 C 158.429688 222.65625 155.933594 221.023438 153.59375 219.207031 C 153.277344 218.96875 152.941406 218.773438 152.59375 218.613281 C 150.699219 217.136719 148.882812 215.554688 147.179688 213.859375 C 136.824219 203.496094 130.394531 189.214844 130.394531 173.511719 Z M 203.023438 204.796875 C 203.023438 206.550781 202.34375 208.132812 201.238281 209.257812 C 200.175781 210.355469 198.691406 211.03125 197.054688 211.03125 C 195.421875 211.03125 193.933594 210.355469 192.871094 209.257812 C 191.765625 208.132812 191.085938 206.550781 191.085938 204.796875 C 191.085938 203.039062 191.765625 201.457031 192.871094 200.332031 C 193.933594 199.238281 195.421875 198.5625 197.054688 198.5625 C 198.691406 198.5625 200.175781 199.238281 201.238281 200.332031 C 202.34375 201.457031 203.023438 203.039062 203.023438 204.796875 Z M 160.148438 234.414062 C 162.113281 235.320312 164.121094 236.144531 166.183594 236.851562 C 172.335938 238.96875 178.90625 240.152344 185.714844 240.28125 C 185.78125 240.28125 185.851562 240.28125 185.917969 240.289062 C 186.238281 240.292969 186.554688 240.308594 186.878906 240.308594 L 190.132812 240.308594 C 197.355469 240.308594 204.324219 239.09375 210.832031 236.859375 C 214.558594 235.574219 218.144531 233.949219 221.542969 232.019531 L 221.542969 237.015625 C 221.542969 245.824219 217.933594 253.828125 212.128906 259.632812 C 206.324219 265.441406 198.316406 269.050781 189.515625 269.050781 L 187.5 269.050781 C 178.695312 269.050781 170.691406 265.441406 164.886719 259.632812 C 159.082031 253.828125 155.476562 245.816406 155.476562 237.015625 L 155.476562 232.074219 C 156.996094 232.90625 158.558594 233.691406 160.148438 234.414062 Z M 47.175781 317.097656 C 47.175781 298.035156 54.976562 280.707031 67.539062 268.132812 C 80.101562 255.570312 97.433594 247.765625 116.488281 247.765625 L 147.226562 247.765625 C 149.152344 254.9375 152.941406 261.359375 158.046875 266.46875 C 164.519531 272.941406 173.113281 277.308594 182.664062 278.425781 L 182.664062 319.890625 L 47.175781 319.890625 Z M 327.824219 319.898438 L 192.335938 319.898438 L 192.335938 278.621094 C 202.695312 277.925781 212.046875 273.414062 218.976562 266.476562 C 224.085938 261.367188 227.871094 254.9375 229.800781 247.773438 L 258.511719 247.773438 C 277.566406 247.773438 294.890625 255.574219 307.453125 268.140625 C 320.015625 280.707031 327.816406 298.042969 327.816406 317.105469 L 327.816406 319.898438 Z M 327.824219 319.898438 " fill-opacity="1" fill-rule="nonzero"/></g></svg>