<svg xmlns="http://www.w3.org/2000/svg" xmlns:xlink="http://www.w3.org/1999/xlink" width="500" zoomAndPan="magnify" viewBox="0 0 375 374.999991" height="500" preserveAspectRatio="xMidYMid meet" version="1.0"><defs><clipPath id="58dcd0531a"><path d="M 39 37.5 L 336 37.5 L 336 339 L 39 339 Z M 39 37.5 " clip-rule="nonzero"/></clipPath></defs><g clip-path="url(#58dcd0531a)"><path fill="#2e2f2f" d="M 210.21875 338.511719 C 209.234375 338.792969 208.230469 338.917969 207.207031 338.886719 C 199.722656 338.589844 194.460938 329.117188 195.492188 317.738281 C 196.839844 304.703125 198.273438 291.636719 199.796875 278.550781 C 200.066406 276.050781 200.558594 273.597656 201.277344 271.1875 C 201.996094 268.777344 202.929688 266.457031 204.070312 264.214844 C 205.214844 261.976562 206.550781 259.863281 208.082031 257.867188 C 209.613281 255.871094 211.3125 254.035156 213.175781 252.347656 L 215.574219 250.273438 C 222.085938 244.484375 228.636719 238.351562 235.222656 231.875 C 243.195312 224.0625 251.722656 216.265625 260.808594 208.480469 C 266.027344 204.007812 273.90625 203.074219 278.25 206.347656 C 282.496094 209.566406 281.394531 215.855469 276.378906 220.402344 C 266.871094 228.863281 257.980469 237.351562 249.707031 245.875 C 252.589844 244.207031 255.53125 242.5625 258.503906 240.894531 C 275.742188 231.21875 291.425781 215.253906 298.144531 198.1875 L 304.207031 182.5625 C 306.695312 176.066406 315.640625 170.828125 324.269531 170.84375 C 332.898438 170.863281 337.5 176.046875 334.582031 182.523438 C 330.839844 190.921875 327.097656 199.324219 323.351562 207.730469 C 313.640625 229.496094 295.074219 250.777344 275.5 267.433594 C 271.46875 270.839844 267.570312 274.253906 263.800781 277.671875 C 258.214844 282.699219 253.191406 288.234375 248.726562 294.28125 C 244.265625 300.328125 240.457031 306.765625 237.300781 313.585938 C 231.460938 325.84375 222.328125 335.21875 213.570312 337.613281 Z M 164.816406 338.511719 L 161.484375 337.632812 C 152.746094 335.238281 143.59375 325.863281 137.773438 313.605469 C 134.613281 306.785156 130.796875 300.351562 126.332031 294.304688 C 121.867188 288.257812 116.839844 282.71875 111.253906 277.6875 C 107.511719 274.257812 103.613281 270.847656 99.558594 267.453125 C 79.980469 250.851562 61.417969 229.515625 51.703125 207.808594 C 47.960938 199.410156 44.21875 191.007812 40.472656 182.597656 C 37.609375 175.992188 42.175781 170.882812 50.878906 170.863281 C 59.582031 170.84375 68.453125 176.085938 70.941406 182.578125 L 77.007812 198.207031 C 83.726562 215.273438 99.464844 231.238281 116.644531 240.914062 C 119.621094 242.578125 122.558594 244.226562 125.441406 245.890625 C 117.167969 237.382812 108.277344 228.894531 98.773438 220.421875 C 93.664062 215.875 92.558594 209.585938 96.808594 206.367188 C 101.109375 203.089844 109.027344 204.027344 114.25 208.5 C 123.34375 216.285156 131.871094 224.082031 139.832031 231.894531 C 146.40625 238.292969 152.941406 244.421875 159.425781 250.273438 L 161.824219 252.425781 C 163.6875 254.109375 165.386719 255.949219 166.917969 257.941406 C 168.449219 259.9375 169.785156 262.054688 170.929688 264.292969 C 172.070312 266.53125 173.003906 268.855469 173.722656 271.261719 C 174.441406 273.671875 174.933594 276.125 175.203125 278.625 C 176.726562 291.699219 178.160156 304.765625 179.507812 317.816406 C 180.539062 329.191406 175.242188 338.664062 167.792969 338.960938 C 166.777344 338.964844 165.785156 338.816406 164.816406 338.511719 Z M 159.875 117.5625 L 213.121094 117.5625 C 226.222656 117.5625 237.824219 123.175781 243.589844 131.375 L 187.5 155.40625 L 131.355469 131.300781 C 136.371094 123.140625 146.90625 117.5625 159.875 117.5625 Z M 187.648438 110.714844 C 186.453125 110.710938 185.257812 110.644531 184.066406 110.523438 C 182.875 110.402344 181.691406 110.222656 180.515625 109.984375 C 179.34375 109.746094 178.183594 109.453125 177.035156 109.101562 C 175.890625 108.75 174.765625 108.34375 173.660156 107.882812 C 172.554688 107.417969 171.476562 106.902344 170.421875 106.335938 C 169.367188 105.765625 168.34375 105.148438 167.347656 104.480469 C 166.355469 103.8125 165.394531 103.097656 164.472656 102.332031 C 163.546875 101.570312 162.664062 100.765625 161.820312 99.914062 C 160.972656 99.066406 160.171875 98.175781 159.414062 97.246094 C 158.660156 96.320312 157.949219 95.355469 157.285156 94.359375 C 156.625 93.359375 156.011719 92.332031 155.449219 91.273438 C 154.886719 90.214844 154.378906 89.132812 153.921875 88.023438 C 153.46875 86.917969 153.066406 85.789062 152.722656 84.640625 C 152.378906 83.496094 152.089844 82.332031 151.859375 81.15625 C 151.628906 79.980469 151.457031 78.796875 151.339844 77.605469 C 151.226562 76.414062 151.171875 75.21875 151.175781 74.019531 C 151.175781 72.820312 151.238281 71.625 151.359375 70.433594 C 151.480469 69.242188 151.65625 68.058594 151.894531 66.886719 C 152.128906 65.710938 152.421875 64.550781 152.773438 63.40625 C 153.125 62.257812 153.527344 61.132812 153.988281 60.027344 C 154.449219 58.921875 154.964844 57.839844 155.53125 56.785156 C 156.097656 55.730469 156.714844 54.707031 157.382812 53.710938 C 158.050781 52.714844 158.765625 51.757812 159.527344 50.832031 C 160.289062 49.90625 161.09375 49.023438 161.941406 48.175781 C 162.789062 47.332031 163.679688 46.527344 164.605469 45.769531 C 165.535156 45.011719 166.496094 44.300781 167.492188 43.636719 C 168.488281 42.972656 169.515625 42.359375 170.574219 41.796875 C 171.632812 41.234375 172.714844 40.722656 173.820312 40.265625 C 174.929688 39.808594 176.058594 39.40625 177.203125 39.0625 C 178.351562 38.714844 179.511719 38.425781 180.6875 38.195312 C 181.863281 37.960938 183.046875 37.789062 184.238281 37.671875 C 185.429688 37.554688 186.625 37.5 187.824219 37.5 C 189.023438 37.5 190.21875 37.5625 191.410156 37.679688 C 192.601562 37.800781 193.785156 37.976562 194.960938 38.210938 C 196.132812 38.445312 197.292969 38.738281 198.441406 39.085938 C 199.585938 39.4375 200.714844 39.839844 201.820312 40.300781 C 202.925781 40.757812 204.007812 41.269531 205.0625 41.835938 C 206.121094 42.402344 207.144531 43.019531 208.140625 43.683594 C 209.136719 44.351562 210.097656 45.066406 211.023438 45.824219 C 211.949219 46.585938 212.835938 47.390625 213.679688 48.238281 C 214.527344 49.085938 215.332031 49.972656 216.089844 50.898438 C 216.851562 51.824219 217.5625 52.785156 218.226562 53.78125 C 218.890625 54.777344 219.507812 55.804688 220.070312 56.863281 C 220.636719 57.917969 221.148438 59 221.605469 60.109375 C 222.0625 61.214844 222.464844 62.339844 222.8125 63.488281 C 223.160156 64.632812 223.453125 65.796875 223.683594 66.96875 C 223.917969 68.144531 224.09375 69.328125 224.210938 70.519531 C 224.328125 71.714844 224.386719 72.910156 224.386719 74.105469 C 224.386719 75.308594 224.324219 76.503906 224.203125 77.699219 C 224.082031 78.894531 223.90625 80.082031 223.667969 81.257812 C 223.433594 82.4375 223.136719 83.601562 222.789062 84.75 C 222.4375 85.898438 222.03125 87.027344 221.570312 88.132812 C 221.105469 89.242188 220.589844 90.324219 220.023438 91.382812 C 219.457031 92.441406 218.835938 93.46875 218.167969 94.46875 C 217.5 95.464844 216.78125 96.425781 216.019531 97.355469 C 215.253906 98.28125 214.449219 99.167969 213.597656 100.015625 C 212.746094 100.863281 211.855469 101.667969 210.925781 102.429688 C 209.996094 103.1875 209.03125 103.902344 208.03125 104.566406 C 207.03125 105.230469 206.003906 105.847656 204.941406 106.410156 C 203.882812 106.976562 202.796875 107.488281 201.6875 107.945312 C 200.578125 108.402344 199.445312 108.804688 198.296875 109.152344 C 197.148438 109.496094 195.984375 109.789062 194.804688 110.019531 C 193.625 110.253906 192.441406 110.425781 191.246094 110.542969 C 190.050781 110.660156 188.851562 110.714844 187.648438 110.714844 Z M 187.5 229.253906 L 124.765625 197.082031 C 124.28125 196.8125 123.976562 196.410156 123.851562 195.867188 L 112.265625 134.277344 C 112.1875 133.878906 112.226562 133.492188 112.378906 133.117188 C 112.472656 132.886719 112.613281 132.683594 112.789062 132.507812 C 112.96875 132.332031 113.171875 132.195312 113.40625 132.105469 C 113.636719 132.011719 113.878906 131.964844 114.128906 131.96875 C 114.378906 131.972656 114.617188 132.023438 114.847656 132.125 L 187.5 163.265625 L 260.171875 132.125 C 260.398438 132.023438 260.640625 131.972656 260.890625 131.96875 C 261.140625 131.964844 261.382812 132.011719 261.613281 132.105469 C 261.84375 132.195312 262.050781 132.332031 262.226562 132.507812 C 262.40625 132.683594 262.542969 132.886719 262.640625 133.117188 C 262.804688 133.488281 262.84375 133.875 262.753906 134.277344 L 251.132812 195.867188 C 251.007812 196.410156 250.699219 196.8125 250.214844 197.082031 Z M 187.5 229.253906 " fill-opacity="1" fill-rule="nonzero"/></g></svg>