<svg xmlns="http://www.w3.org/2000/svg" xmlns:xlink="http://www.w3.org/1999/xlink" width="500" zoomAndPan="magnify" viewBox="0 0 375 374.999991" height="500" preserveAspectRatio="xMidYMid meet" version="1.0"><defs><clipPath id="e494def1cf"><path d="M 37.5 50.625 L 337.5 50.625 L 337.5 324.375 L 37.5 324.375 Z M 37.5 50.625 " clip-rule="nonzero"/></clipPath></defs><g clip-path="url(#e494def1cf)"><path fill="#2e2f2f" d="M 321 50.625 L 54 50.625 C 44.992188 50.625 37.664062 57.957031 37.664062 66.964844 L 37.664062 236.636719 C 37.664062 245.644531 44.992188 252.972656 54 252.972656 L 220.398438 252.972656 C 221.929688 258.570312 224.457031 263.742188 227.792969 268.308594 C 218.847656 280.941406 211.796875 295.324219 206.851562 311.121094 C 206.554688 312.070312 206.878906 313.105469 207.667969 313.714844 C 208.460938 314.320312 209.539062 314.375 210.390625 313.84375 C 214.050781 311.539062 224.757812 305.851562 230.117188 307.175781 C 234.753906 308.320312 240.113281 317.382812 242.398438 322.828125 C 242.777344 323.71875 243.644531 324.285156 244.59375 324.285156 C 244.722656 324.285156 244.855469 324.273438 244.992188 324.25 C 246.082031 324.066406 246.898438 323.15625 246.964844 322.050781 C 247.730469 309.507812 251.363281 297.738281 257.710938 287.019531 C 260.386719 287.492188 263.128906 287.785156 265.941406 287.785156 C 268.753906 287.785156 271.496094 287.492188 274.171875 287.019531 C 280.515625 297.734375 284.148438 309.503906 284.914062 322.050781 C 284.980469 323.15625 285.800781 324.066406 286.890625 324.25 C 287.023438 324.273438 287.160156 324.285156 287.292969 324.285156 C 288.234375 324.285156 289.105469 323.722656 289.480469 322.828125 C 291.769531 317.382812 297.125 308.320312 301.765625 307.175781 C 307.144531 305.851562 317.824219 311.539062 321.496094 313.847656 C 322.335938 314.375 323.425781 314.328125 324.214844 313.714844 C 325.003906 313.105469 325.328125 312.070312 325.03125 311.121094 C 320.082031 295.316406 313.027344 280.933594 304.089844 268.308594 C 307.425781 263.742188 309.949219 258.566406 311.480469 252.972656 L 321.003906 252.972656 C 330.011719 252.972656 337.339844 245.644531 337.339844 236.636719 L 337.339844 66.964844 C 337.335938 57.957031 330.007812 50.625 321 50.625 Z M 265.9375 193.273438 C 242.945312 193.273438 223.761719 209.785156 219.558594 231.570312 L 59.117188 231.570312 L 59.117188 72.03125 L 315.882812 72.03125 L 315.882812 231.570312 L 312.316406 231.570312 C 308.117188 209.785156 288.929688 193.273438 265.9375 193.273438 Z M 243.085938 313.757812 C 240.28125 309.105469 236.113281 303.757812 231.257812 302.558594 C 225.949219 301.242188 218.417969 304.222656 213.316406 306.773438 C 217.789062 294.144531 223.703125 282.539062 230.914062 272.140625 C 236.738281 278.585938 244.28125 283.425781 252.839844 285.898438 C 247.902344 294.59375 244.625 303.921875 243.085938 313.757812 Z M 223.441406 240.53125 C 223.441406 217.097656 242.503906 198.03125 265.9375 198.03125 C 289.371094 198.03125 308.4375 217.097656 308.4375 240.53125 C 308.4375 263.964844 289.371094 283.03125 265.9375 283.03125 C 242.503906 283.03125 223.441406 263.964844 223.441406 240.53125 Z M 318.5625 306.773438 C 313.464844 304.222656 305.9375 301.242188 300.617188 302.5625 C 295.761719 303.761719 291.59375 309.109375 288.792969 313.761719 C 287.25 303.921875 283.972656 294.59375 279.035156 285.902344 C 287.597656 283.425781 295.140625 278.589844 300.960938 272.144531 C 308.171875 282.539062 314.085938 294.144531 318.5625 306.773438 Z M 332.582031 236.636719 C 332.582031 243.023438 327.382812 248.21875 321 248.21875 L 312.515625 248.21875 C 312.929688 245.710938 313.195312 243.152344 313.195312 240.53125 C 313.195312 239.109375 313.105469 237.710938 312.984375 236.324219 L 318.261719 236.324219 C 319.578125 236.324219 320.640625 235.261719 320.640625 233.945312 L 320.640625 69.652344 C 320.640625 68.339844 319.578125 67.273438 318.261719 67.273438 L 56.738281 67.273438 C 55.421875 67.273438 54.359375 68.339844 54.359375 69.652344 L 54.359375 233.945312 C 54.359375 235.261719 55.421875 236.324219 56.738281 236.324219 L 218.898438 236.324219 C 218.773438 237.714844 218.683594 239.109375 218.683594 240.53125 C 218.683594 243.152344 218.953125 245.707031 219.367188 248.21875 L 54 248.21875 C 47.617188 248.21875 42.417969 243.023438 42.417969 236.636719 L 42.417969 66.964844 C 42.417969 60.578125 47.617188 55.382812 54 55.382812 L 321 55.382812 C 327.382812 55.382812 332.582031 60.578125 332.582031 66.964844 Z M 332.582031 236.636719 " fill-opacity="1" fill-rule="nonzero"/></g><path fill="#2e2f2f" d="M 113.027344 108.921875 L 260.792969 108.921875 C 262.109375 108.921875 263.171875 107.859375 263.171875 106.546875 L 263.171875 85.019531 C 263.171875 83.707031 262.109375 82.640625 260.792969 82.640625 L 113.027344 82.640625 C 111.714844 82.640625 110.648438 83.707031 110.648438 85.019531 L 110.648438 106.546875 C 110.648438 107.859375 111.714844 108.921875 113.027344 108.921875 Z M 115.40625 87.398438 L 258.414062 87.398438 L 258.414062 104.167969 L 115.40625 104.167969 Z M 115.40625 87.398438 " fill-opacity="1" fill-rule="nonzero"/><path fill="#2e2f2f" d="M 289.71875 134.214844 L 90.601562 134.214844 C 89.289062 134.214844 88.222656 135.28125 88.222656 136.59375 C 88.222656 137.90625 89.289062 138.972656 90.601562 138.972656 L 289.71875 138.972656 C 291.035156 138.972656 292.097656 137.90625 292.097656 136.59375 C 292.097656 135.28125 291.03125 134.214844 289.71875 134.214844 Z M 289.71875 134.214844 " fill-opacity="1" fill-rule="nonzero"/><path fill="#2e2f2f" d="M 159.890625 162.738281 C 161.207031 162.738281 162.269531 161.671875 162.269531 160.359375 C 162.269531 159.046875 161.207031 157.980469 159.890625 157.980469 L 108.09375 157.980469 C 106.777344 157.980469 105.714844 159.046875 105.714844 160.359375 C 105.714844 161.671875 106.777344 162.738281 108.09375 162.738281 Z M 159.890625 162.738281 " fill-opacity="1" fill-rule="nonzero"/><path fill="#2e2f2f" d="M 278.058594 157.980469 L 196.085938 157.980469 C 194.769531 157.980469 193.707031 159.046875 193.707031 160.359375 C 193.707031 161.671875 194.769531 162.738281 196.085938 162.738281 L 278.058594 162.738281 C 279.375 162.738281 280.4375 161.671875 280.4375 160.359375 C 280.4375 159.046875 279.375 157.980469 278.058594 157.980469 Z M 278.058594 157.980469 " fill-opacity="1" fill-rule="nonzero"/><path fill="#2e2f2f" d="M 177.285156 200.398438 C 171.226562 198.066406 162.886719 198.40625 153.960938 201.398438 C 155.851562 195.03125 153.304688 192.503906 151.59375 191.558594 C 150.101562 190.730469 147.039062 189.035156 127.210938 200.617188 C 130.59375 193.738281 130.179688 190.84375 129.53125 189.242188 C 128.976562 187.882812 127.929688 186.917969 126.503906 186.464844 C 115.851562 183.0625 92.738281 207.667969 88.210938 212.632812 C 87.328125 213.601562 87.398438 215.109375 88.367188 215.992188 C 88.824219 216.410156 89.398438 216.613281 89.96875 216.613281 C 90.613281 216.613281 91.257812 216.351562 91.726562 215.835938 C 102.128906 204.421875 119.34375 189.171875 125.105469 191 C 125.117188 191.015625 126.027344 192.800781 122.113281 200.132812 C 121.21875 201.804688 121.539062 203.8125 122.914062 205.125 C 124.289062 206.441406 126.308594 206.679688 127.949219 205.703125 C 142.214844 197.230469 148.167969 195.460938 149.289062 195.71875 C 150.214844 196.230469 149.914062 198.414062 149.324219 200.289062 C 148.820312 201.90625 149.257812 203.652344 150.460938 204.839844 C 151.6875 206.050781 153.476562 206.460938 155.121094 205.925781 C 163.234375 203.265625 170.5 202.882812 175.574219 204.839844 C 176.804688 205.308594 178.175781 204.703125 178.648438 203.476562 C 179.121094 202.25 178.507812 200.875 177.285156 200.398438 Z M 177.285156 200.398438 " fill-opacity="1" fill-rule="nonzero"/><path fill="#2e2f2f" d="M 265.9375 204.078125 C 245.839844 204.078125 229.488281 220.429688 229.488281 240.53125 C 229.488281 260.628906 245.839844 276.984375 265.9375 276.984375 C 286.039062 276.984375 302.390625 260.632812 302.390625 240.53125 C 302.390625 220.429688 286.039062 204.078125 265.9375 204.078125 Z M 265.9375 272.226562 C 248.460938 272.226562 234.246094 258.007812 234.246094 240.53125 C 234.246094 223.054688 248.464844 208.835938 265.9375 208.835938 C 283.414062 208.835938 297.632812 223.054688 297.632812 240.53125 C 297.632812 258.007812 283.414062 272.226562 265.9375 272.226562 Z M 265.9375 272.226562 " fill-opacity="1" fill-rule="nonzero"/><path fill="#2e2f2f" d="M 289.464844 230.558594 C 289.085938 229.695312 288.230469 229.136719 287.285156 229.136719 L 273.597656 229.136719 L 268.058594 218.269531 C 267.246094 216.675781 264.636719 216.675781 263.820312 218.269531 L 258.28125 229.136719 L 244.59375 229.136719 C 243.652344 229.136719 242.792969 229.695312 242.417969 230.558594 C 242.035156 231.421875 242.203125 232.429688 242.839844 233.125 L 252.5 243.652344 L 247.148438 256.835938 C 246.777344 257.757812 247.015625 258.816406 247.753906 259.488281 C 248.492188 260.15625 249.570312 260.296875 250.453125 259.839844 L 265.941406 251.761719 L 281.433594 259.839844 C 281.78125 260.019531 282.15625 260.105469 282.53125 260.105469 C 283.109375 260.105469 283.683594 259.894531 284.132812 259.488281 C 284.871094 258.816406 285.109375 257.757812 284.738281 256.835938 L 279.386719 243.652344 L 289.046875 233.125 C 289.675781 232.429688 289.84375 231.421875 289.464844 230.558594 Z M 274.855469 241.542969 C 274.238281 242.222656 274.0625 243.195312 274.40625 244.046875 L 277.890625 252.632812 L 267.039062 246.976562 C 266.351562 246.617188 265.53125 246.617188 264.84375 246.976562 L 253.988281 252.632812 L 257.472656 244.046875 C 257.820312 243.195312 257.640625 242.222656 257.023438 241.546875 L 250.003906 233.898438 L 259.742188 233.898438 C 260.632812 233.898438 261.453125 233.394531 261.859375 232.597656 L 265.945312 224.589844 L 270.03125 232.597656 C 270.4375 233.394531 271.257812 233.898438 272.152344 233.898438 L 281.886719 233.898438 Z M 274.855469 241.542969 " fill-opacity="1" fill-rule="nonzero"/></svg>