<svg xmlns="http://www.w3.org/2000/svg" xmlns:xlink="http://www.w3.org/1999/xlink" width="500" zoomAndPan="magnify" viewBox="0 0 375 374.999991" height="500" preserveAspectRatio="xMidYMid meet" version="1.0"><defs><clipPath id="9f07176b35"><path d="M 37.5 137 L 170 137 L 170 337.5 L 37.5 337.5 Z M 37.5 137 " clip-rule="nonzero"/></clipPath><clipPath id="60229cd2e7"><path d="M 206 137 L 337.5 137 L 337.5 337.5 L 206 337.5 Z M 206 137 " clip-rule="nonzero"/></clipPath><clipPath id="3ca5dd5e4b"><path d="M 112 206 L 263 206 L 263 337.5 L 112 337.5 Z M 112 206 " clip-rule="nonzero"/></clipPath><clipPath id="eadff371e6"><path d="M 137 37.5 L 238 37.5 L 238 125 L 137 125 Z M 137 37.5 " clip-rule="nonzero"/></clipPath></defs><path fill="#2e2f2f" d="M 93.75 131.25 C 94.773438 131.25 95.792969 131.199219 96.8125 131.097656 C 97.832031 131 98.84375 130.847656 99.847656 130.648438 C 100.851562 130.449219 101.84375 130.203125 102.820312 129.90625 C 103.800781 129.605469 104.761719 129.261719 105.707031 128.871094 C 106.65625 128.480469 107.578125 128.042969 108.480469 127.558594 C 109.382812 127.078125 110.261719 126.550781 111.113281 125.984375 C 111.960938 125.414062 112.785156 124.804688 113.574219 124.15625 C 114.367188 123.507812 115.125 122.820312 115.847656 122.097656 C 116.570312 121.375 117.257812 120.617188 117.90625 119.824219 C 118.554688 119.035156 119.164062 118.210938 119.734375 117.363281 C 120.300781 116.511719 120.828125 115.632812 121.308594 114.730469 C 121.792969 113.828125 122.230469 112.90625 122.621094 111.957031 C 123.011719 111.011719 123.355469 110.050781 123.65625 109.070312 C 123.953125 108.09375 124.199219 107.101562 124.398438 106.097656 C 124.597656 105.09375 124.75 104.082031 124.847656 103.0625 C 124.949219 102.042969 125 101.023438 125 100 C 125 98.976562 124.949219 97.957031 124.847656 96.9375 C 124.75 95.917969 124.597656 94.90625 124.398438 93.902344 C 124.199219 92.898438 123.953125 91.90625 123.65625 90.929688 C 123.355469 89.949219 123.011719 88.988281 122.621094 88.042969 C 122.230469 87.09375 121.792969 86.171875 121.308594 85.269531 C 120.828125 84.367188 120.300781 83.488281 119.734375 82.636719 C 119.164062 81.789062 118.554688 80.964844 117.90625 80.175781 C 117.257812 79.382812 116.570312 78.625 115.847656 77.902344 C 115.125 77.179688 114.367188 76.492188 113.574219 75.84375 C 112.785156 75.195312 111.960938 74.585938 111.113281 74.015625 C 110.261719 73.449219 109.382812 72.921875 108.480469 72.441406 C 107.578125 71.957031 106.65625 71.519531 105.707031 71.128906 C 104.761719 70.738281 103.800781 70.394531 102.820312 70.09375 C 101.84375 69.796875 100.851562 69.550781 99.847656 69.351562 C 98.84375 69.152344 97.832031 69 96.8125 68.902344 C 95.792969 68.800781 94.773438 68.75 93.75 68.75 C 92.726562 68.75 91.707031 68.800781 90.6875 68.902344 C 89.667969 69 88.65625 69.152344 87.652344 69.351562 C 86.648438 69.550781 85.65625 69.796875 84.679688 70.09375 C 83.699219 70.394531 82.738281 70.738281 81.792969 71.128906 C 80.84375 71.519531 79.921875 71.957031 79.019531 72.441406 C 78.117188 72.921875 77.238281 73.449219 76.386719 74.015625 C 75.539062 74.585938 74.714844 75.195312 73.925781 75.84375 C 73.132812 76.492188 72.375 77.179688 71.652344 77.902344 C 70.929688 78.625 70.242188 79.382812 69.59375 80.175781 C 68.945312 80.964844 68.335938 81.789062 67.765625 82.636719 C 67.199219 83.488281 66.671875 84.367188 66.191406 85.269531 C 65.707031 86.171875 65.269531 87.09375 64.878906 88.042969 C 64.488281 88.988281 64.144531 89.949219 63.84375 90.929688 C 63.546875 91.90625 63.300781 92.898438 63.101562 93.902344 C 62.902344 94.90625 62.75 95.917969 62.652344 96.9375 C 62.550781 97.957031 62.5 98.976562 62.5 100 C 62.5 101.023438 62.550781 102.042969 62.652344 103.0625 C 62.75 104.082031 62.902344 105.09375 63.101562 106.097656 C 63.300781 107.101562 63.546875 108.09375 63.84375 109.070312 C 64.144531 110.050781 64.488281 111.011719 64.878906 111.957031 C 65.269531 112.90625 65.707031 113.828125 66.191406 114.730469 C 66.671875 115.632812 67.199219 116.511719 67.765625 117.363281 C 68.335938 118.210938 68.945312 119.035156 69.59375 119.824219 C 70.242188 120.617188 70.929688 121.375 71.652344 122.097656 C 72.375 122.820312 73.132812 123.507812 73.925781 124.15625 C 74.714844 124.804688 75.539062 125.414062 76.386719 125.984375 C 77.238281 126.550781 78.117188 127.078125 79.019531 127.558594 C 79.921875 128.042969 80.84375 128.480469 81.792969 128.871094 C 82.738281 129.261719 83.699219 129.605469 84.679688 129.90625 C 85.65625 130.203125 86.648438 130.449219 87.652344 130.648438 C 88.65625 130.847656 89.667969 131 90.6875 131.097656 C 91.707031 131.199219 92.726562 131.25 93.75 131.25 Z M 93.75 81.25 C 94.363281 81.25 94.976562 81.28125 95.585938 81.339844 C 96.199219 81.402344 96.804688 81.492188 97.40625 81.609375 C 98.011719 81.730469 98.605469 81.878906 99.191406 82.058594 C 99.78125 82.234375 100.359375 82.441406 100.925781 82.675781 C 101.492188 82.914062 102.046875 83.175781 102.589844 83.464844 C 103.128906 83.753906 103.65625 84.070312 104.167969 84.410156 C 104.675781 84.75 105.171875 85.117188 105.644531 85.507812 C 106.121094 85.894531 106.574219 86.308594 107.007812 86.742188 C 107.441406 87.175781 107.855469 87.628906 108.242188 88.105469 C 108.632812 88.578125 109 89.074219 109.339844 89.582031 C 109.679688 90.09375 109.996094 90.621094 110.285156 91.160156 C 110.574219 91.703125 110.835938 92.257812 111.074219 92.824219 C 111.308594 93.390625 111.515625 93.96875 111.691406 94.558594 C 111.871094 95.144531 112.019531 95.738281 112.140625 96.34375 C 112.257812 96.945312 112.347656 97.550781 112.410156 98.164062 C 112.46875 98.773438 112.5 99.386719 112.5 100 C 112.5 100.613281 112.46875 101.226562 112.410156 101.835938 C 112.347656 102.449219 112.257812 103.054688 112.140625 103.65625 C 112.019531 104.261719 111.871094 104.855469 111.691406 105.441406 C 111.515625 106.03125 111.308594 106.609375 111.074219 107.175781 C 110.835938 107.742188 110.574219 108.296875 110.285156 108.839844 C 109.996094 109.378906 109.679688 109.90625 109.339844 110.417969 C 109 110.925781 108.632812 111.421875 108.242188 111.894531 C 107.855469 112.371094 107.441406 112.824219 107.007812 113.257812 C 106.574219 113.691406 106.121094 114.105469 105.644531 114.492188 C 105.171875 114.882812 104.675781 115.25 104.167969 115.589844 C 103.65625 115.929688 103.128906 116.246094 102.589844 116.535156 C 102.046875 116.824219 101.492188 117.085938 100.925781 117.324219 C 100.359375 117.558594 99.78125 117.765625 99.191406 117.941406 C 98.605469 118.121094 98.011719 118.269531 97.40625 118.390625 C 96.804688 118.507812 96.199219 118.597656 95.585938 118.660156 C 94.976562 118.71875 94.363281 118.75 93.75 118.75 C 93.136719 118.75 92.523438 118.71875 91.914062 118.660156 C 91.300781 118.597656 90.695312 118.507812 90.09375 118.390625 C 89.488281 118.269531 88.894531 118.121094 88.308594 117.941406 C 87.71875 117.765625 87.140625 117.558594 86.574219 117.324219 C 86.007812 117.085938 85.453125 116.824219 84.910156 116.535156 C 84.371094 116.246094 83.84375 115.929688 83.332031 115.589844 C 82.824219 115.25 82.328125 114.882812 81.855469 114.492188 C 81.378906 114.105469 80.925781 113.691406 80.492188 113.257812 C 80.058594 112.824219 79.644531 112.371094 79.257812 111.894531 C 78.867188 111.421875 78.5 110.925781 78.160156 110.417969 C 77.820312 109.90625 77.503906 109.378906 77.214844 108.839844 C 76.925781 108.296875 76.664062 107.742188 76.425781 107.175781 C 76.191406 106.609375 75.984375 106.03125 75.808594 105.441406 C 75.628906 104.855469 75.480469 104.261719 75.359375 103.65625 C 75.242188 103.054688 75.152344 102.449219 75.089844 101.835938 C 75.03125 101.226562 75 100.613281 75 100 C 75 99.386719 75.03125 98.773438 75.089844 98.164062 C 75.152344 97.550781 75.242188 96.945312 75.359375 96.34375 C 75.480469 95.738281 75.628906 95.144531 75.808594 94.558594 C 75.984375 93.96875 76.191406 93.390625 76.425781 92.824219 C 76.664062 92.257812 76.925781 91.703125 77.214844 91.160156 C 77.503906 90.621094 77.820312 90.09375 78.160156 89.582031 C 78.5 89.074219 78.867188 88.578125 79.257812 88.105469 C 79.644531 87.628906 80.058594 87.175781 80.492188 86.742188 C 80.925781 86.308594 81.378906 85.894531 81.855469 85.507812 C 82.328125 85.117188 82.824219 84.75 83.332031 84.410156 C 83.84375 84.070312 84.371094 83.753906 84.910156 83.464844 C 85.453125 83.175781 86.007812 82.914062 86.574219 82.675781 C 87.140625 82.441406 87.71875 82.234375 88.308594 82.058594 C 88.894531 81.878906 89.488281 81.730469 90.09375 81.609375 C 90.695312 81.492188 91.300781 81.402344 91.914062 81.339844 C 92.523438 81.28125 93.136719 81.25 93.75 81.25 Z M 93.75 81.25 " fill-opacity="1" fill-rule="nonzero"/><g clip-path="url(#9f07176b35)"><path fill="#2e2f2f" d="M 143.75 255.25 L 143.75 254.25 C 137.5 235.0625 124.5625 226.375 100.3125 225.1875 L 100.3125 200 L 150.3125 200 C 150.925781 200 151.539062 199.96875 152.148438 199.910156 C 152.761719 199.847656 153.367188 199.757812 153.96875 199.640625 C 154.574219 199.519531 155.167969 199.371094 155.753906 199.191406 C 156.34375 199.015625 156.921875 198.808594 157.488281 198.574219 C 158.054688 198.335938 158.609375 198.074219 159.152344 197.785156 C 159.691406 197.496094 160.21875 197.179688 160.730469 196.839844 C 161.238281 196.5 161.734375 196.132812 162.207031 195.742188 C 162.683594 195.355469 163.136719 194.941406 163.570312 194.507812 C 164.003906 194.074219 164.417969 193.621094 164.804688 193.144531 C 165.195312 192.671875 165.5625 192.175781 165.902344 191.667969 C 166.242188 191.15625 166.558594 190.628906 166.847656 190.089844 C 167.136719 189.546875 167.398438 188.992188 167.636719 188.425781 C 167.871094 187.859375 168.078125 187.28125 168.253906 186.691406 C 168.433594 186.105469 168.582031 185.511719 168.703125 184.90625 C 168.820312 184.304688 168.910156 183.699219 168.972656 183.085938 C 169.03125 182.476562 169.0625 181.863281 169.0625 181.25 C 169.0625 180.636719 169.03125 180.023438 168.972656 179.414062 C 168.910156 178.800781 168.820312 178.195312 168.703125 177.59375 C 168.582031 176.988281 168.433594 176.394531 168.253906 175.808594 C 168.078125 175.21875 167.871094 174.640625 167.636719 174.074219 C 167.398438 173.507812 167.136719 172.953125 166.847656 172.410156 C 166.558594 171.871094 166.242188 171.34375 165.902344 170.832031 C 165.5625 170.324219 165.195312 169.828125 164.804688 169.355469 C 164.417969 168.878906 164.003906 168.425781 163.570312 167.992188 C 163.136719 167.558594 162.683594 167.144531 162.207031 166.757812 C 161.734375 166.367188 161.238281 166 160.730469 165.660156 C 160.21875 165.320312 159.691406 165.003906 159.152344 164.714844 C 158.609375 164.425781 158.054688 164.164062 157.488281 163.925781 C 156.921875 163.691406 156.34375 163.484375 155.753906 163.308594 C 155.167969 163.128906 154.574219 162.980469 153.96875 162.859375 C 153.367188 162.742188 152.761719 162.652344 152.148438 162.589844 C 151.539062 162.53125 150.925781 162.5 150.3125 162.5 L 111.375 162.5 C 107.9375 148.25 92.625 137.5 75 137.5 C 51.5 137.5 37.5 153.875 37.5 181.25 L 37.5 243.75 C 37.5 244.570312 37.539062 245.386719 37.621094 246.199219 C 37.699219 247.015625 37.820312 247.824219 37.980469 248.628906 C 38.140625 249.429688 38.339844 250.222656 38.578125 251.007812 C 38.8125 251.789062 39.089844 252.5625 39.402344 253.316406 C 39.714844 254.074219 40.066406 254.8125 40.453125 255.535156 C 40.839844 256.257812 41.257812 256.957031 41.714844 257.640625 C 42.167969 258.320312 42.65625 258.976562 43.175781 259.609375 C 43.695312 260.242188 44.242188 260.847656 44.824219 261.425781 C 45.402344 262.007812 46.007812 262.554688 46.640625 263.074219 C 47.273438 263.59375 47.929688 264.082031 48.609375 264.535156 C 49.292969 264.992188 49.992188 265.410156 50.714844 265.796875 C 51.4375 266.183594 52.175781 266.535156 52.933594 266.847656 C 53.6875 267.160156 54.460938 267.4375 55.242188 267.671875 C 56.027344 267.910156 56.820312 268.109375 57.621094 268.269531 C 58.425781 268.429688 59.234375 268.550781 60.050781 268.628906 C 60.863281 268.710938 61.679688 268.75 62.5 268.75 L 95.25 268.75 L 112.5 332.875 C 112.683594 333.558594 112.972656 334.1875 113.371094 334.773438 C 113.769531 335.355469 114.25 335.859375 114.816406 336.277344 C 115.386719 336.699219 116.007812 337.011719 116.679688 337.222656 C 117.355469 337.429688 118.042969 337.523438 118.75 337.5 C 119.292969 337.59375 119.832031 337.59375 120.375 337.5 C 120.769531 337.390625 121.144531 337.246094 121.511719 337.0625 C 121.875 336.878906 122.21875 336.664062 122.539062 336.414062 C 122.863281 336.164062 123.15625 335.886719 123.425781 335.578125 C 123.691406 335.269531 123.925781 334.941406 124.128906 334.585938 C 124.332031 334.234375 124.5 333.863281 124.628906 333.476562 C 124.761719 333.089844 124.851562 332.695312 124.90625 332.292969 C 124.957031 331.886719 124.972656 331.484375 124.945312 331.074219 C 124.917969 330.667969 124.855469 330.269531 124.75 329.875 L 106 261.125 C 105.847656 260.441406 105.585938 259.800781 105.214844 259.207031 C 104.84375 258.609375 104.386719 258.089844 103.84375 257.648438 C 103.300781 257.207031 102.699219 256.867188 102.039062 256.625 C 101.382812 256.386719 100.699219 256.261719 100 256.25 L 62.5 256.25 C 61.679688 256.25 60.867188 256.167969 60.0625 256.011719 C 59.257812 255.851562 58.476562 255.613281 57.714844 255.296875 C 56.957031 254.984375 56.238281 254.597656 55.554688 254.144531 C 54.871094 253.6875 54.242188 253.167969 53.660156 252.589844 C 53.082031 252.007812 52.5625 251.378906 52.105469 250.695312 C 51.652344 250.011719 51.265625 249.292969 50.953125 248.535156 C 50.636719 247.773438 50.398438 246.992188 50.238281 246.1875 C 50.078125 245.382812 50 244.570312 50 243.75 L 50 181.25 C 50 167 54.3125 150 75 150 C 88.5625 150 99.625 158.4375 99.625 168.75 C 99.625 169.160156 99.664062 169.566406 99.746094 169.96875 C 99.824219 170.371094 99.945312 170.761719 100.101562 171.140625 C 100.257812 171.519531 100.449219 171.882812 100.679688 172.222656 C 100.90625 172.5625 101.164062 172.878906 101.457031 173.167969 C 101.746094 173.460938 102.0625 173.71875 102.402344 173.945312 C 102.742188 174.175781 103.105469 174.367188 103.484375 174.523438 C 103.863281 174.679688 104.253906 174.800781 104.65625 174.878906 C 105.058594 174.960938 105.464844 175 105.875 175 L 150 175 C 150.410156 175 150.816406 175.039062 151.21875 175.121094 C 151.621094 175.199219 152.011719 175.320312 152.390625 175.476562 C 152.769531 175.632812 153.132812 175.824219 153.472656 176.054688 C 153.8125 176.28125 154.128906 176.539062 154.417969 176.832031 C 154.710938 177.121094 154.96875 177.4375 155.195312 177.777344 C 155.425781 178.117188 155.617188 178.480469 155.773438 178.859375 C 155.929688 179.238281 156.050781 179.628906 156.128906 180.03125 C 156.210938 180.433594 156.25 180.839844 156.25 181.25 C 156.25 181.660156 156.210938 182.066406 156.128906 182.46875 C 156.050781 182.871094 155.929688 183.261719 155.773438 183.640625 C 155.617188 184.019531 155.425781 184.382812 155.195312 184.722656 C 154.96875 185.0625 154.710938 185.378906 154.417969 185.667969 C 154.128906 185.960938 153.8125 186.21875 153.472656 186.445312 C 153.132812 186.675781 152.769531 186.867188 152.390625 187.023438 C 152.011719 187.179688 151.621094 187.300781 151.21875 187.378906 C 150.816406 187.460938 150.410156 187.5 150 187.5 L 95.625 187.5 L 78.4375 176.0625 C 78.097656 175.878906 77.742188 175.730469 77.375 175.613281 C 77.007812 175.496094 76.632812 175.414062 76.25 175.367188 C 75.867188 175.320312 75.480469 175.308594 75.097656 175.332031 C 74.710938 175.355469 74.332031 175.414062 73.957031 175.507812 C 73.582031 175.601562 73.21875 175.730469 72.871094 175.894531 C 72.519531 176.054688 72.1875 176.246094 71.871094 176.46875 C 71.554688 176.691406 71.265625 176.941406 70.996094 177.21875 C 70.726562 177.496094 70.488281 177.796875 70.273438 178.117188 C 70.058594 178.441406 69.878906 178.777344 69.726562 179.132812 C 69.578125 179.488281 69.460938 179.855469 69.378906 180.230469 C 69.296875 180.609375 69.25 180.992188 69.234375 181.375 C 69.222656 181.761719 69.246094 182.144531 69.308594 182.527344 C 69.367188 182.910156 69.460938 183.28125 69.585938 183.644531 C 69.714844 184.007812 69.875 184.359375 70.070312 184.691406 C 70.261719 185.027344 70.484375 185.339844 70.734375 185.632812 C 70.984375 185.925781 71.261719 186.195312 71.5625 186.4375 L 87.5 197.0625 L 87.5 231.25 C 87.5 231.660156 87.539062 232.066406 87.621094 232.46875 C 87.699219 232.871094 87.820312 233.261719 87.976562 233.640625 C 88.132812 234.019531 88.324219 234.382812 88.554688 234.722656 C 88.78125 235.0625 89.039062 235.378906 89.332031 235.667969 C 89.621094 235.960938 89.9375 236.21875 90.277344 236.445312 C 90.617188 236.675781 90.980469 236.867188 91.359375 237.023438 C 91.738281 237.179688 92.128906 237.300781 92.53125 237.378906 C 92.933594 237.460938 93.339844 237.5 93.75 237.5 C 116.625 237.5 126.1875 242.625 131.25 257.75 L 143.75 332.25 C 143.808594 332.617188 143.902344 332.976562 144.023438 333.324219 C 144.148438 333.675781 144.300781 334.011719 144.484375 334.335938 C 144.667969 334.660156 144.878906 334.964844 145.117188 335.25 C 145.355469 335.535156 145.613281 335.796875 145.898438 336.035156 C 146.183594 336.273438 146.488281 336.488281 146.808594 336.671875 C 147.132812 336.855469 147.46875 337.011719 147.816406 337.136719 C 148.167969 337.261719 148.527344 337.355469 148.894531 337.414062 C 149.257812 337.476562 149.628906 337.503906 150 337.5 L 151 337.5 C 151.414062 337.4375 151.816406 337.339844 152.207031 337.195312 C 152.601562 337.054688 152.976562 336.878906 153.332031 336.660156 C 153.6875 336.445312 154.019531 336.195312 154.328125 335.914062 C 154.632812 335.628906 154.910156 335.320312 155.152344 334.980469 C 155.398438 334.644531 155.605469 334.285156 155.78125 333.90625 C 155.953125 333.527344 156.085938 333.132812 156.179688 332.726562 C 156.273438 332.320312 156.328125 331.910156 156.339844 331.492188 C 156.351562 331.074219 156.320312 330.660156 156.25 330.25 Z M 143.75 255.25 " fill-opacity="1" fill-rule="nonzero"/></g><path fill="#2e2f2f" d="M 281.25 131.25 C 282.273438 131.25 283.292969 131.199219 284.3125 131.097656 C 285.332031 131 286.34375 130.847656 287.347656 130.648438 C 288.351562 130.449219 289.34375 130.203125 290.320312 129.90625 C 291.300781 129.605469 292.261719 129.261719 293.207031 128.871094 C 294.15625 128.480469 295.078125 128.042969 295.980469 127.558594 C 296.882812 127.078125 297.761719 126.550781 298.613281 125.984375 C 299.460938 125.414062 300.285156 124.804688 301.074219 124.15625 C 301.867188 123.507812 302.625 122.820312 303.347656 122.097656 C 304.070312 121.375 304.757812 120.617188 305.40625 119.824219 C 306.054688 119.035156 306.664062 118.210938 307.234375 117.363281 C 307.800781 116.511719 308.328125 115.632812 308.808594 114.730469 C 309.292969 113.828125 309.730469 112.90625 310.121094 111.957031 C 310.511719 111.011719 310.855469 110.050781 311.15625 109.070312 C 311.453125 108.09375 311.699219 107.101562 311.898438 106.097656 C 312.097656 105.09375 312.25 104.082031 312.347656 103.0625 C 312.449219 102.042969 312.5 101.023438 312.5 100 C 312.5 98.976562 312.449219 97.957031 312.347656 96.9375 C 312.25 95.917969 312.097656 94.90625 311.898438 93.902344 C 311.699219 92.898438 311.453125 91.90625 311.15625 90.929688 C 310.855469 89.949219 310.511719 88.988281 310.121094 88.042969 C 309.730469 87.09375 309.292969 86.171875 308.808594 85.269531 C 308.328125 84.367188 307.800781 83.488281 307.234375 82.636719 C 306.664062 81.789062 306.054688 80.964844 305.40625 80.175781 C 304.757812 79.382812 304.070312 78.625 303.347656 77.902344 C 302.625 77.179688 301.867188 76.492188 301.074219 75.84375 C 300.285156 75.195312 299.460938 74.585938 298.613281 74.015625 C 297.761719 73.449219 296.882812 72.921875 295.980469 72.441406 C 295.078125 71.957031 294.15625 71.519531 293.207031 71.128906 C 292.261719 70.738281 291.300781 70.394531 290.320312 70.09375 C 289.34375 69.796875 288.351562 69.550781 287.347656 69.351562 C 286.34375 69.152344 285.332031 69 284.3125 68.902344 C 283.292969 68.800781 282.273438 68.75 281.25 68.75 C 280.226562 68.75 279.207031 68.800781 278.1875 68.902344 C 277.167969 69 276.15625 69.152344 275.152344 69.351562 C 274.148438 69.550781 273.15625 69.796875 272.179688 70.09375 C 271.199219 70.394531 270.238281 70.738281 269.292969 71.128906 C 268.34375 71.519531 267.421875 71.957031 266.519531 72.441406 C 265.617188 72.921875 264.738281 73.449219 263.886719 74.015625 C 263.039062 74.585938 262.214844 75.195312 261.425781 75.84375 C 260.632812 76.492188 259.875 77.179688 259.152344 77.902344 C 258.429688 78.625 257.742188 79.382812 257.09375 80.175781 C 256.445312 80.964844 255.835938 81.789062 255.265625 82.636719 C 254.699219 83.488281 254.171875 84.367188 253.691406 85.269531 C 253.207031 86.171875 252.769531 87.09375 252.378906 88.042969 C 251.988281 88.988281 251.644531 89.949219 251.34375 90.929688 C 251.046875 91.90625 250.800781 92.898438 250.601562 93.902344 C 250.402344 94.90625 250.25 95.917969 250.152344 96.9375 C 250.050781 97.957031 250 98.976562 250 100 C 250 101.023438 250.050781 102.042969 250.152344 103.0625 C 250.25 104.082031 250.402344 105.09375 250.601562 106.097656 C 250.800781 107.101562 251.046875 108.09375 251.34375 109.070312 C 251.644531 110.050781 251.988281 111.011719 252.378906 111.957031 C 252.769531 112.90625 253.207031 113.828125 253.691406 114.730469 C 254.171875 115.632812 254.699219 116.511719 255.265625 117.363281 C 255.835938 118.210938 256.445312 119.035156 257.09375 119.824219 C 257.742188 120.617188 258.429688 121.375 259.152344 122.097656 C 259.875 122.820312 260.632812 123.507812 261.425781 124.15625 C 262.214844 124.804688 263.039062 125.414062 263.886719 125.984375 C 264.738281 126.550781 265.617188 127.078125 266.519531 127.558594 C 267.421875 128.042969 268.34375 128.480469 269.292969 128.871094 C 270.238281 129.261719 271.199219 129.605469 272.179688 129.90625 C 273.15625 130.203125 274.148438 130.449219 275.152344 130.648438 C 276.15625 130.847656 277.167969 131 278.1875 131.097656 C 279.207031 131.199219 280.226562 131.25 281.25 131.25 Z M 281.25 81.25 C 281.863281 81.25 282.476562 81.28125 283.085938 81.339844 C 283.699219 81.402344 284.304688 81.492188 284.90625 81.609375 C 285.511719 81.730469 286.105469 81.878906 286.691406 82.058594 C 287.28125 82.234375 287.859375 82.441406 288.425781 82.675781 C 288.992188 82.914062 289.546875 83.175781 290.089844 83.464844 C 290.628906 83.753906 291.15625 84.070312 291.667969 84.410156 C 292.175781 84.75 292.671875 85.117188 293.144531 85.507812 C 293.621094 85.894531 294.074219 86.308594 294.507812 86.742188 C 294.941406 87.175781 295.355469 87.628906 295.742188 88.105469 C 296.132812 88.578125 296.5 89.074219 296.839844 89.582031 C 297.179688 90.09375 297.496094 90.621094 297.785156 91.160156 C 298.074219 91.703125 298.335938 92.257812 298.574219 92.824219 C 298.808594 93.390625 299.015625 93.96875 299.191406 94.558594 C 299.371094 95.144531 299.519531 95.738281 299.640625 96.34375 C 299.757812 96.945312 299.847656 97.550781 299.910156 98.164062 C 299.96875 98.773438 300 99.386719 300 100 C 300 100.613281 299.96875 101.226562 299.910156 101.835938 C 299.847656 102.449219 299.757812 103.054688 299.640625 103.65625 C 299.519531 104.261719 299.371094 104.855469 299.191406 105.441406 C 299.015625 106.03125 298.808594 106.609375 298.574219 107.175781 C 298.335938 107.742188 298.074219 108.296875 297.785156 108.839844 C 297.496094 109.378906 297.179688 109.90625 296.839844 110.417969 C 296.5 110.925781 296.132812 111.421875 295.742188 111.894531 C 295.355469 112.371094 294.941406 112.824219 294.507812 113.257812 C 294.074219 113.691406 293.621094 114.105469 293.144531 114.492188 C 292.671875 114.882812 292.175781 115.25 291.667969 115.589844 C 291.15625 115.929688 290.628906 116.246094 290.089844 116.535156 C 289.546875 116.824219 288.992188 117.085938 288.425781 117.324219 C 287.859375 117.558594 287.28125 117.765625 286.691406 117.941406 C 286.105469 118.121094 285.511719 118.269531 284.90625 118.390625 C 284.304688 118.507812 283.699219 118.597656 283.085938 118.660156 C 282.476562 118.71875 281.863281 118.75 281.25 118.75 C 280.636719 118.75 280.023438 118.71875 279.414062 118.660156 C 278.800781 118.597656 278.195312 118.507812 277.59375 118.390625 C 276.988281 118.269531 276.394531 118.121094 275.808594 117.941406 C 275.21875 117.765625 274.640625 117.558594 274.074219 117.324219 C 273.507812 117.085938 272.953125 116.824219 272.410156 116.535156 C 271.871094 116.246094 271.34375 115.929688 270.832031 115.589844 C 270.324219 115.25 269.828125 114.882812 269.355469 114.492188 C 268.878906 114.105469 268.425781 113.691406 267.992188 113.257812 C 267.558594 112.824219 267.144531 112.371094 266.757812 111.894531 C 266.367188 111.421875 266 110.925781 265.660156 110.417969 C 265.320312 109.90625 265.003906 109.378906 264.714844 108.839844 C 264.425781 108.296875 264.164062 107.742188 263.925781 107.175781 C 263.691406 106.609375 263.484375 106.03125 263.308594 105.441406 C 263.128906 104.855469 262.980469 104.261719 262.859375 103.65625 C 262.742188 103.054688 262.652344 102.449219 262.589844 101.835938 C 262.53125 101.226562 262.5 100.613281 262.5 100 C 262.5 99.386719 262.53125 98.773438 262.589844 98.164062 C 262.652344 97.550781 262.742188 96.945312 262.859375 96.34375 C 262.980469 95.738281 263.128906 95.144531 263.308594 94.558594 C 263.484375 93.96875 263.691406 93.390625 263.925781 92.824219 C 264.164062 92.257812 264.425781 91.703125 264.714844 91.160156 C 265.003906 90.621094 265.320312 90.09375 265.660156 89.582031 C 266 89.074219 266.367188 88.578125 266.757812 88.105469 C 267.144531 87.628906 267.558594 87.175781 267.992188 86.742188 C 268.425781 86.308594 268.878906 85.894531 269.355469 85.507812 C 269.828125 85.117188 270.324219 84.75 270.832031 84.410156 C 271.34375 84.070312 271.871094 83.753906 272.410156 83.464844 C 272.953125 83.175781 273.507812 82.914062 274.074219 82.675781 C 274.640625 82.441406 275.21875 82.234375 275.808594 82.058594 C 276.394531 81.878906 276.988281 81.730469 277.59375 81.609375 C 278.195312 81.492188 278.800781 81.402344 279.414062 81.339844 C 280.023438 81.28125 280.636719 81.25 281.25 81.25 Z M 281.25 81.25 " fill-opacity="1" fill-rule="nonzero"/><g clip-path="url(#60229cd2e7)"><path fill="#2e2f2f" d="M 300 137.5 C 282.0625 137.5 267.0625 148.25 263.625 162.5 L 225 162.5 C 224.386719 162.5 223.773438 162.53125 223.164062 162.589844 C 222.550781 162.652344 221.945312 162.742188 221.34375 162.859375 C 220.738281 162.980469 220.144531 163.128906 219.558594 163.308594 C 218.96875 163.484375 218.390625 163.691406 217.824219 163.925781 C 217.257812 164.164062 216.703125 164.425781 216.160156 164.714844 C 215.621094 165.003906 215.09375 165.320312 214.582031 165.660156 C 214.074219 166 213.578125 166.367188 213.105469 166.757812 C 212.628906 167.144531 212.175781 167.558594 211.742188 167.992188 C 211.308594 168.425781 210.894531 168.878906 210.507812 169.355469 C 210.117188 169.828125 209.75 170.324219 209.410156 170.832031 C 209.070312 171.34375 208.753906 171.871094 208.464844 172.410156 C 208.175781 172.953125 207.914062 173.507812 207.675781 174.074219 C 207.441406 174.640625 207.234375 175.21875 207.058594 175.808594 C 206.878906 176.394531 206.730469 176.988281 206.609375 177.59375 C 206.492188 178.195312 206.402344 178.800781 206.339844 179.414062 C 206.28125 180.023438 206.25 180.636719 206.25 181.25 C 206.25 181.863281 206.28125 182.476562 206.339844 183.085938 C 206.402344 183.699219 206.492188 184.304688 206.609375 184.90625 C 206.730469 185.511719 206.878906 186.105469 207.058594 186.691406 C 207.234375 187.28125 207.441406 187.859375 207.675781 188.425781 C 207.914062 188.992188 208.175781 189.546875 208.464844 190.089844 C 208.753906 190.628906 209.070312 191.15625 209.410156 191.667969 C 209.75 192.175781 210.117188 192.671875 210.507812 193.144531 C 210.894531 193.621094 211.308594 194.074219 211.742188 194.507812 C 212.175781 194.941406 212.628906 195.355469 213.105469 195.742188 C 213.578125 196.132812 214.074219 196.5 214.582031 196.839844 C 215.09375 197.179688 215.621094 197.496094 216.160156 197.785156 C 216.703125 198.074219 217.257812 198.335938 217.824219 198.574219 C 218.390625 198.808594 218.96875 199.015625 219.558594 199.191406 C 220.144531 199.371094 220.738281 199.519531 221.34375 199.640625 C 221.945312 199.757812 222.550781 199.847656 223.164062 199.910156 C 223.773438 199.96875 224.386719 200 225 200 L 275 200 L 275 225 C 250.75 226.1875 238 234.875 231.5625 254.0625 L 218.75 330.25 C 218.679688 330.660156 218.648438 331.074219 218.660156 331.492188 C 218.671875 331.910156 218.726562 332.320312 218.820312 332.726562 C 218.914062 333.132812 219.046875 333.527344 219.21875 333.90625 C 219.394531 334.285156 219.601562 334.644531 219.847656 334.980469 C 220.089844 335.320312 220.367188 335.628906 220.671875 335.914062 C 220.980469 336.195312 221.3125 336.445312 221.667969 336.660156 C 222.023438 336.878906 222.398438 337.054688 222.792969 337.195312 C 223.183594 337.339844 223.585938 337.4375 224 337.5 L 225 337.5 C 225.371094 337.503906 225.742188 337.476562 226.105469 337.414062 C 226.472656 337.355469 226.832031 337.261719 227.183594 337.136719 C 227.53125 337.011719 227.867188 336.855469 228.191406 336.671875 C 228.511719 336.488281 228.816406 336.273438 229.101562 336.035156 C 229.386719 335.796875 229.644531 335.535156 229.882812 335.25 C 230.121094 334.964844 230.332031 334.660156 230.515625 334.335938 C 230.699219 334.011719 230.851562 333.675781 230.976562 333.324219 C 231.097656 332.976562 231.191406 332.617188 231.25 332.25 L 243.75 257.75 C 249 242.625 258.5625 237.5 281.25 237.5 C 281.660156 237.5 282.066406 237.460938 282.46875 237.378906 C 282.871094 237.300781 283.261719 237.179688 283.640625 237.023438 C 284.019531 236.867188 284.382812 236.675781 284.722656 236.445312 C 285.0625 236.21875 285.378906 235.960938 285.667969 235.667969 C 285.960938 235.378906 286.21875 235.0625 286.445312 234.722656 C 286.675781 234.382812 286.867188 234.019531 287.023438 233.640625 C 287.179688 233.261719 287.300781 232.871094 287.378906 232.46875 C 287.460938 232.066406 287.5 231.660156 287.5 231.25 L 287.5 197.0625 L 303.4375 186.4375 C 303.820312 186.230469 304.179688 185.988281 304.511719 185.707031 C 304.84375 185.429688 305.144531 185.117188 305.410156 184.773438 C 305.679688 184.429688 305.90625 184.066406 306.097656 183.675781 C 306.289062 183.285156 306.4375 182.878906 306.542969 182.457031 C 306.648438 182.035156 306.710938 181.605469 306.726562 181.171875 C 306.746094 180.738281 306.71875 180.304688 306.644531 179.875 C 306.570312 179.449219 306.453125 179.03125 306.292969 178.628906 C 306.132812 178.222656 305.933594 177.839844 305.691406 177.476562 C 305.453125 177.113281 305.179688 176.78125 304.867188 176.476562 C 304.558594 176.171875 304.21875 175.902344 303.855469 175.667969 C 303.488281 175.433594 303.101562 175.238281 302.695312 175.085938 C 302.289062 174.929688 301.871094 174.820312 301.441406 174.753906 C 301.011719 174.6875 300.578125 174.664062 300.144531 174.6875 C 299.710938 174.710938 299.285156 174.78125 298.863281 174.894531 C 298.441406 175.007812 298.039062 175.160156 297.652344 175.359375 C 297.265625 175.554688 296.902344 175.789062 296.5625 176.0625 L 279.375 187.5 L 225 187.5 C 224.589844 187.5 224.183594 187.460938 223.78125 187.378906 C 223.378906 187.300781 222.988281 187.179688 222.609375 187.023438 C 222.230469 186.867188 221.867188 186.675781 221.527344 186.445312 C 221.1875 186.21875 220.871094 185.960938 220.582031 185.667969 C 220.289062 185.378906 220.03125 185.0625 219.804688 184.722656 C 219.574219 184.382812 219.382812 184.019531 219.226562 183.640625 C 219.070312 183.261719 218.949219 182.871094 218.871094 182.46875 C 218.789062 182.066406 218.75 181.660156 218.75 181.25 C 218.75 180.839844 218.789062 180.433594 218.871094 180.03125 C 218.949219 179.628906 219.070312 179.238281 219.226562 178.859375 C 219.382812 178.480469 219.574219 178.117188 219.804688 177.777344 C 220.03125 177.4375 220.289062 177.121094 220.582031 176.832031 C 220.871094 176.539062 221.1875 176.28125 221.527344 176.054688 C 221.867188 175.824219 222.230469 175.632812 222.609375 175.476562 C 222.988281 175.320312 223.378906 175.199219 223.78125 175.121094 C 224.183594 175.039062 224.589844 175 225 175 L 269.125 175 C 269.535156 175 269.941406 174.960938 270.34375 174.878906 C 270.746094 174.800781 271.136719 174.679688 271.515625 174.523438 C 271.894531 174.367188 272.257812 174.175781 272.597656 173.945312 C 272.9375 173.71875 273.253906 173.460938 273.542969 173.167969 C 273.835938 172.878906 274.09375 172.5625 274.320312 172.222656 C 274.550781 171.882812 274.742188 171.519531 274.898438 171.140625 C 275.054688 170.761719 275.175781 170.371094 275.253906 169.96875 C 275.335938 169.566406 275.375 169.160156 275.375 168.75 C 275.375 158.4375 286.4375 150 300 150 C 320.6875 150 325 167 325 181.25 L 325 243.75 C 325 244.570312 324.917969 245.382812 324.761719 246.1875 C 324.601562 246.992188 324.363281 247.773438 324.046875 248.535156 C 323.734375 249.292969 323.347656 250.011719 322.894531 250.695312 C 322.4375 251.378906 321.917969 252.007812 321.339844 252.589844 C 320.757812 253.167969 320.128906 253.6875 319.445312 254.144531 C 318.761719 254.597656 318.042969 254.984375 317.285156 255.296875 C 316.523438 255.613281 315.742188 255.851562 314.9375 256.011719 C 314.132812 256.167969 313.320312 256.25 312.5 256.25 L 275 256.25 C 274.292969 256.226562 273.605469 256.320312 272.929688 256.527344 C 272.257812 256.738281 271.636719 257.050781 271.066406 257.472656 C 270.5 257.890625 270.019531 258.394531 269.621094 258.976562 C 269.222656 259.5625 268.933594 260.191406 268.75 260.875 L 250 329.625 C 249.894531 330.019531 249.832031 330.417969 249.804688 330.824219 C 249.777344 331.234375 249.792969 331.636719 249.84375 332.042969 C 249.898438 332.445312 249.988281 332.839844 250.121094 333.226562 C 250.25 333.613281 250.417969 333.984375 250.621094 334.335938 C 250.824219 334.691406 251.058594 335.019531 251.324219 335.328125 C 251.59375 335.636719 251.886719 335.914062 252.210938 336.164062 C 252.53125 336.414062 252.875 336.628906 253.238281 336.8125 C 253.605469 336.996094 253.980469 337.140625 254.375 337.25 C 254.984375 337.460938 255.609375 337.546875 256.25 337.5 C 256.957031 337.523438 257.644531 337.429688 258.320312 337.222656 C 258.992188 337.011719 259.613281 336.699219 260.183594 336.277344 C 260.75 335.859375 261.230469 335.355469 261.628906 334.773438 C 262.027344 334.1875 262.316406 333.558594 262.5 332.875 L 279.75 268.75 L 312.5 268.75 C 313.320312 268.75 314.136719 268.710938 314.949219 268.628906 C 315.765625 268.550781 316.574219 268.429688 317.378906 268.269531 C 318.179688 268.109375 318.972656 267.910156 319.757812 267.671875 C 320.539062 267.4375 321.3125 267.160156 322.066406 266.847656 C 322.824219 266.535156 323.5625 266.183594 324.285156 265.796875 C 325.007812 265.410156 325.707031 264.992188 326.390625 264.535156 C 327.070312 264.082031 327.726562 263.59375 328.359375 263.074219 C 328.992188 262.554688 329.597656 262.007812 330.175781 261.425781 C 330.757812 260.847656 331.304688 260.242188 331.824219 259.609375 C 332.34375 258.976562 332.832031 258.320312 333.285156 257.640625 C 333.742188 256.957031 334.160156 256.257812 334.546875 255.535156 C 334.933594 254.8125 335.285156 254.074219 335.597656 253.316406 C 335.910156 252.5625 336.1875 251.789062 336.421875 251.007812 C 336.660156 250.222656 336.859375 249.429688 337.019531 248.628906 C 337.179688 247.824219 337.300781 247.015625 337.378906 246.199219 C 337.460938 245.386719 337.5 244.570312 337.5 243.75 L 337.5 181.25 C 337.5 153.875 323.5 137.5 300 137.5 Z M 300 137.5 " fill-opacity="1" fill-rule="nonzero"/></g><g clip-path="url(#3ca5dd5e4b)"><path fill="#2e2f2f" d="M 256.25 218.75 C 256.660156 218.75 257.066406 218.710938 257.46875 218.628906 C 257.871094 218.550781 258.261719 218.429688 258.640625 218.273438 C 259.019531 218.117188 259.382812 217.925781 259.722656 217.695312 C 260.0625 217.46875 260.378906 217.210938 260.667969 216.917969 C 260.960938 216.628906 261.21875 216.3125 261.445312 215.972656 C 261.675781 215.632812 261.867188 215.269531 262.023438 214.890625 C 262.179688 214.511719 262.300781 214.121094 262.378906 213.71875 C 262.460938 213.316406 262.5 212.910156 262.5 212.5 C 262.5 212.089844 262.460938 211.683594 262.378906 211.28125 C 262.300781 210.878906 262.179688 210.488281 262.023438 210.109375 C 261.867188 209.730469 261.675781 209.367188 261.445312 209.027344 C 261.21875 208.6875 260.960938 208.371094 260.667969 208.082031 C 260.378906 207.789062 260.0625 207.53125 259.722656 207.304688 C 259.382812 207.074219 259.019531 206.882812 258.640625 206.726562 C 258.261719 206.570312 257.871094 206.449219 257.46875 206.371094 C 257.066406 206.289062 256.660156 206.25 256.25 206.25 L 118.75 206.25 C 118.339844 206.25 117.933594 206.289062 117.53125 206.371094 C 117.128906 206.449219 116.738281 206.570312 116.359375 206.726562 C 115.980469 206.882812 115.617188 207.074219 115.277344 207.304688 C 114.9375 207.53125 114.621094 207.789062 114.332031 208.082031 C 114.039062 208.371094 113.78125 208.6875 113.554688 209.027344 C 113.324219 209.367188 113.132812 209.730469 112.976562 210.109375 C 112.820312 210.488281 112.699219 210.878906 112.621094 211.28125 C 112.539062 211.683594 112.5 212.089844 112.5 212.5 C 112.5 212.910156 112.539062 213.316406 112.621094 213.71875 C 112.699219 214.121094 112.820312 214.511719 112.976562 214.890625 C 113.132812 215.269531 113.324219 215.632812 113.554688 215.972656 C 113.78125 216.3125 114.039062 216.628906 114.332031 216.917969 C 114.621094 217.210938 114.9375 217.46875 115.277344 217.695312 C 115.617188 217.925781 115.980469 218.117188 116.359375 218.273438 C 116.738281 218.429688 117.128906 218.550781 117.53125 218.628906 C 117.933594 218.710938 118.339844 218.75 118.75 218.75 L 181.25 218.75 L 181.25 331.25 C 181.25 331.660156 181.289062 332.066406 181.371094 332.46875 C 181.449219 332.871094 181.570312 333.261719 181.726562 333.640625 C 181.882812 334.019531 182.074219 334.382812 182.304688 334.722656 C 182.53125 335.0625 182.789062 335.378906 183.082031 335.667969 C 183.371094 335.960938 183.6875 336.21875 184.027344 336.445312 C 184.367188 336.675781 184.730469 336.867188 185.109375 337.023438 C 185.488281 337.179688 185.878906 337.300781 186.28125 337.378906 C 186.683594 337.460938 187.089844 337.5 187.5 337.5 C 187.910156 337.5 188.316406 337.460938 188.71875 337.378906 C 189.121094 337.300781 189.511719 337.179688 189.890625 337.023438 C 190.269531 336.867188 190.632812 336.675781 190.972656 336.445312 C 191.3125 336.21875 191.628906 335.960938 191.917969 335.667969 C 192.210938 335.378906 192.46875 335.0625 192.695312 334.722656 C 192.925781 334.382812 193.117188 334.019531 193.273438 333.640625 C 193.429688 333.261719 193.550781 332.871094 193.628906 332.46875 C 193.710938 332.066406 193.75 331.660156 193.75 331.25 L 193.75 218.75 Z M 256.25 218.75 " fill-opacity="1" fill-rule="nonzero"/></g><g clip-path="url(#eadff371e6)"><path fill="#2e2f2f" d="M 140.4375 124.0625 C 141.453125 124.691406 142.554688 125.003906 143.75 125 C 144.742188 124.992188 145.679688 124.765625 146.5625 124.3125 L 170.25 112.5 L 218.75 112.5 C 219.363281 112.5 219.976562 112.46875 220.585938 112.410156 C 221.199219 112.347656 221.804688 112.257812 222.40625 112.140625 C 223.011719 112.019531 223.605469 111.871094 224.191406 111.691406 C 224.78125 111.515625 225.359375 111.308594 225.925781 111.074219 C 226.492188 110.835938 227.046875 110.574219 227.589844 110.285156 C 228.128906 109.996094 228.65625 109.679688 229.167969 109.339844 C 229.675781 109 230.171875 108.632812 230.644531 108.242188 C 231.121094 107.855469 231.574219 107.441406 232.007812 107.007812 C 232.441406 106.574219 232.855469 106.121094 233.242188 105.644531 C 233.632812 105.171875 234 104.675781 234.339844 104.167969 C 234.679688 103.65625 234.996094 103.128906 235.285156 102.589844 C 235.574219 102.046875 235.835938 101.492188 236.074219 100.925781 C 236.308594 100.359375 236.515625 99.78125 236.691406 99.191406 C 236.871094 98.605469 237.019531 98.011719 237.140625 97.40625 C 237.257812 96.804688 237.347656 96.199219 237.410156 95.585938 C 237.46875 94.976562 237.5 94.363281 237.5 93.75 L 237.5 56.25 C 237.5 55.636719 237.46875 55.023438 237.410156 54.414062 C 237.347656 53.800781 237.257812 53.195312 237.140625 52.59375 C 237.019531 51.988281 236.871094 51.394531 236.691406 50.808594 C 236.515625 50.21875 236.308594 49.640625 236.074219 49.074219 C 235.835938 48.507812 235.574219 47.953125 235.285156 47.410156 C 234.996094 46.871094 234.679688 46.34375 234.339844 45.832031 C 234 45.324219 233.632812 44.828125 233.242188 44.355469 C 232.855469 43.878906 232.441406 43.425781 232.007812 42.992188 C 231.574219 42.558594 231.121094 42.144531 230.644531 41.757812 C 230.171875 41.367188 229.675781 41 229.167969 40.660156 C 228.65625 40.320312 228.128906 40.003906 227.589844 39.714844 C 227.046875 39.425781 226.492188 39.164062 225.925781 38.925781 C 225.359375 38.691406 224.78125 38.484375 224.191406 38.308594 C 223.605469 38.128906 223.011719 37.980469 222.40625 37.859375 C 221.804688 37.742188 221.199219 37.652344 220.585938 37.589844 C 219.976562 37.53125 219.363281 37.5 218.75 37.5 L 156.25 37.5 C 155.636719 37.5 155.023438 37.53125 154.414062 37.589844 C 153.800781 37.652344 153.195312 37.742188 152.59375 37.859375 C 151.988281 37.980469 151.394531 38.128906 150.808594 38.308594 C 150.21875 38.484375 149.640625 38.691406 149.074219 38.925781 C 148.507812 39.164062 147.953125 39.425781 147.410156 39.714844 C 146.871094 40.003906 146.34375 40.320312 145.832031 40.660156 C 145.324219 41 144.828125 41.367188 144.355469 41.757812 C 143.878906 42.144531 143.425781 42.558594 142.992188 42.992188 C 142.558594 43.425781 142.144531 43.878906 141.757812 44.355469 C 141.367188 44.828125 141 45.324219 140.660156 45.832031 C 140.320312 46.34375 140.003906 46.871094 139.714844 47.410156 C 139.425781 47.953125 139.164062 48.507812 138.925781 49.074219 C 138.691406 49.640625 138.484375 50.21875 138.308594 50.808594 C 138.128906 51.394531 137.980469 51.988281 137.859375 52.59375 C 137.742188 53.195312 137.652344 53.800781 137.589844 54.414062 C 137.53125 55.023438 137.5 55.636719 137.5 56.25 L 137.5 118.75 C 137.496094 119.828125 137.757812 120.84375 138.28125 121.785156 C 138.804688 122.730469 139.523438 123.492188 140.4375 124.0625 Z M 150 56.25 C 150 55.839844 150.039062 55.433594 150.121094 55.03125 C 150.199219 54.628906 150.320312 54.238281 150.476562 53.859375 C 150.632812 53.480469 150.824219 53.117188 151.054688 52.777344 C 151.28125 52.4375 151.539062 52.121094 151.832031 51.832031 C 152.121094 51.539062 152.4375 51.28125 152.777344 51.054688 C 153.117188 50.824219 153.480469 50.632812 153.859375 50.476562 C 154.238281 50.320312 154.628906 50.199219 155.03125 50.121094 C 155.433594 50.039062 155.839844 50 156.25 50 L 218.75 50 C 219.160156 50 219.566406 50.039062 219.96875 50.121094 C 220.371094 50.199219 220.761719 50.320312 221.140625 50.476562 C 221.519531 50.632812 221.882812 50.824219 222.222656 51.054688 C 222.5625 51.28125 222.878906 51.539062 223.167969 51.832031 C 223.460938 52.121094 223.71875 52.4375 223.945312 52.777344 C 224.175781 53.117188 224.367188 53.480469 224.523438 53.859375 C 224.679688 54.238281 224.800781 54.628906 224.878906 55.03125 C 224.960938 55.433594 225 55.839844 225 56.25 L 225 93.75 C 225 94.160156 224.960938 94.566406 224.878906 94.96875 C 224.800781 95.371094 224.679688 95.761719 224.523438 96.140625 C 224.367188 96.519531 224.175781 96.882812 223.945312 97.222656 C 223.71875 97.5625 223.460938 97.878906 223.167969 98.167969 C 222.878906 98.460938 222.5625 98.71875 222.222656 98.945312 C 221.882812 99.175781 221.519531 99.367188 221.140625 99.523438 C 220.761719 99.679688 220.371094 99.800781 219.96875 99.878906 C 219.566406 99.960938 219.160156 100 218.75 100 L 168.75 100 C 167.769531 100.015625 166.832031 100.222656 165.9375 100.625 L 150 108.625 Z M 150 56.25 " fill-opacity="1" fill-rule="nonzero"/></g><path fill="#2e2f2f" d="M 175 75 C 175 75.410156 174.960938 75.816406 174.878906 76.21875 C 174.800781 76.621094 174.679688 77.011719 174.523438 77.390625 C 174.367188 77.769531 174.175781 78.132812 173.945312 78.472656 C 173.71875 78.8125 173.460938 79.128906 173.167969 79.417969 C 172.878906 79.710938 172.5625 79.96875 172.222656 80.195312 C 171.882812 80.425781 171.519531 80.617188 171.140625 80.773438 C 170.761719 80.929688 170.371094 81.050781 169.96875 81.128906 C 169.566406 81.210938 169.160156 81.25 168.75 81.25 C 168.339844 81.25 167.933594 81.210938 167.53125 81.128906 C 167.128906 81.050781 166.738281 80.929688 166.359375 80.773438 C 165.980469 80.617188 165.617188 80.425781 165.277344 80.195312 C 164.9375 79.96875 164.621094 79.710938 164.332031 79.417969 C 164.039062 79.128906 163.78125 78.8125 163.554688 78.472656 C 163.324219 78.132812 163.132812 77.769531 162.976562 77.390625 C 162.820312 77.011719 162.699219 76.621094 162.621094 76.21875 C 162.539062 75.816406 162.5 75.410156 162.5 75 C 162.5 74.589844 162.539062 74.183594 162.621094 73.78125 C 162.699219 73.378906 162.820312 72.988281 162.976562 72.609375 C 163.132812 72.230469 163.324219 71.867188 163.554688 71.527344 C 163.78125 71.1875 164.039062 70.871094 164.332031 70.582031 C 164.621094 70.289062 164.9375 70.03125 165.277344 69.804688 C 165.617188 69.574219 165.980469 69.382812 166.359375 69.226562 C 166.738281 69.070312 167.128906 68.949219 167.53125 68.871094 C 167.933594 68.789062 168.339844 68.75 168.75 68.75 C 169.160156 68.75 169.566406 68.789062 169.96875 68.871094 C 170.371094 68.949219 170.761719 69.070312 171.140625 69.226562 C 171.519531 69.382812 171.882812 69.574219 172.222656 69.804688 C 172.5625 70.03125 172.878906 70.289062 173.167969 70.582031 C 173.460938 70.871094 173.71875 71.1875 173.945312 71.527344 C 174.175781 71.867188 174.367188 72.230469 174.523438 72.609375 C 174.679688 72.988281 174.800781 73.378906 174.878906 73.78125 C 174.960938 74.183594 175 74.589844 175 75 Z M 175 75 " fill-opacity="1" fill-rule="nonzero"/><path fill="#2e2f2f" d="M 193.75 75 C 193.75 75.410156 193.710938 75.816406 193.628906 76.21875 C 193.550781 76.621094 193.429688 77.011719 193.273438 77.390625 C 193.117188 77.769531 192.925781 78.132812 192.695312 78.472656 C 192.46875 78.8125 192.210938 79.128906 191.917969 79.417969 C 191.628906 79.710938 191.3125 79.96875 190.972656 80.195312 C 190.632812 80.425781 190.269531 80.617188 189.890625 80.773438 C 189.511719 80.929688 189.121094 81.050781 188.71875 81.128906 C 188.316406 81.210938 187.910156 81.25 187.5 81.25 C 187.089844 81.25 186.683594 81.210938 186.28125 81.128906 C 185.878906 81.050781 185.488281 80.929688 185.109375 80.773438 C 184.730469 80.617188 184.367188 80.425781 184.027344 80.195312 C 183.6875 79.96875 183.371094 79.710938 183.082031 79.417969 C 182.789062 79.128906 182.53125 78.8125 182.304688 78.472656 C 182.074219 78.132812 181.882812 77.769531 181.726562 77.390625 C 181.570312 77.011719 181.449219 76.621094 181.371094 76.21875 C 181.289062 75.816406 181.25 75.410156 181.25 75 C 181.25 74.589844 181.289062 74.183594 181.371094 73.78125 C 181.449219 73.378906 181.570312 72.988281 181.726562 72.609375 C 181.882812 72.230469 182.074219 71.867188 182.304688 71.527344 C 182.53125 71.1875 182.789062 70.871094 183.082031 70.582031 C 183.371094 70.289062 183.6875 70.03125 184.027344 69.804688 C 184.367188 69.574219 184.730469 69.382812 185.109375 69.226562 C 185.488281 69.070312 185.878906 68.949219 186.28125 68.871094 C 186.683594 68.789062 187.089844 68.75 187.5 68.75 C 187.910156 68.75 188.316406 68.789062 188.71875 68.871094 C 189.121094 68.949219 189.511719 69.070312 189.890625 69.226562 C 190.269531 69.382812 190.632812 69.574219 190.972656 69.804688 C 191.3125 70.03125 191.628906 70.289062 191.917969 70.582031 C 192.210938 70.871094 192.46875 71.1875 192.695312 71.527344 C 192.925781 71.867188 193.117188 72.230469 193.273438 72.609375 C 193.429688 72.988281 193.550781 73.378906 193.628906 73.78125 C 193.710938 74.183594 193.75 74.589844 193.75 75 Z M 193.75 75 " fill-opacity="1" fill-rule="nonzero"/><path fill="#2e2f2f" d="M 212.5 75 C 212.5 75.410156 212.460938 75.816406 212.378906 76.21875 C 212.300781 76.621094 212.179688 77.011719 212.023438 77.390625 C 211.867188 77.769531 211.675781 78.132812 211.445312 78.472656 C 211.21875 78.8125 210.960938 79.128906 210.667969 79.417969 C 210.378906 79.710938 210.0625 79.96875 209.722656 80.195312 C 209.382812 80.425781 209.019531 80.617188 208.640625 80.773438 C 208.261719 80.929688 207.871094 81.050781 207.46875 81.128906 C 207.066406 81.210938 206.660156 81.25 206.25 81.25 C 205.839844 81.25 205.433594 81.210938 205.03125 81.128906 C 204.628906 81.050781 204.238281 80.929688 203.859375 80.773438 C 203.480469 80.617188 203.117188 80.425781 202.777344 80.195312 C 202.4375 79.96875 202.121094 79.710938 201.832031 79.417969 C 201.539062 79.128906 201.28125 78.8125 201.054688 78.472656 C 200.824219 78.132812 200.632812 77.769531 200.476562 77.390625 C 200.320312 77.011719 200.199219 76.621094 200.121094 76.21875 C 200.039062 75.816406 200 75.410156 200 75 C 200 74.589844 200.039062 74.183594 200.121094 73.78125 C 200.199219 73.378906 200.320312 72.988281 200.476562 72.609375 C 200.632812 72.230469 200.824219 71.867188 201.054688 71.527344 C 201.28125 71.1875 201.539062 70.871094 201.832031 70.582031 C 202.121094 70.289062 202.4375 70.03125 202.777344 69.804688 C 203.117188 69.574219 203.480469 69.382812 203.859375 69.226562 C 204.238281 69.070312 204.628906 68.949219 205.03125 68.871094 C 205.433594 68.789062 205.839844 68.75 206.25 68.75 C 206.660156 68.75 207.066406 68.789062 207.46875 68.871094 C 207.871094 68.949219 208.261719 69.070312 208.640625 69.226562 C 209.019531 69.382812 209.382812 69.574219 209.722656 69.804688 C 210.0625 70.03125 210.378906 70.289062 210.667969 70.582031 C 210.960938 70.871094 211.21875 71.1875 211.445312 71.527344 C 211.675781 71.867188 211.867188 72.230469 212.023438 72.609375 C 212.179688 72.988281 212.300781 73.378906 212.378906 73.78125 C 212.460938 74.183594 212.5 74.589844 212.5 75 Z M 212.5 75 " fill-opacity="1" fill-rule="nonzero"/></svg>