<svg xmlns="http://www.w3.org/2000/svg" xmlns:xlink="http://www.w3.org/1999/xlink" width="500" zoomAndPan="magnify" viewBox="0 0 375 374.999991" height="500" preserveAspectRatio="xMidYMid meet" version="1.0"><defs><clipPath id="3aee70a6a9"><path d="M 112 162 L 337.5 162 L 337.5 327 L 112 327 Z M 112 162 " clip-rule="nonzero"/></clipPath><clipPath id="860e26d3c5"><path d="M 37.5 237 L 137 237 L 137 337 L 37.5 337 Z M 37.5 237 " clip-rule="nonzero"/></clipPath><clipPath id="fafa563700"><path d="M 37.5 48 L 48 48 L 48 59 L 37.5 59 Z M 37.5 48 " clip-rule="nonzero"/></clipPath></defs><rect x="-37.5" width="450" fill="#ffffff" y="-37.499999" height="449.999989" fill-opacity="1"/><rect x="-37.5" width="450" fill="#ffffff" y="-37.499999" height="449.999989" fill-opacity="1"/><path fill="#545454" d="M 270.28125 110.207031 L 270.214844 110.109375 C 266.890625 105.515625 260.394531 104.636719 255.96875 108.183594 L 215.71875 140.433594 L 180.445312 143.414062 C 174.570312 143.910156 169.222656 146.988281 165.839844 151.824219 L 135.253906 193.566406 C 131.226562 199.0625 134.105469 206.890625 140.738281 208.460938 C 144.402344 209.328125 148.238281 207.957031 150.515625 204.957031 L 178.207031 168.527344 L 181.132812 203.171875 L 171.316406 270.460938 C 170.320312 277.316406 176.46875 283.0625 183.238281 281.609375 L 187.03125 280.789062 C 190.992188 279.933594 194.035156 276.765625 194.730469 272.769531 L 206.292969 206.027344 L 230.566406 217.9375 C 231.679688 218.484375 232.542969 219.421875 233 220.574219 L 241.683594 244.957031 C 243.894531 251.164062 251.433594 253.539062 256.804688 249.714844 L 257.796875 249.003906 C 261.257812 246.542969 262.769531 242.144531 261.554688 238.078125 L 251.484375 204.277344 C 251.070312 202.996094 250.152344 201.933594 248.941406 201.335938 L 226.242188 189.5 L 222.335938 159.804688 L 268.347656 123.871094 C 272.5625 120.574219 273.421875 114.535156 270.28125 110.207031 Z M 270.28125 110.207031 " fill-opacity="1" fill-rule="nonzero"/><path fill="#545454" d="M 214.523438 122.929688 C 214.523438 123.582031 214.492188 124.230469 214.429688 124.878906 C 214.367188 125.523438 214.269531 126.167969 214.144531 126.804688 C 214.015625 127.445312 213.859375 128.074219 213.667969 128.699219 C 213.480469 129.320312 213.261719 129.933594 213.011719 130.535156 C 212.761719 131.132812 212.484375 131.722656 212.179688 132.296875 C 211.871094 132.871094 211.539062 133.425781 211.175781 133.96875 C 210.816406 134.507812 210.429688 135.03125 210.015625 135.535156 C 209.601562 136.039062 209.164062 136.519531 208.707031 136.980469 C 208.246094 137.4375 207.765625 137.875 207.261719 138.289062 C 206.757812 138.699219 206.234375 139.089844 205.695312 139.449219 C 205.152344 139.8125 204.597656 140.144531 204.023438 140.453125 C 203.449219 140.757812 202.863281 141.035156 202.261719 141.285156 C 201.660156 141.535156 201.046875 141.753906 200.425781 141.941406 C 199.800781 142.132812 199.171875 142.289062 198.53125 142.417969 C 197.894531 142.542969 197.253906 142.636719 196.605469 142.703125 C 195.957031 142.765625 195.308594 142.796875 194.65625 142.796875 C 194.007812 142.796875 193.359375 142.765625 192.710938 142.703125 C 192.0625 142.636719 191.417969 142.542969 190.78125 142.417969 C 190.144531 142.289062 189.511719 142.132812 188.890625 141.941406 C 188.265625 141.753906 187.65625 141.535156 187.054688 141.285156 C 186.453125 141.035156 185.867188 140.757812 185.292969 140.453125 C 184.71875 140.144531 184.160156 139.8125 183.621094 139.449219 C 183.078125 139.089844 182.554688 138.699219 182.054688 138.289062 C 181.550781 137.875 181.070312 137.4375 180.609375 136.980469 C 180.148438 136.519531 179.710938 136.039062 179.300781 135.535156 C 178.886719 135.03125 178.5 134.507812 178.136719 133.96875 C 177.777344 133.425781 177.441406 132.871094 177.136719 132.296875 C 176.828125 131.722656 176.550781 131.132812 176.300781 130.535156 C 176.054688 129.933594 175.835938 129.320312 175.644531 128.699219 C 175.457031 128.074219 175.296875 127.445312 175.171875 126.804688 C 175.042969 126.167969 174.949219 125.523438 174.886719 124.878906 C 174.820312 124.230469 174.789062 123.582031 174.789062 122.929688 C 174.789062 122.28125 174.820312 121.628906 174.886719 120.984375 C 174.949219 120.335938 175.042969 119.691406 175.171875 119.054688 C 175.296875 118.417969 175.457031 117.785156 175.644531 117.164062 C 175.835938 116.539062 176.054688 115.929688 176.300781 115.328125 C 176.550781 114.726562 176.828125 114.140625 177.136719 113.566406 C 177.441406 112.992188 177.777344 112.433594 178.136719 111.894531 C 178.5 111.351562 178.886719 110.828125 179.300781 110.328125 C 179.710938 109.824219 180.148438 109.34375 180.609375 108.882812 C 181.070312 108.421875 181.550781 107.984375 182.054688 107.574219 C 182.554688 107.160156 183.078125 106.773438 183.621094 106.410156 C 184.160156 106.050781 184.71875 105.714844 185.292969 105.410156 C 185.867188 105.101562 186.453125 104.824219 187.054688 104.574219 C 187.65625 104.328125 188.265625 104.105469 188.890625 103.917969 C 189.511719 103.730469 190.144531 103.570312 190.78125 103.445312 C 191.417969 103.316406 192.0625 103.222656 192.710938 103.160156 C 193.359375 103.09375 194.007812 103.0625 194.65625 103.0625 C 195.308594 103.0625 195.957031 103.09375 196.605469 103.160156 C 197.253906 103.222656 197.894531 103.316406 198.53125 103.445312 C 199.171875 103.570312 199.800781 103.730469 200.425781 103.917969 C 201.046875 104.105469 201.660156 104.328125 202.261719 104.574219 C 202.863281 104.824219 203.449219 105.101562 204.023438 105.410156 C 204.597656 105.714844 205.152344 106.050781 205.695312 106.410156 C 206.234375 106.773438 206.757812 107.160156 207.261719 107.574219 C 207.765625 107.984375 208.246094 108.421875 208.707031 108.882812 C 209.164062 109.34375 209.601562 109.824219 210.015625 110.328125 C 210.429688 110.828125 210.816406 111.351562 211.175781 111.894531 C 211.539062 112.433594 211.871094 112.992188 212.179688 113.566406 C 212.484375 114.140625 212.761719 114.726562 213.011719 115.328125 C 213.261719 115.929688 213.480469 116.539062 213.667969 117.164062 C 213.859375 117.785156 214.015625 118.417969 214.144531 119.054688 C 214.269531 119.691406 214.367188 120.335938 214.429688 120.984375 C 214.492188 121.628906 214.523438 122.28125 214.523438 122.929688 Z M 214.523438 122.929688 " fill-opacity="1" fill-rule="nonzero"/><g clip-path="url(#3aee70a6a9)"><path fill="#545454" d="M 325.578125 162.664062 L 280.878906 187.5 L 300.746094 192.46875 C 289.019531 208.835938 256.085938 250.183594 196.441406 271.9375 C 191.152344 273.863281 185.933594 275.539062 180.808594 276.984375 C 171.902344 279.492188 162.933594 282.042969 151.738281 283.078125 C 144.585938 283.738281 134.335938 283.980469 121.9375 281.871094 L 112.003906 326.574219 L 131.566406 326.574219 C 135.078125 326.574219 138.617188 326.371094 142.085938 325.863281 C 257.5625 309.039062 308.15625 218.769531 321.003906 199.277344 L 337.621094 206.886719 Z M 325.578125 162.664062 " fill-opacity="1" fill-rule="nonzero"/></g><path fill="#545454" d="M 305.710938 38.492188 L 314.921875 58.113281 L 335.511719 61.261719 L 320.613281 76.53125 L 324.128906 98.097656 L 305.710938 87.914062 L 287.292969 98.097656 L 290.8125 76.53125 L 275.910156 61.261719 L 296.503906 58.113281 Z M 305.710938 38.492188 " fill-opacity="1" fill-rule="nonzero"/><g clip-path="url(#860e26d3c5)"><path fill="#545454" d="M 136.835938 296.792969 L 136.835938 276.882812 L 125.578125 276.882812 C 124.644531 273.269531 123.222656 269.855469 121.371094 266.710938 L 129.328125 258.753906 L 115.25 244.679688 L 107.292969 252.636719 C 104.152344 250.78125 100.738281 249.359375 97.121094 248.417969 L 97.121094 237.167969 L 77.214844 237.167969 L 77.214844 248.402344 C 73.589844 249.335938 70.171875 250.761719 67.023438 252.617188 L 59.085938 244.679688 L 45.011719 258.753906 L 52.941406 266.6875 C 51.085938 269.835938 49.660156 273.253906 48.71875 276.882812 L 37.5 276.882812 L 37.5 296.792969 L 48.71875 296.792969 C 49.660156 300.417969 51.085938 303.839844 52.941406 306.984375 L 45.011719 314.914062 L 59.085938 328.992188 L 67.023438 321.054688 C 70.167969 322.90625 73.589844 324.332031 77.214844 325.265625 L 77.214844 336.507812 L 97.121094 336.507812 L 97.121094 325.261719 C 100.742188 324.324219 104.15625 322.898438 107.300781 321.042969 L 115.25 328.996094 L 129.328125 314.921875 L 121.371094 306.964844 C 123.222656 303.824219 124.644531 300.414062 125.578125 296.792969 Z M 87.167969 306.707031 C 76.195312 306.707031 67.300781 297.808594 67.300781 286.835938 C 67.300781 275.867188 76.195312 266.96875 87.167969 266.96875 C 98.140625 266.96875 107.035156 275.867188 107.035156 286.835938 C 107.035156 297.808594 98.140625 306.707031 87.167969 306.707031 Z M 87.167969 306.707031 " fill-opacity="1" fill-rule="nonzero"/></g><path fill="#545454" d="M 47.433594 38.492188 L 57.367188 38.492188 L 57.367188 48.425781 L 47.433594 48.425781 Z M 47.433594 38.492188 " fill-opacity="1" fill-rule="nonzero"/><path fill="#545454" d="M 57.367188 48.425781 L 67.300781 48.425781 L 67.300781 58.359375 L 57.367188 58.359375 Z M 57.367188 48.425781 " fill-opacity="1" fill-rule="nonzero"/><g clip-path="url(#fafa563700)"><path fill="#545454" d="M 37.5 48.425781 L 47.433594 48.425781 L 47.433594 58.359375 L 37.5 58.359375 Z M 37.5 48.425781 " fill-opacity="1" fill-rule="nonzero"/></g><path fill="#545454" d="M 47.433594 58.359375 L 57.367188 58.359375 L 57.367188 68.292969 L 47.433594 68.292969 Z M 47.433594 58.359375 " fill-opacity="1" fill-rule="nonzero"/><path fill="#545454" d="M 87.167969 53.394531 L 97.101562 53.394531 L 97.101562 63.328125 L 87.167969 63.328125 Z M 87.167969 53.394531 " fill-opacity="1" fill-rule="nonzero"/><path fill="#545454" d="M 97.101562 63.328125 L 107.035156 63.328125 L 107.035156 73.261719 L 97.101562 73.261719 Z M 97.101562 63.328125 " fill-opacity="1" fill-rule="nonzero"/><path fill="#545454" d="M 77.234375 63.328125 L 87.167969 63.328125 L 87.167969 73.261719 L 77.234375 73.261719 Z M 77.234375 63.328125 " fill-opacity="1" fill-rule="nonzero"/><path fill="#545454" d="M 87.167969 73.261719 L 97.101562 73.261719 L 97.101562 83.195312 L 87.167969 83.195312 Z M 87.167969 73.261719 " fill-opacity="1" fill-rule="nonzero"/><path fill="#545454" d="M 315.644531 306.707031 L 325.578125 306.707031 L 325.578125 316.640625 L 315.644531 316.640625 Z M 315.644531 306.707031 " fill-opacity="1" fill-rule="nonzero"/><path fill="#545454" d="M 325.578125 316.640625 L 335.511719 316.640625 L 335.511719 326.574219 L 325.578125 326.574219 Z M 325.578125 316.640625 " fill-opacity="1" fill-rule="nonzero"/><path fill="#545454" d="M 305.710938 316.640625 L 315.644531 316.640625 L 315.644531 326.574219 L 305.710938 326.574219 Z M 305.710938 316.640625 " fill-opacity="1" fill-rule="nonzero"/><path fill="#545454" d="M 315.644531 326.574219 L 325.578125 326.574219 L 325.578125 336.507812 L 315.644531 336.507812 Z M 315.644531 326.574219 " fill-opacity="1" fill-rule="nonzero"/></svg>