<?xml version="1.0" encoding="UTF-8"?>
<svg width="500" height="500" version="1.0" viewBox="0 0 375 375" xmlns="http://www.w3.org/2000/svg" zoomAndPan="magnify">
<defs>
<clipPath id="a">
<path d="m37.5 37.5h300v300h-300z"/>
</clipPath>
</defs>
<g clip-path="url(#a)">
<path d="m335.05 93.852c-1.2734-0.87109-2.8945-1.0625-4.332-0.49609l-35.336 13.742-28.316-28.316 1.0195-20.035c0.10156-1.9766-1.0547-3.7969-2.8828-4.5547l-38.328-15.898c-1.8242-0.74219-3.9375-0.28125-5.2617 1.1875l-13.473 14.91h-41.289l-13.469-14.91c-1.3281-1.4688-3.4297-1.9297-5.2656-1.1875l-38.328 15.898c-1.8281 0.75781-2.9805 2.5781-2.8828 4.5547l1.0195 20.035-29.184 29.188-3.9062-0.1875-30.375-13.348c-1.4492-0.64062-3.1172-0.50781-4.4375 0.36328-1.3203 0.86328-2.1172 2.332-2.1172 3.9141v88.816c0 1.8945 1.1406 3.6055 2.8945 4.3242l13.559 5.5898v10.73l-14.91 13.473c-1.4688 1.3281-1.9453 3.4375-1.1875 5.2656l15.895 38.328c0.75391 1.8242 2.4297 3 4.5586 2.8789l20.035-1.0156 29.176 29.176-1.0156 20.035c-0.10156 1.9766 1.0547 3.7969 2.8789 4.5547l38.328 15.898c1.832 0.74609 3.9414 0.28125 5.2656-1.1875l13.473-14.91h41.285l13.473 14.91c0.91016 1.0039 2.1719 1.543 3.4688 1.543 0.60547 0 1.2148-0.11719 1.7969-0.35547l38.328-15.895c1.8242-0.75781 2.9805-2.582 2.8789-4.5586l-1.0156-20.035 29.176-29.176 20.035 1.0156c2.0898 0.10156 3.7969-1.0547 4.5547-2.8789l15.898-38.328c0.75781-1.8281 0.28125-3.9375-1.1875-5.2656l-14.91-13.473v-26.5l13.348-4.7656c1.8633-0.66016 3.1055-2.4219 3.1055-4.4023v-74.793c-0.003906-1.543-0.76562-2.9883-2.0391-3.8594zm-219.04-9.9297c0.93359-0.93359 1.4258-2.2227 1.3633-3.543l-0.95703-18.812 32.242-13.371 12.648 14.004c0.88672 0.98047 2.1484 1.543 3.4727 1.543h45.441c1.3242 0 2.582-0.5625 3.4688-1.543l12.648-14.004 32.246 13.371-0.96094 18.812c-0.0625 1.3203 0.42969 2.6094 1.3672 3.543l26.875 26.879-21.547 8.3789c-19.559-21.945-47.348-34.496-76.82-34.496-31.141 0-59.895 13.703-79.504 37.668l-21.129-9.2852zm-68.754 21.949 83.504 36.695c3.3164 1.4609 7.0234 1.5938 10.438 0.34375l33.352-12.129c5.8438-2.1172 12.191-2.4727 18.191-1.1641l-26.547 13.246c-3.6641 1.8359-6.5625 4.7539-8.3555 8.4062l-9.0625 18.133c-1.332 2.6523-1.5508 5.6523-0.62109 8.4453 0.92969 2.7852 2.9023 5.0508 5.5664 6.3906 3.9258 1.9492 8.7461 1.3438 11.828-1.2383l19.395-15.523 10.781-2.707c2.9414-0.73047 5.9492-0.039062 8.4727 2.0586l23.469 17.484c4.2891 3.1953 8.7695 6.0078 13.301 8.3398l12.828 6.7188c0.21484 1.0039 0.089844 2.0664-0.42188 3.0742l-2.0234 4.1328c-0.56641 1.1172-1.5352 1.9414-2.7383 2.3398-1.1953 0.39844-2.457 0.30078-3.5586-0.26953l-4.1641-2.1055c-0.003906 0-0.007813-0.007813-0.015625-0.007813l-21.922-10.984c-2.3281-1.1484-5.1172-0.21484-6.2773 2.0859-1.1523 2.3086-0.21875 5.1172 2.0859 6.2773l21.895 10.965c2.3125 1.1797 3.2422 4 2.0469 6.3398l-2.0352 4.125c-0.57031 1.1328-1.5547 1.9727-2.7578 2.3672-1.1758 0.38281-2.4375 0.29297-3.5391-0.27344l-4.1602-2.1016h-0.011719v-0.003907l-19.59-9.8164c-2.3086-1.1602-5.1211-0.22656-6.2734 2.0781-1.1562 2.3125-0.22266 5.1172 2.082 6.2734l19.559 9.8047c2.3867 1.2188 3.5039 3.4375 2.9062 4.6172l-1.6953 3.3555c-0.24219 0.49219-0.78125 0.75781-1.1914 0.89453-1.2305 0.39844-2.7773 0.21094-4.2148-0.52734l-12.531-6.2617h-0.007812l-10.926-5.6289c-2.2969-1.1914-5.1172-0.28125-6.2969 2.0117-1.1797 2.2969-0.28125 5.1133 2.0156 6.2969l11.031 5.6836c1.0977 0.54688 1.918 1.5078 2.3164 2.6992 0.39844 1.1914 0.30859 2.4531-0.22266 3.5234-0.58594 1.1367-1.543 1.9727-2.7891 2.3789-1.1523 0.40234-2.3945 0.30469-3.543-0.28125l-12.922-6.4219c0-1.5664-0.30859-3.1328-0.95312-4.6133-1.2344-2.8672-3.5156-5.0781-6.4141-6.2344-1.6484-0.65234-3.3828-0.875-5.0938-0.75781-0.18359-0.72266-0.38672-1.4453-0.69141-2.1445-1.4805-3.4375-4.2148-6.0898-7.6992-7.4766-3.25-1.2852-6.7812-1.2695-10.043-0.058594-1.4844-3-3.9922-5.5078-7.3359-6.8359-3.4805-1.3828-7.293-1.3242-10.734 0.16016-0.96875 0.41797-1.8516 0.95703-2.6836 1.5586-1.4688-1.8242-3.3633-3.3477-5.6875-4.2695-2.0586-0.8125-4.2227-1.0625-6.3672-0.87891l-59.34-24.457c-0.003906 0-0.007812-0.003906-0.011719-0.003906l-13.594-5.6016zm126.28 143.2h0.011719l-1.7344 4.3438 1.7188-4.3477-4.3398-1.7227 0.86328-2.1758c0.30859-0.78125 0.91016-1.1367 1.2422-1.2773 0.19922-0.089844 0.52734-0.19922 0.92969-0.19922 0.26172 0 0.55078 0.046875 0.85938 0.17188 1.1992 0.47266 1.7852 1.832 1.3086 3.0312l-0.86328 2.1758h0.003906zm-12.172-7.3477-0.86328 2.1719-8.6953-3.4453 1.7266-4.3477c0.46094-1.1602 1.3477-2.0742 2.4922-2.5664 0.59375-0.25781 1.2266-0.38672 1.8555-0.38672 0.57813 0 1.1641 0.10938 1.7188 0.33203 1.1602 0.46094 2.0742 1.3477 2.5703 2.4922 0.49609 1.1484 0.51172 2.418 0.050781 3.582l-0.85156 2.1523c0 0.003906-0.003906 0.007813-0.003906 0.015625zm-18.25-4.7227-8.6875-3.4453 1.7266-4.3477c0.46094-1.1641 1.3477-2.0703 2.4922-2.5703 1.1484-0.49219 2.4141-0.51562 3.5742-0.046874 2.3984 0.94922 3.5703 3.668 2.6211 6.0664zm-23.574-12.91c0.59375-0.25781 1.2227-0.38672 1.8555-0.38672 0.57812 0 1.1641 0.10938 1.7188 0.33203 2.3984 0.94922 3.5703 3.6719 2.6172 6.0664l-8.6836-3.4453c0.46094-1.1602 1.3438-2.0742 2.4922-2.5664zm193.29-10.367 14.004 12.648-13.375 32.246-18.812-0.96094c-1.3242-0.046875-2.6094 0.42969-3.5391 1.3672l-32.117 32.117c-0.9375 0.93359-1.4297 2.2227-1.3672 3.5391l0.96094 18.812-32.246 13.375-12.648-14.004c-0.88672-0.98047-2.1445-1.543-3.4688-1.543h-45.441c-1.3242 0-2.5859 0.5625-3.4727 1.543l-12.648 14.004-32.242-13.375 0.95703-18.812c0.0625-1.3164-0.42969-2.6055-1.3633-3.5391l-32.117-32.117c-0.92969-0.9375-2.2031-1.4141-3.543-1.3672l-18.812 0.96094-13.371-32.246 14-12.648c0.98438-0.88672 1.5469-2.1445 1.5469-3.4688v-8.957l46.227 19.055c-0.62109 0.88281-1.1719 1.8242-1.582 2.8516-0.92188 2.3242-0.88672 4.8672 0.10938 7.1602 0.99219 2.2969 2.8125 4.0625 5.1328 4.9805l8.6914 3.4492h0.003906c1.1133 0.44531 2.2773 0.66406 3.4414 0.66406 0.46094 0 0.92188-0.074219 1.3789-0.14062 1.0039 1.2852 2.3086 2.3086 3.8633 2.9258l8.6914 3.4492h0.003906c1.1211 0.44531 2.2852 0.66406 3.4492 0.66406 0.46094 0 0.92188-0.074218 1.3828-0.14453 0.98438 1.2539 2.2695 2.2969 3.8555 2.9297l8.6875 3.4453c1.1289 0.44531 2.293 0.65625 3.4375 0.65625 0.46094 0 0.89453-0.13281 1.3438-0.19922 0.99219 1.2852 2.3008 2.3516 3.918 2.9922l4.3359 1.7188c1.1172 0.44531 2.2891 0.67188 3.457 0.67188 1.2578 0 2.5156-0.26172 3.707-0.77344 1.4141-0.61328 2.6016-1.5742 3.5391-2.7422l11.836 5.8789c2.0039 1.0234 4.1641 1.5391 6.3125 1.5391 1.4922 0 2.9766-0.25 4.4062-0.74609 3.5391-1.1484 6.4258-3.6328 8.1602-7.0273 0.72656-1.4492 1.1367-2.9922 1.3281-4.5586l0.73438 0.36719c2.25 1.1445 4.6875 1.7305 7.0703 1.7305 1.4727 0 2.9258-0.22656 4.3008-0.67578 2.9727-0.98828 5.3281-2.9805 6.6133-5.5898l1.6758-3.3125c0.85938-1.6914 1.168-3.5234 1.0859-5.3633 0.83984-0.11328 1.6797-0.28125 2.5039-0.55469 3.5859-1.168 6.5-3.668 8.2148-7.0703l2.0273-4.1094c1.1484-2.2461 1.5625-4.6562 1.4453-7.0156 1.0156-0.10156 2.0312-0.27344 3.0273-0.59766 3.5586-1.168 6.4531-3.6445 8.1875-7.0391l2.0273-4.1445c0.70703-1.3906 1.0742-2.8789 1.2852-4.3867 0.003906 0 0.011719 0 0.015625-0.003907l17.441-6.2227c-4.3281 47.461-44.625 85.02-92.988 85.02-38.043 0-71.973-22.715-86.449-57.879-0.98047-2.3828-3.707-3.5039-6.1055-2.543-2.3867 0.98438-3.5234 3.7188-2.543 6.1055 15.926 38.676 53.254 63.664 95.098 63.664 54.66 0 100.03-43.59 102.66-97.82l21.129-7.543v25.242c0 1.3242 0.5625 2.5859 1.543 3.4688zm14.91-44.508-66.234 23.641-16.23-8.4961c-4.0977-2.1133-8.1445-4.6523-12.02-7.5391l-23.266-17.32c-4.5508-3.8125-10.734-5.2422-16.523-3.8008l-10.617 2.6719c-1.3359 0.27734-2.6406 0.91406-3.7422 1.8086l-19.477 15.59c-0.42187 0.35156-1.1094 0.41406-1.7305 0.10938-0.86719-0.4375-1.2031-1.4219-0.76172-2.2891l9.0781-18.168c0.89844-1.832 2.3359-3.2812 4.1523-4.1914l27.844-13.891c2.543-1.2969 5.5898-1.7422 8.5234-1.293l14.398 2.4297c5.5859 0.9375 11.488 0.69922 17.078-0.67969 2.5117-0.61719 4.043-3.1445 3.4258-5.6523-0.61328-2.5117-3.1406-4.0664-5.6523-3.4258-4.3828 1.0742-8.9883 1.2656-13.297 0.53516l-10.395-1.75-8.7852-4.082c-9.9961-4.6914-21.699-5.2109-32.148-1.4258l-33.359 12.133c-1.1367 0.41406-2.3672 0.375-3.4766-0.11328l-17.641-7.75c17.77-20.551 43.18-32.227 70.613-32.227 25.621 0 49.84 10.426 67.465 28.781l-3.7109 1.4453c-2.4062 0.93359-3.5977 3.6406-2.6641 6.0469 0.9375 2.4062 3.6602 3.6016 6.0508 2.6641l9.6055-3.7383c0.10938-0.027344 0.21094-0.082031 0.31641-0.12109l31.219-12.141c0.14453-0.050781 0.28125-0.10156 0.42578-0.16406l31.535-12.266z" fill="#545454"/>
</g>
</svg>
