<svg xmlns="http://www.w3.org/2000/svg" xmlns:xlink="http://www.w3.org/1999/xlink" width="500" zoomAndPan="magnify" viewBox="0 0 375 374.999991" height="500" preserveAspectRatio="xMidYMid meet" version="1.0"><defs><clipPath id="b586ebb6e9"><path d="M 37.5 37.5 L 337.5 37.5 L 337.5 337.5 L 37.5 337.5 Z M 37.5 37.5 " clip-rule="nonzero"/></clipPath></defs><g clip-path="url(#b586ebb6e9)"><path fill="#545454" d="M 187.5 37.5 C 185.046875 37.5 182.589844 37.558594 180.140625 37.679688 C 177.6875 37.800781 175.242188 37.980469 172.796875 38.222656 C 170.355469 38.464844 167.917969 38.761719 165.492188 39.125 C 163.0625 39.484375 160.644531 39.902344 158.238281 40.382812 C 155.828125 40.859375 153.433594 41.398438 151.054688 41.996094 C 148.671875 42.589844 146.304688 43.246094 143.957031 43.957031 C 141.609375 44.671875 139.277344 45.441406 136.964844 46.269531 C 134.65625 47.09375 132.367188 47.980469 130.097656 48.917969 C 127.828125 49.859375 125.585938 50.851562 123.367188 51.902344 C 121.148438 52.953125 118.957031 54.054688 116.789062 55.210938 C 114.625 56.367188 112.488281 57.578125 110.382812 58.839844 C 108.277344 60.101562 106.207031 61.414062 104.164062 62.78125 C 102.125 64.144531 100.117188 65.554688 98.144531 67.019531 C 96.171875 68.480469 94.238281 69.992188 92.339844 71.546875 C 90.445312 73.105469 88.585938 74.707031 86.765625 76.355469 C 84.945312 78.007812 83.167969 79.699219 81.433594 81.433594 C 79.699219 83.167969 78.007812 84.945312 76.355469 86.765625 C 74.707031 88.585938 73.105469 90.445312 71.546875 92.339844 C 69.992188 94.238281 68.480469 96.171875 67.019531 98.144531 C 65.554688 100.117188 64.144531 102.125 62.78125 104.164062 C 61.414062 106.207031 60.101562 108.277344 58.839844 110.382812 C 57.578125 112.488281 56.367188 114.625 55.210938 116.789062 C 54.054688 118.957031 52.953125 121.148438 51.902344 123.367188 C 50.851562 125.585938 49.859375 127.828125 48.917969 130.097656 C 47.980469 132.367188 47.09375 134.65625 46.269531 136.964844 C 45.441406 139.277344 44.671875 141.609375 43.957031 143.957031 C 43.246094 146.304688 42.589844 148.671875 41.996094 151.054688 C 41.398438 153.433594 40.859375 155.828125 40.382812 158.238281 C 39.902344 160.644531 39.484375 163.0625 39.125 165.492188 C 38.761719 167.917969 38.464844 170.355469 38.222656 172.796875 C 37.980469 175.242188 37.800781 177.6875 37.679688 180.140625 C 37.558594 182.589844 37.5 185.046875 37.5 187.5 C 37.5 189.953125 37.558594 192.410156 37.679688 194.859375 C 37.800781 197.3125 37.980469 199.757812 38.222656 202.203125 C 38.464844 204.644531 38.761719 207.082031 39.125 209.507812 C 39.484375 211.9375 39.902344 214.355469 40.382812 216.761719 C 40.859375 219.171875 41.398438 221.566406 41.996094 223.945312 C 42.589844 226.328125 43.246094 228.695312 43.957031 231.042969 C 44.671875 233.390625 45.441406 235.722656 46.269531 238.035156 C 47.09375 240.34375 47.980469 242.632812 48.917969 244.902344 C 49.859375 247.171875 50.851562 249.414062 51.902344 251.632812 C 52.953125 253.851562 54.054688 256.042969 55.210938 258.210938 C 56.367188 260.375 57.578125 262.511719 58.839844 264.617188 C 60.101562 266.722656 61.414062 268.792969 62.78125 270.835938 C 64.144531 272.875 65.554688 274.882812 67.019531 276.855469 C 68.480469 278.828125 69.992188 280.761719 71.546875 282.660156 C 73.105469 284.554688 74.707031 286.414062 76.355469 288.234375 C 78.007812 290.054688 79.699219 291.832031 81.433594 293.566406 C 83.167969 295.300781 84.945312 296.992188 86.765625 298.644531 C 88.585938 300.292969 90.445312 301.894531 92.339844 303.453125 C 94.238281 305.007812 96.171875 306.519531 98.144531 307.980469 C 100.117188 309.445312 102.125 310.855469 104.164062 312.21875 C 106.207031 313.585938 108.277344 314.898438 110.382812 316.160156 C 112.488281 317.421875 114.625 318.632812 116.789062 319.789062 C 118.957031 320.945312 121.148438 322.046875 123.367188 323.097656 C 125.585938 324.148438 127.828125 325.140625 130.097656 326.082031 C 132.367188 327.019531 134.65625 327.90625 136.964844 328.730469 C 139.277344 329.558594 141.609375 330.328125 143.957031 331.039062 C 146.304688 331.753906 148.671875 332.40625 151.054688 333.003906 C 153.433594 333.601562 155.828125 334.140625 158.238281 334.617188 C 160.644531 335.097656 163.0625 335.515625 165.492188 335.875 C 167.917969 336.238281 170.355469 336.535156 172.796875 336.777344 C 175.242188 337.019531 177.6875 337.199219 180.140625 337.320312 C 182.589844 337.441406 185.046875 337.5 187.5 337.5 C 189.953125 337.5 192.410156 337.441406 194.859375 337.320312 C 197.3125 337.199219 199.757812 337.019531 202.203125 336.777344 C 204.644531 336.535156 207.082031 336.238281 209.507812 335.875 C 211.9375 335.515625 214.355469 335.097656 216.761719 334.617188 C 219.171875 334.140625 221.566406 333.601562 223.945312 333.003906 C 226.328125 332.40625 228.695312 331.753906 231.042969 331.039062 C 233.390625 330.328125 235.722656 329.558594 238.035156 328.730469 C 240.34375 327.90625 242.632812 327.019531 244.902344 326.082031 C 247.171875 325.140625 249.414062 324.148438 251.632812 323.097656 C 253.851562 322.046875 256.042969 320.945312 258.210938 319.789062 C 260.375 318.632812 262.511719 317.421875 264.617188 316.160156 C 266.722656 314.898438 268.792969 313.585938 270.835938 312.21875 C 272.875 310.855469 274.882812 309.445312 276.855469 307.980469 C 278.828125 306.519531 280.761719 305.007812 282.660156 303.453125 C 284.554688 301.894531 286.414062 300.292969 288.234375 298.644531 C 290.054688 296.992188 291.832031 295.300781 293.566406 293.566406 C 295.300781 291.832031 296.992188 290.054688 298.644531 288.234375 C 300.292969 286.414062 301.894531 284.554688 303.453125 282.660156 C 305.007812 280.761719 306.519531 278.828125 307.980469 276.855469 C 309.445312 274.882812 310.855469 272.875 312.21875 270.835938 C 313.585938 268.792969 314.898438 266.722656 316.160156 264.617188 C 317.421875 262.511719 318.632812 260.375 319.789062 258.210938 C 320.945312 256.042969 322.046875 253.851562 323.097656 251.632812 C 324.148438 249.414062 325.140625 247.171875 326.082031 244.902344 C 327.019531 242.632812 327.90625 240.34375 328.730469 238.035156 C 329.558594 235.722656 330.328125 233.390625 331.039062 231.042969 C 331.753906 228.695312 332.40625 226.328125 333.003906 223.945312 C 333.601562 221.566406 334.140625 219.171875 334.617188 216.761719 C 335.097656 214.355469 335.515625 211.9375 335.875 209.507812 C 336.238281 207.082031 336.535156 204.644531 336.777344 202.203125 C 337.019531 199.757812 337.199219 197.3125 337.320312 194.859375 C 337.441406 192.410156 337.5 189.953125 337.5 187.5 C 337.496094 185.046875 337.433594 182.59375 337.3125 180.140625 C 337.1875 177.691406 337.007812 175.246094 336.761719 172.800781 C 336.519531 170.359375 336.21875 167.925781 335.855469 165.5 C 335.492188 163.070312 335.070312 160.652344 334.589844 158.246094 C 334.109375 155.839844 333.570312 153.449219 332.972656 151.066406 C 332.375 148.6875 331.71875 146.324219 331.003906 143.976562 C 330.292969 141.628906 329.519531 139.296875 328.691406 136.988281 C 327.863281 134.679688 326.980469 132.390625 326.039062 130.121094 C 325.097656 127.855469 324.101562 125.613281 323.054688 123.394531 C 322.003906 121.175781 320.898438 118.984375 319.742188 116.820312 C 318.582031 114.660156 317.375 112.523438 316.109375 110.417969 C 314.847656 108.316406 313.535156 106.242188 312.171875 104.203125 C 310.808594 102.164062 309.394531 100.15625 307.933594 98.1875 C 306.46875 96.214844 304.960938 94.28125 303.402344 92.382812 C 301.84375 90.488281 300.242188 88.628906 298.59375 86.8125 C 296.945312 84.992188 295.253906 83.214844 293.519531 81.480469 C 291.785156 79.746094 290.007812 78.054688 288.1875 76.40625 C 286.371094 74.757812 284.511719 73.15625 282.617188 71.597656 C 280.71875 70.039062 278.785156 68.53125 276.8125 67.070312 C 274.84375 65.605469 272.835938 64.191406 270.796875 62.828125 C 268.757812 61.464844 266.683594 60.152344 264.582031 58.890625 C 262.476562 57.625 260.339844 56.417969 258.179688 55.257812 C 256.015625 54.101562 253.824219 52.996094 251.605469 51.945312 C 249.386719 50.898438 247.144531 49.902344 244.878906 48.960938 C 242.609375 48.019531 240.320312 47.136719 238.011719 46.308594 C 235.703125 45.480469 233.371094 44.707031 231.023438 43.996094 C 228.675781 43.28125 226.3125 42.625 223.933594 42.027344 C 221.550781 41.429688 219.160156 40.890625 216.753906 40.410156 C 214.347656 39.929688 211.929688 39.507812 209.5 39.144531 C 207.074219 38.78125 204.640625 38.480469 202.199219 38.238281 C 199.753906 37.992188 197.308594 37.8125 194.859375 37.6875 C 192.40625 37.566406 189.953125 37.503906 187.5 37.5 Z M 187.5 316.070312 C 185.394531 316.070312 183.292969 316.019531 181.191406 315.917969 C 179.089844 315.8125 176.992188 315.660156 174.898438 315.453125 C 172.804688 315.246094 170.714844 314.988281 168.632812 314.679688 C 166.554688 314.371094 164.480469 314.011719 162.417969 313.601562 C 160.351562 313.191406 158.300781 312.730469 156.257812 312.21875 C 154.21875 311.707031 152.191406 311.144531 150.175781 310.535156 C 148.164062 309.925781 146.167969 309.265625 144.1875 308.554688 C 142.203125 307.847656 140.242188 307.089844 138.296875 306.285156 C 136.355469 305.480469 134.429688 304.625 132.527344 303.726562 C 130.625 302.828125 128.746094 301.882812 126.890625 300.890625 C 125.035156 299.898438 123.207031 298.859375 121.402344 297.78125 C 119.597656 296.699219 117.820312 295.570312 116.070312 294.402344 C 114.320312 293.234375 112.601562 292.023438 110.910156 290.769531 C 109.21875 289.515625 107.5625 288.222656 105.933594 286.886719 C 104.308594 285.550781 102.714844 284.179688 101.15625 282.765625 C 99.597656 281.351562 98.074219 279.902344 96.585938 278.414062 C 95.097656 276.925781 93.648438 275.402344 92.234375 273.84375 C 90.820312 272.285156 89.449219 270.691406 88.113281 269.066406 C 86.777344 267.4375 85.484375 265.78125 84.230469 264.089844 C 82.976562 262.398438 81.765625 260.679688 80.597656 258.929688 C 79.425781 257.179688 78.300781 255.402344 77.21875 253.597656 C 76.140625 251.792969 75.101562 249.964844 74.109375 248.109375 C 73.117188 246.253906 72.171875 244.375 71.273438 242.472656 C 70.375 240.570312 69.519531 238.644531 68.714844 236.703125 C 67.910156 234.757812 67.152344 232.796875 66.445312 230.8125 C 65.734375 228.832031 65.074219 226.835938 64.464844 224.824219 C 63.855469 222.808594 63.292969 220.78125 62.78125 218.742188 C 62.269531 216.699219 61.808594 214.648438 61.398438 212.582031 C 60.988281 210.519531 60.628906 208.445312 60.320312 206.367188 C 60.011719 204.285156 59.753906 202.195312 59.546875 200.101562 C 59.339844 198.007812 59.1875 195.910156 59.082031 193.808594 C 58.980469 191.707031 58.929688 189.605469 58.929688 187.5 C 58.929688 185.394531 58.980469 183.292969 59.082031 181.191406 C 59.1875 179.089844 59.339844 176.992188 59.546875 174.898438 C 59.753906 172.804688 60.011719 170.714844 60.320312 168.632812 C 60.628906 166.554688 60.988281 164.480469 61.398438 162.417969 C 61.808594 160.351562 62.269531 158.300781 62.78125 156.257812 C 63.292969 154.21875 63.855469 152.191406 64.464844 150.175781 C 65.074219 148.164062 65.734375 146.167969 66.445312 144.1875 C 67.152344 142.203125 67.910156 140.242188 68.714844 138.296875 C 69.519531 136.355469 70.375 134.429688 71.273438 132.527344 C 72.171875 130.625 73.117188 128.746094 74.109375 126.890625 C 75.101562 125.035156 76.140625 123.207031 77.21875 121.402344 C 78.300781 119.597656 79.429688 117.820312 80.597656 116.070312 C 81.765625 114.320312 82.976562 112.601562 84.230469 110.910156 C 85.484375 109.21875 86.777344 107.5625 88.113281 105.933594 C 89.449219 104.308594 90.820312 102.714844 92.234375 101.15625 C 93.648438 99.597656 95.097656 98.074219 96.585938 96.585938 C 98.074219 95.097656 99.597656 93.648438 101.15625 92.234375 C 102.714844 90.820312 104.308594 89.449219 105.933594 88.113281 C 107.5625 86.777344 109.21875 85.484375 110.910156 84.230469 C 112.601562 82.976562 114.320312 81.765625 116.070312 80.597656 C 117.820312 79.429688 119.597656 78.300781 121.402344 77.21875 C 123.207031 76.140625 125.035156 75.101562 126.890625 74.109375 C 128.746094 73.117188 130.625 72.171875 132.527344 71.273438 C 134.429688 70.375 136.355469 69.519531 138.296875 68.714844 C 140.242188 67.910156 142.203125 67.152344 144.1875 66.445312 C 146.167969 65.734375 148.164062 65.074219 150.175781 64.464844 C 152.191406 63.855469 154.21875 63.292969 156.257812 62.78125 C 158.300781 62.269531 160.351562 61.808594 162.417969 61.398438 C 164.480469 60.988281 166.554688 60.628906 168.632812 60.320312 C 170.714844 60.011719 172.804688 59.753906 174.898438 59.546875 C 176.992188 59.339844 179.089844 59.1875 181.191406 59.082031 C 183.292969 58.980469 185.394531 58.929688 187.5 58.929688 C 189.605469 58.929688 191.707031 58.980469 193.808594 59.082031 C 195.910156 59.1875 198.007812 59.339844 200.101562 59.546875 C 202.195312 59.753906 204.285156 60.011719 206.367188 60.320312 C 208.445312 60.628906 210.519531 60.988281 212.582031 61.398438 C 214.648438 61.808594 216.699219 62.269531 218.742188 62.78125 C 220.78125 63.292969 222.808594 63.855469 224.824219 64.464844 C 226.835938 65.074219 228.832031 65.734375 230.8125 66.445312 C 232.796875 67.152344 234.757812 67.910156 236.703125 68.714844 C 238.644531 69.519531 240.570312 70.375 242.472656 71.273438 C 244.375 72.171875 246.253906 73.117188 248.109375 74.109375 C 249.964844 75.101562 251.792969 76.140625 253.597656 77.21875 C 255.402344 78.300781 257.179688 79.429688 258.929688 80.597656 C 260.679688 81.765625 262.398438 82.976562 264.089844 84.230469 C 265.78125 85.484375 267.4375 86.777344 269.066406 88.113281 C 270.691406 89.449219 272.285156 90.820312 273.84375 92.234375 C 275.402344 93.648438 276.925781 95.097656 278.414062 96.585938 C 279.902344 98.074219 281.351562 99.597656 282.765625 101.15625 C 284.179688 102.714844 285.550781 104.308594 286.886719 105.933594 C 288.222656 107.5625 289.515625 109.21875 290.769531 110.910156 C 292.023438 112.601562 293.234375 114.320312 294.402344 116.070312 C 295.570312 117.820312 296.699219 119.597656 297.78125 121.402344 C 298.859375 123.207031 299.898438 125.035156 300.890625 126.890625 C 301.882812 128.746094 302.828125 130.625 303.726562 132.527344 C 304.625 134.429688 305.480469 136.355469 306.285156 138.296875 C 307.089844 140.242188 307.847656 142.203125 308.554688 144.1875 C 309.265625 146.167969 309.925781 148.164062 310.535156 150.175781 C 311.144531 152.191406 311.707031 154.21875 312.21875 156.257812 C 312.730469 158.300781 313.191406 160.351562 313.601562 162.417969 C 314.011719 164.480469 314.371094 166.554688 314.679688 168.632812 C 314.988281 170.714844 315.246094 172.804688 315.453125 174.898438 C 315.660156 176.992188 315.8125 179.089844 315.917969 181.191406 C 316.019531 183.292969 316.070312 185.394531 316.070312 187.5 C 316.070312 189.601562 316.015625 191.707031 315.910156 193.804688 C 315.804688 195.90625 315.648438 198.003906 315.441406 200.097656 C 315.230469 202.191406 314.972656 204.277344 314.660156 206.359375 C 314.351562 208.4375 313.988281 210.511719 313.578125 212.574219 C 313.164062 214.636719 312.703125 216.6875 312.191406 218.726562 C 311.679688 220.769531 311.117188 222.792969 310.503906 224.808594 C 309.890625 226.820312 309.230469 228.816406 308.519531 230.796875 C 307.8125 232.777344 307.054688 234.738281 306.246094 236.679688 C 305.441406 238.625 304.589844 240.546875 303.6875 242.445312 C 302.789062 244.347656 301.839844 246.226562 300.847656 248.082031 C 299.855469 249.933594 298.820312 251.765625 297.738281 253.570312 C 296.65625 255.371094 295.53125 257.148438 294.359375 258.898438 C 293.191406 260.644531 291.980469 262.363281 290.726562 264.054688 C 289.472656 265.742188 288.179688 267.402344 286.84375 269.027344 C 285.507812 270.652344 284.136719 272.246094 282.722656 273.804688 C 281.308594 275.363281 279.859375 276.886719 278.371094 278.371094 C 276.886719 279.859375 275.363281 281.308594 273.804688 282.722656 C 272.246094 284.136719 270.652344 285.507812 269.027344 286.84375 C 267.402344 288.179688 265.742188 289.472656 264.054688 290.726562 C 262.363281 291.980469 260.644531 293.191406 258.898438 294.359375 C 257.148438 295.53125 255.371094 296.65625 253.570312 297.738281 C 251.765625 298.820312 249.933594 299.855469 248.082031 300.847656 C 246.226562 301.839844 244.347656 302.789062 242.445312 303.6875 C 240.546875 304.589844 238.625 305.441406 236.679688 306.246094 C 234.738281 307.054688 232.777344 307.8125 230.796875 308.519531 C 228.816406 309.230469 226.820312 309.890625 224.808594 310.503906 C 222.792969 311.117188 220.769531 311.679688 218.726562 312.191406 C 216.6875 312.703125 214.636719 313.164062 212.574219 313.578125 C 210.511719 313.988281 208.4375 314.351562 206.359375 314.660156 C 204.277344 314.972656 202.191406 315.230469 200.097656 315.441406 C 198.003906 315.648438 195.90625 315.804688 193.804688 315.910156 C 191.707031 316.015625 189.605469 316.070312 187.5 316.070312 Z M 187.5 316.070312 " fill-opacity="1" fill-rule="nonzero"/></g><path fill="#545454" d="M 239.378906 170.058594 L 178.519531 126.601562 C 177.722656 126.03125 176.890625 125.519531 176.023438 125.0625 C 175.15625 124.609375 174.261719 124.214844 173.34375 123.882812 C 172.421875 123.550781 171.480469 123.28125 170.523438 123.078125 C 169.566406 122.875 168.597656 122.738281 167.621094 122.667969 C 166.644531 122.597656 165.667969 122.59375 164.691406 122.65625 C 163.710938 122.71875 162.742188 122.847656 161.785156 123.046875 C 160.824219 123.242188 159.882812 123.5 158.960938 123.828125 C 158.035156 124.152344 157.136719 124.539062 156.265625 124.988281 C 155.394531 125.433594 154.558594 125.941406 153.757812 126.503906 C 152.957031 127.066406 152.199219 127.679688 151.480469 128.347656 C 150.761719 129.015625 150.09375 129.726562 149.476562 130.484375 C 148.855469 131.242188 148.289062 132.042969 147.78125 132.878906 C 147.269531 133.714844 146.820312 134.578125 146.429688 135.476562 C 146.035156 136.375 145.707031 137.296875 145.445312 138.238281 C 145.179688 139.179688 144.980469 140.136719 144.84375 141.109375 C 144.710938 142.078125 144.644531 143.054688 144.644531 144.03125 L 144.644531 230.96875 C 144.644531 231.949219 144.710938 232.921875 144.84375 233.894531 C 144.976562 234.863281 145.175781 235.820312 145.441406 236.761719 C 145.707031 237.707031 146.035156 238.625 146.425781 239.523438 C 146.816406 240.421875 147.265625 241.289062 147.777344 242.125 C 148.285156 242.964844 148.851562 243.761719 149.46875 244.519531 C 150.089844 245.277344 150.757812 245.992188 151.476562 246.660156 C 152.191406 247.324219 152.953125 247.941406 153.753906 248.503906 C 154.554688 249.066406 155.390625 249.574219 156.261719 250.023438 C 157.132812 250.46875 158.03125 250.855469 158.953125 251.183594 C 159.878906 251.507812 160.820312 251.769531 161.78125 251.964844 C 162.738281 252.160156 163.707031 252.289062 164.6875 252.355469 C 165.664062 252.417969 166.640625 252.414062 167.617188 252.34375 C 168.59375 252.273438 169.5625 252.136719 170.519531 251.929688 C 171.480469 251.726562 172.417969 251.460938 173.339844 251.128906 C 174.261719 250.796875 175.15625 250.402344 176.023438 249.945312 C 176.890625 249.492188 177.722656 248.980469 178.519531 248.410156 L 239.378906 204.941406 C 240.070312 204.449219 240.730469 203.914062 241.359375 203.34375 C 241.988281 202.769531 242.582031 202.164062 243.136719 201.519531 C 243.691406 200.878906 244.207031 200.203125 244.683594 199.5 C 245.160156 198.796875 245.59375 198.066406 245.984375 197.308594 C 246.371094 196.554688 246.714844 195.777344 247.011719 194.980469 C 247.308594 194.183594 247.558594 193.371094 247.757812 192.546875 C 247.957031 191.71875 248.109375 190.886719 248.207031 190.042969 C 248.308594 189.195312 248.359375 188.351562 248.359375 187.5 C 248.359375 186.648438 248.308594 185.804688 248.207031 184.957031 C 248.109375 184.113281 247.957031 183.28125 247.757812 182.453125 C 247.558594 181.628906 247.308594 180.816406 247.011719 180.019531 C 246.714844 179.222656 246.371094 178.445312 245.984375 177.691406 C 245.59375 176.933594 245.160156 176.203125 244.683594 175.5 C 244.207031 174.796875 243.691406 174.121094 243.136719 173.480469 C 242.582031 172.835938 241.988281 172.230469 241.359375 171.65625 C 240.730469 171.085938 240.070312 170.550781 239.378906 170.058594 Z M 166.070312 230.96875 L 166.070312 144.03125 L 226.929688 187.5 Z M 166.070312 230.96875 " fill-opacity="1" fill-rule="nonzero"/></svg>